<svg id="question_answer_black_24dp" xmlns="http://www.w3.org/2000/svg" width="64" height="64" viewBox="0 0 64 64"><path id="Контур_229" data-name="Контур 229" d="M0,0H64V64H0Z" fill="none"/><path id="Контур_230" data-name="Контур 230" d="M36.667,7.333V26H10.453L8.88,27.573,7.333,29.12V7.333H36.667M39.333,2H4.667A2.675,2.675,0,0,0,2,4.667V42L12.667,31.333H39.333A2.675,2.675,0,0,0,42,28.667v-24A2.675,2.675,0,0,0,39.333,2ZM52.667,12.667H47.333v24H12.667V42a2.675,2.675,0,0,0,2.667,2.667H44.667L55.333,55.333v-40A2.675,2.675,0,0,0,52.667,12.667Z" transform="translate(3.333 3.333)" fill="#fc566a"/></svg>