<svg id="payments_black_24dp" xmlns="http://www.w3.org/2000/svg" width="64" height="64" viewBox="0 0 64 64"><path id="Прямоугольник_631" data-name="Прямоугольник 631" fill="none" d="M0 0H64V64H0z"/><path id="Контур_228" data-name="Контур 228" d="M49,30.667V9.333A5.349,5.349,0,0,0,43.667,4H6.333A5.349,5.349,0,0,0,1,9.333V30.667A5.349,5.349,0,0,0,6.333,36H43.667A5.349,5.349,0,0,0,49,30.667Zm-5.333,0H6.333V9.333H43.667ZM25,12a8,8,0,1,0,8,8A7.989,7.989,0,0,0,25,12Zm34.667,0V41.333a5.349,5.349,0,0,1-5.333,5.333H9V41.333H54.333V12Z" transform="translate(1.667 6.667)" fill="#fc566a"/></svg>