<svg id="verified_black_24dp" xmlns="http://www.w3.org/2000/svg" width="32" height="32" viewBox="0 0 32 32"><g id="Сгруппировать_83" data-name="Сгруппировать 83"><path id="Прямоугольник_95" data-name="Прямоугольник 95" fill="none" d="M0 0H32V32H0z"/></g><g id="Сгруппировать_84" data-name="Сгруппировать 84" transform="translate(1.333 2)"><path id="Контур_80" data-name="Контур 80" d="M30.333,15.5,27.08,11.78l.453-4.92L22.72,5.767,20.2,1.5,15.667,3.447,11.133,1.5,8.613,5.753,3.8,6.833l.453,4.933L1,15.5l3.253,3.72L3.8,24.153l4.813,1.093,2.52,4.253,4.533-1.96L20.2,29.487l2.52-4.253,4.813-1.093-.453-4.92ZM13.12,21.793l-5.067-5.08,1.973-1.973,3.093,3.107,7.8-7.827,1.973,1.973Z" transform="translate(-1 -1.5)" fill="#fc566a"/></g></svg>