<svg xmlns="http://www.w3.org/2000/svg" width="85" height="32" viewBox="0 0 85 32">
  <g id="Сгруппировать_2071" data-name="Сгруппировать 2071" transform="translate(-786 -3827)">
    <rect id="Прямоугольник_108" data-name="Прямоугольник 108" width="85" height="32" transform="translate(786 3827)" fill="none"/>
    <g id="Сгруппировать_94" data-name="Сгруппировать 94" transform="translate(786 3827)">
      <g id="LOGO" transform="translate(0 0)">
        <g id="_Группа_" data-name="&lt;Группа&gt;">
          <path id="_Составной_контур_" data-name="&lt;Составной контур&gt;" d="M104.2,113.1l-4.878,10.771H95.76l5.357-11.518c-2.519-1.258-4.2-3.538-4.2-7.744,0-5.9,3.8-8.845,8.316-8.845h4.6v28.108h-3.078V113.1Zm2.559-14.781h-1.639c-2.479,0-4.878,1.612-4.878,6.29,0,4.521,2.2,5.975,4.878,5.975h1.639Z" transform="translate(-95.76 -95.76)" fill="red"/>
          <path id="_Составной_контур_2" data-name="&lt;Составной контур&gt;" d="M180.71,129.485V149.3h-3.079v-8.884h-4.638V149.3h-3.118V129.485h3.118V137.9h4.638v-8.413Zm16.032,23.705h-2.8V149.3h-8.636v3.892h-2.8v-6.408h1.24c1.839-4.206,2.039-10.339,2.039-15.607v-1.69h9.356v17.3h1.6Zm-4.678-21.228h-3.478v.354c0,4.167-.2,10.26-1.879,14.467h5.357Zm13.274,17.612c-4.158,0-6.717-3.263-6.717-9.356,0-6.369,1.8-11.007,6.077-11.007,3.358,0,5.557,2.477,5.557,9.2v1.69h-8.4c0,4.481,1.279,6.84,3.758,6.84a7.061,7.061,0,0,0,3.958-1.337l.72,2.359a8.025,8.025,0,0,1-4.958,1.612Zm-3.438-11.99h5.158c0-3.381-.56-5.857-2.359-5.857C202.78,131.726,202.1,134.045,201.9,137.583Zm14.673,1.848V149.3h-3.119V129.485h3.119v9.16l4.838-9.16h3.159l-5,9.317,5.717,10.5h-3.4Zm9.116-.039c0-6.211,2.439-10.182,7.157-10.182a6.42,6.42,0,0,1,3.718,1.022l-.44,2.909a5.382,5.382,0,0,0-3.318-1.376c-2.239,0-3.838,2.477-3.838,7.469,0,4.953,1.2,7.784,3.718,7.784a5.144,5.144,0,0,0,3.4-1.219l.72,2.28a6.163,6.163,0,0,1-4.2,1.494c-4.318,0-6.917-3.42-6.917-10.182Z" transform="translate(-151.803 -121.19)"/>
        </g>
      </g>
    </g>
  </g>
</svg>
