<svg id="place_black_24dp" xmlns="http://www.w3.org/2000/svg" width="64" height="64" viewBox="0 0 64 64"><path id="Контур_226" data-name="Контур 226" d="M0,0H64V64H0Z" fill="none"/><path id="Контур_227" data-name="Контур 227" d="M25.333,28.667a5.333,5.333,0,1,1,5.333-5.333A5.349,5.349,0,0,1,25.333,28.667Zm16-4.8c0-9.68-7.067-16.533-16-16.533s-16,6.853-16,16.533c0,6.24,5.2,14.507,16,24.373C36.133,38.373,41.333,30.107,41.333,23.867ZM25.333,2c11.2,0,21.333,8.587,21.333,21.867q0,13.28-21.333,31.467Q4.013,37.133,4,23.867C4,10.587,14.133,2,25.333,2Z" transform="translate(6.667 3.333)" fill="#fc566a"/></svg>