<svg xmlns="http://www.w3.org/2000/svg" width="580" height="164" viewBox="0 0 580 164"><defs><clipPath id="clip-path"><rect id="Прямоугольник_510" data-name="Прямоугольник 510" width="580" height="164" rx="4" transform="translate(360 445)" fill="#e6effe"/></clipPath></defs><g id="Группа_масок_100" data-name="Группа масок 100" transform="translate(-360 -445)" clip-path="url(#clip-path)"><g id="call_black_24dp" transform="translate(780 449)"><path id="Контур_194" data-name="Контур 194" d="M0,0H240V240H0Z" fill="none"/><path id="Контур_195" data-name="Контур 195" d="M38.4,23a123.125,123.125,0,0,0,4.5,25.9l-12,12A148.255,148.255,0,0,1,23.3,23H38.4M137,143.2a127.525,127.525,0,0,0,26,4.5v14.9a154.266,154.266,0,0,1-38-7.5l12-11.9M48,3H13A10.029,10.029,0,0,0,3,13,169.985,169.985,0,0,0,173,183a10.029,10.029,0,0,0,10-10V138.1a10.029,10.029,0,0,0-10-10,114.07,114.07,0,0,1-35.7-5.7,8.4,8.4,0,0,0-3.1-.5,10.243,10.243,0,0,0-7.1,2.9l-22,22A151.486,151.486,0,0,1,39.2,80.9l22-22a10.036,10.036,0,0,0,2.5-10.2A113.6,113.6,0,0,1,58,13,10.029,10.029,0,0,0,48,3Z" transform="translate(27 27)" fill="#cfe3fb"/></g></g></svg>