<svg xmlns="http://www.w3.org/2000/svg" width="580" height="164" viewBox="0 0 580 164"><defs><clipPath id="clip-path"><rect id="Прямоугольник_511" data-name="Прямоугольник 511" width="580" height="164" rx="4" transform="translate(980 445)" fill="#ffdde1"/></clipPath></defs><g id="Группа_масок_101" data-name="Группа масок 101" transform="translate(-980 -445)" clip-path="url(#clip-path)"><g id="email_black_24dp_1_" data-name="email_black_24dp (1)" transform="translate(1400 449)"><path id="Контур_196" data-name="Контур 196" d="M0,0H240V240H0Z" fill="none"/><path id="Контур_197" data-name="Контур 197" d="M202,24A20.059,20.059,0,0,0,182,4H22A20.059,20.059,0,0,0,2,24V144a20.059,20.059,0,0,0,20,20H182a20.059,20.059,0,0,0,20-20Zm-20,0L102,74,22,24Zm0,120H22V44l80,50,80-50Z" transform="translate(18 36)" fill="#fac5cb"/></g></g></svg>