<svg xmlns="http://www.w3.org/2000/svg" width="64" height="64" viewBox="0 0 64 64"><g id="Сгруппировать_1282" data-name="Сгруппировать 1282" transform="translate(-720 -2001)"><path id="Прямоугольник_858" data-name="Прямоугольник 858" transform="translate(720 2001)" fill="none" d="M0 0H64V64H0z"/><path id="portfolio" d="M54.37,6.563H39.484V4.922A4.928,4.928,0,0,0,34.563,0H21.438a4.928,4.928,0,0,0-4.922,4.922V6.563H1.641A1.645,1.645,0,0,0,0,8.2V44.3a4.928,4.928,0,0,0,4.922,4.922H51.078A4.928,4.928,0,0,0,56,44.3V8.231A1.593,1.593,0,0,0,54.37,6.563ZM19.8,4.922a1.643,1.643,0,0,1,1.641-1.641H34.563A1.643,1.643,0,0,1,36.2,4.922V6.563H19.8ZM52.083,9.844,46.988,25.128a1.638,1.638,0,0,1-1.556,1.122H36.2V24.609a1.641,1.641,0,0,0-1.641-1.641H21.438A1.641,1.641,0,0,0,19.8,24.609V26.25H10.568a1.638,1.638,0,0,1-1.556-1.122L3.917,9.844ZM32.922,26.25v3.281H23.078V26.25ZM52.719,44.3a1.643,1.643,0,0,1-1.641,1.641H4.922A1.643,1.643,0,0,1,3.281,44.3V18.313L5.9,26.166a4.915,4.915,0,0,0,4.669,3.365H19.8v1.641a1.641,1.641,0,0,0,1.641,1.641H34.563A1.641,1.641,0,0,0,36.2,31.172V29.531h9.229A4.915,4.915,0,0,0,50.1,26.166l2.618-7.853Zm0,0" transform="translate(724 2008.391)" fill="#fc566a"/></g></svg>