<svg xmlns="http://www.w3.org/2000/svg" width="373" height="204" viewBox="0 0 373 204"><defs><clipPath id="clip-path"><path id="Контур_100" data-name="Контур 100" d="M4,0H369a4,4,0,0,1,4,4V200a4,4,0,0,1-4,4H4a4,4,0,0,1-4-4V4A4,4,0,0,1,4,0Z" transform="translate(-20628 -19633)" fill="#0779db"/></clipPath></defs><g id="Группа_масок_4" data-name="Группа масок 4" transform="translate(20628 19633)" clip-path="url(#clip-path)"><g id="Сгруппировать_118" data-name="Сгруппировать 118" transform="translate(-73.455 159.114)"><path id="Контур_98" data-name="Контур 98" d="M369.668,373.122a6.328,6.328,0,0,1-4.857-2.03,6.729,6.729,0,0,1-1.89-4.738v-156.3a6.48,6.48,0,0,1,6.747-6.766H482.885a6.482,6.482,0,0,1,6.748,6.766V237.12a7.08,7.08,0,0,1-1.891,5.008,6.341,6.341,0,0,1-4.857,2.03H413.86a2.358,2.358,0,0,0-2.355,2.361V366.354a6.5,6.5,0,0,1-2.023,4.738,6.778,6.778,0,0,1-4.994,2.03Z" transform="translate(-20938.836 -20008.965)" fill="none" stroke="#f2f0ff" stroke-miterlimit="10" stroke-width="1" opacity=".4"/><path id="Контур_99" data-name="Контур 99" d="M494.012,337.334a4.389,4.389,0,0,1,3.83,2.252l8.6,15.4,4.6,8.236a2.192,2.192,0,0,0,3.837-.013l42.38-77.112a25.8,25.8,0,0,1,2.642-3.406q1.886-2.139,6.165-2.144h26.923a6.566,6.566,0,0,1,4.655,1.766,5.945,5.945,0,0,1,1.887,4.543V432.56a6.052,6.052,0,0,1-1.887,4.415,6.315,6.315,0,0,1-4.655,1.893H563.04a6.309,6.309,0,0,1-4.655-1.893,6.052,6.052,0,0,1-1.886-4.415V365.171a2.194,2.194,0,0,0-4.138-1.022l-24.045,45.928a15.052,15.052,0,0,1-3.27,4.038,8.108,8.108,0,0,1-5.536,1.767H506.424a8.091,8.091,0,0,1-5.535-1.767,14.886,14.886,0,0,1-3.271-4.038l-28.434-52.735-1.456-2.4-6.6-10.924a4.4,4.4,0,0,1,3.755-6.683Z" transform="translate(-20767.004 -20016.186)" fill="none" stroke="#f2f0ff" stroke-miterlimit="10" stroke-width="1" opacity=".4"/><rect id="Прямоугольник_129" data-name="Прямоугольник 129" width="50" height="6" rx="1" transform="translate(-20537.559 -19702.762)" fill="#fc566a"/><rect id="Прямоугольник_130" data-name="Прямоугольник 130" width="50" height="6" rx="1" transform="translate(-20319.518 -19616.844)" fill="#fc566a"/><rect id="Прямоугольник_131" data-name="Прямоугольник 131" width="50" height="6" rx="1" transform="translate(-20289.518 -19752.514)" fill="#fc566a"/></g></g></svg>