<svg xmlns="http://www.w3.org/2000/svg" width="220" height="40" viewBox="0 0 220 40"><g id="Сгруппировать_100" data-name="Сгруппировать 100"><path id="Прямоугольник_108" data-name="Прямоугольник 108" fill="none" d="M0 0H220V40H0z"/><g id="Сгруппировать_99" data-name="Сгруппировать 99"><path id="Контур_91" data-name="Контур 91" d="M0,19.375c0-9.134,0-13.7,2.836-16.538S10.237,0,19.367,0h1.249c9.13,0,13.694,0,16.531,2.837s2.836,7.4,2.836,16.538v1.25c0,9.134,0,13.7-2.836,16.538S29.747,40,20.617,40H19.367c-9.13,0-13.694,0-16.531-2.838S0,29.759,0,20.625Z" fill="#2787f5"/><path id="Контур_92" data-name="Контур 92" d="M31.737,11.1c.19-.634,0-1.1-.906-1.1H27.837a1.291,1.291,0,0,0-1.3.846,25.05,25.05,0,0,1-3.68,6.121c-.7.7-1.015.92-1.394.92-.191,0-.466-.222-.466-.856V11.1c0-.761-.221-1.1-.856-1.1h-4.7a.723.723,0,0,0-.762.688c0,.722,1.08.887,1.191,2.917v4.409c0,.966-.175,1.141-.556,1.141-1.015,0-3.484-3.726-4.948-7.991C10.073,10.335,9.786,10,9.021,10h-3C5.171,10,5,10.4,5,10.846c0,.792,1.015,4.725,4.726,9.926,2.474,3.552,5.96,5.477,9.13,5.477,1.9,0,2.139-.427,2.139-1.164V22.4c0-.855.18-1.025.782-1.025.445,0,1.206.221,2.981,1.934,2.03,2.031,2.365,2.941,3.507,2.941h2.994c.856,0,1.283-.427,1.037-1.271a12.85,12.85,0,0,0-2.525-3.509c-.7-.825-1.744-1.713-2.062-2.156-.444-.57-.317-.825,0-1.331,0,0,3.647-5.138,4.028-6.883Z" transform="translate(1.247 2.5)" fill="#fff" fill-rule="evenodd"/><path id="Контур_93" data-name="Контур 93" d="M57.053,17.478a3.891,3.891,0,0,0,2.491-3.7c0-2.763-2.524-4.716-6.16-4.716H45V26.57h8.754c3.77,0,6.4-2.054,6.4-4.85a4.4,4.4,0,0,0-3.1-4.244Zm-8.179-5.221h4.511a2.047,2.047,0,0,1,2.289,1.92c0,1.113-.942,1.886-2.289,1.886H48.873Zm4.882,11.115H48.873V19.094h4.882a2.237,2.237,0,0,1,2.524,2.155C56.279,22.529,55.27,23.372,53.755,23.372Zm20.794,3.2h5.083l-8.047-9.1,7.373-8.42H74.348l-5.86,6.8h-.942v-6.8H63.675V26.57h3.871V19.6h.943Zm14.965.336c5.488,0,9.36-3.772,9.36-9.094S95,8.719,89.516,8.719s-9.36,3.772-9.36,9.094S84.028,26.906,89.515,26.906Zm0-3.538c-3.164,0-5.319-2.256-5.319-5.556s2.155-5.557,5.319-5.557,5.32,2.256,5.32,5.557-2.155,5.558-5.32,5.558ZM113.956,9.057v6.9h-7.844v-6.9h-3.871V26.57h3.871V19.5h7.844V26.57h3.872V9.058ZM126.575,26.57h3.871V12.6h6.06V9.058H120.515V12.6h6.06Zm19.1-17.85c-3.4,0-6.4,1.751-7.273,4.782l3.57.606a3.847,3.847,0,0,1,3.5-2.087c2.12,0,3.366,1.515,3.535,3.8h-3.771c-5.15,0-7.709,2.256-7.709,5.49,0,3.268,2.525,5.591,6.094,5.591a6.462,6.462,0,0,0,5.623-3.1l.807,2.763h2.863V16.736c0-5.086-2.761-8.016-7.238-8.016ZM144.53,23.64c-1.884,0-3.1-.976-3.1-2.492,0-1.346.976-2.29,3.938-2.29h3.67c0,2.862-1.818,4.783-4.512,4.783Zm23.458,2.931h5.084l-8.047-9.1,7.373-8.42h-4.613l-5.858,6.8h-.942v-6.8h-3.872V26.57h3.872V19.6h.942Zm11.652,0h3.871V12.593h6.06V9.055H173.579v3.537h6.06Zm29.133-8.96a9.091,9.091,0,0,0-18.18.2,8.754,8.754,0,0,0,9.09,9.094c3.636,0,7.07-1.718,8.383-5.052l-3.636-.606a5.316,5.316,0,0,1-4.511,2.123,5.014,5.014,0,0,1-5.287-4.513h14.073c.034-.371.067-.775.067-1.247Zm-9.09-5.524a4.994,4.994,0,0,1,4.882,3.739h-9.7a4.9,4.9,0,0,1,4.814-3.737Z" transform="translate(11.227 2.18)"/></g></g></svg>