<svg xmlns="http://www.w3.org/2000/svg" width="16" height="18.286" viewBox="0 0 16 18.286"><path id="Icon_metro-attachment" data-name="Icon metro-attachment" d="M14.853,7.768l-1.16-1.159-5.8,5.8a2.46,2.46,0,0,0,3.48,3.479l6.96-6.959a4.1,4.1,0,0,0-5.8-5.8L5.226,10.436l-.016.015A5.719,5.719,0,0,0,13.3,18.539l.015-.016h0L18.3,13.536l-1.16-1.159-4.988,4.987-.015.015A4.079,4.079,0,0,1,6.37,11.612l.016-.015h0l7.309-7.307a2.461,2.461,0,0,1,3.48,3.479l-6.96,6.959a.82.82,0,0,1-1.16-1.159l5.8-5.8Z" transform="translate(-3.535 -1.928)"/></svg>