<svg width="100" height="100" viewBox="0 0 100 100" fill="none" xmlns="http://www.w3.org/2000/svg"><path d="M60.4816 39.5191C69.3503 48.397 69.2285 62.6305 60.535 71.3723C60.5187 71.3901 60.4994 71.4094 60.4816 71.4272L50.5066 81.4022C41.7087 90.2001 27.395 90.1989 18.5984 81.4022C9.80053 72.6058 9.80053 58.2905 18.5984 49.4941L24.1063 43.9861C25.567 42.5255 28.0824 43.4963 28.1578 45.5605C28.254 48.1911 28.7257 50.834 29.5962 53.3862C29.891 54.2504 29.6803 55.2064 29.0346 55.8521L27.092 57.7947C22.9319 61.9548 22.8014 68.7286 26.9206 72.9294C31.0804 77.1716 37.9177 77.1968 42.1094 73.0051L52.0844 63.0316C56.269 58.847 56.2515 52.0833 52.0844 47.9162C51.5351 47.3678 50.9817 46.9418 50.5495 46.6442C50.2437 46.4342 49.9912 46.1557 49.8121 45.8308C49.6331 45.5059 49.5325 45.1437 49.5183 44.773C49.4595 43.2045 50.0152 41.5881 51.2547 40.3487L54.3799 37.2233C55.1994 36.4038 56.485 36.3032 57.4353 36.9664C58.5236 37.7263 59.543 38.5805 60.4816 39.5191V39.5191ZM81.4016 18.598C72.605 9.80127 58.2914 9.80008 49.4935 18.598L39.5185 28.573C39.5007 28.5908 39.4814 28.6101 39.465 28.6279C30.7716 37.3697 30.6498 51.6032 39.5185 60.4811C40.457 61.4196 41.4763 62.2738 42.5646 63.0336C43.5149 63.6969 44.8006 63.5961 45.62 62.7767L48.7452 59.6513C49.9846 58.4119 50.5404 56.7956 50.4816 55.227C50.4674 54.8563 50.3668 54.4941 50.1877 54.1692C50.0087 53.8443 49.7562 53.5658 49.4504 53.3558C49.0182 53.0582 48.4648 52.6322 47.9154 52.0838C43.7483 47.9168 43.7308 41.1531 47.9154 36.9685L57.8904 26.9949C62.0822 22.8032 68.9193 22.8284 73.0793 27.0706C77.1984 31.2714 77.0681 38.0452 72.9079 42.2053L70.9653 44.1479C70.3196 44.7936 70.1089 45.7496 70.4037 46.6138C71.2742 49.166 71.7459 51.8089 71.8421 54.4396C71.9176 56.5037 74.4329 57.4745 75.8935 56.0139L81.4015 50.506C90.1995 41.7097 90.1995 27.3944 81.4016 18.598V18.598Z"/></svg>