<svg xmlns="http://www.w3.org/2000/svg" width="15" height="24" viewBox="0 0 15 24"><path d="M13.53,15.651a11.048,11.048,0,0,1-4.383,1.261l1.018.965,3.716,3.575c1.359,1.34-.852,3.435-2.226,2.142-.93-.909-2.294-2.221-3.716-3.59L4.222,23.59c-1.373,1.289-3.585-.825-2.211-2.142.945-.909,2.294-2.221,3.716-3.575l1-.965a11,11,0,0,1-4.413-1.261C.73,14.663.033,14.086.647,12.882c.36-.684,1.349-1.261,2.659-.267a8.1,8.1,0,0,0,4.622,1.354,8.1,8.1,0,0,0,4.622-1.354c1.31-.989,2.294-.417,2.659.267.6,1.2-.093,1.781-1.68,2.769ZM1.607,6.078A6.206,6.206,0,0,1,7.924,0a6.206,6.206,0,0,1,6.317,6.078,6.2,6.2,0,0,1-6.317,6.064A6.2,6.2,0,0,1,1.607,6.078Zm3.215,0a3.05,3.05,0,0,0,3.1,2.985,3.05,3.05,0,0,0,3.1-2.985,3.053,3.053,0,0,0-3.1-3A3.053,3.053,0,0,0,4.821,6.078Z" transform="translate(-.426)"/></svg>