<svg xmlns="http://www.w3.org/2000/svg" width="48" height="40" viewBox="0 0 48 40"><path id="Контур_186" data-name="Контур 186" d="M36.687,22.96a3.011,3.011,0,0,1-2.653-1.176,5.965,5.965,0,0,1-1.006-2.805L29.916-12.877a3.814,3.814,0,0,1,.823-3.077,3.676,3.676,0,0,1,2.836-1.086H45.471A3.982,3.982,0,0,1,48.4-15.954a3.634,3.634,0,0,1,.915,3.077L46.2,18.978a5.463,5.463,0,0,1-1.1,2.805A3.262,3.262,0,0,1,42.36,22.96Zm-28.548,0a3.011,3.011,0,0,1-2.653-1.176,5.965,5.965,0,0,1-1.006-2.805L1.368-12.877a3.814,3.814,0,0,1,.823-3.077A3.676,3.676,0,0,1,5.028-17.04H16.923a3.982,3.982,0,0,1,2.928,1.086,3.634,3.634,0,0,1,.915,3.077L17.655,18.978a5.965,5.965,0,0,1-1.006,2.805,3.22,3.22,0,0,1-2.836,1.176Z" transform="translate(-1.34 17.04)" fill="#0779db"/></svg>