<svg xmlns="http://www.w3.org/2000/svg" width="20" height="20" viewBox="0 0 20 20"><path fill="none" d="M0 0H20V20H0z"/><path d="M10.167,7.667a2.5,2.5,0,1,1-2.5,2.5,2.507,2.507,0,0,1,2.5-2.5m0-1.667a4.167,4.167,0,1,0,4.167,4.167A4.168,4.168,0,0,0,10.167,6ZM1.833,11H3.5a.833.833,0,0,0,0-1.667H1.833a.833.833,0,0,0,0,1.667Zm15,0H18.5a.833.833,0,1,0,0-1.667H16.833a.833.833,0,0,0,0,1.667Zm-7.5-9.167V3.5A.833.833,0,0,0,11,3.5V1.833a.833.833,0,0,0-1.667,0Zm0,15V18.5A.833.833,0,1,0,11,18.5V16.833a.833.833,0,0,0-1.667,0ZM5.158,3.983A.831.831,0,0,0,3.983,5.158l.883.883A.831.831,0,0,0,6.042,4.867ZM15.467,14.292a.831.831,0,0,0-1.175,1.175l.883.883a.831.831,0,0,0,1.175-1.175Zm.883-9.133a.831.831,0,0,0-1.175-1.175l-.883.883a.831.831,0,0,0,1.175,1.175ZM6.042,15.467a.831.831,0,1,0-1.175-1.175l-.883.883A.831.831,0,1,0,5.158,16.35Z" transform="translate(-.167 -.167)"/></svg>