<svg xmlns="http://www.w3.org/2000/svg" width="24" height="19" viewBox="0 0 24 19"><path d="M21.533,8.116c.015.208.015.416.015.623A13.715,13.715,0,0,1,7.553,22.381,14.163,14.163,0,0,1,0,20.228a10.437,10.437,0,0,0,1.188.059,10.014,10.014,0,0,0,6.107-2.048,4.914,4.914,0,0,1-4.6-3.325,6.36,6.36,0,0,0,.929.074,5.329,5.329,0,0,0,1.294-.163A4.828,4.828,0,0,1,.975,10.12V10.06a5.051,5.051,0,0,0,2.223.609A4.761,4.761,0,0,1,1.005,6.676a4.667,4.667,0,0,1,.67-2.42A14.1,14.1,0,0,0,11.817,9.274a5.281,5.281,0,0,1-.122-1.1,4.856,4.856,0,0,1,4.919-4.795,4.967,4.967,0,0,1,3.594,1.514A9.838,9.838,0,0,0,23.33,3.737a4.806,4.806,0,0,1-2.162,2.642A10.063,10.063,0,0,0,24,5.637a10.432,10.432,0,0,1-2.467,2.479Z" transform="translate(0 -3.381)"/></svg>