<svg width="100" height="100" viewBox="0 0 100 100" fill="none" xmlns="http://www.w3.org/2000/svg"><g clip-path="url(#clip0_921_35329)"><path d="M86.7188 9.74654C84.2384 7.46139 74.1993 0.176229 51.8165 0.0785725C51.8165 0.0785725 25.4298 -1.50346 12.5782 10.2934C5.42976 17.4419 2.91023 27.9301 2.63679 40.9184C2.36336 53.9067 2.03132 78.2426 25.4884 84.8442H25.5079L25.4884 94.9223C25.4884 94.9223 25.3321 99.0044 28.0274 99.8247C31.2696 100.84 33.1837 97.7348 36.2891 94.395C37.9884 92.559 40.3321 89.8637 42.1095 87.8129C58.1641 89.1606 70.4884 86.0747 71.8946 85.6254C75.1368 84.5708 93.4766 82.227 96.4454 57.8911C99.5313 32.7739 94.961 16.9145 86.7188 9.74654V9.74654ZM89.4337 56.0551C86.9141 76.3676 72.0509 77.6567 69.3165 78.5356C68.1446 78.9067 57.3048 81.602 43.6915 80.7231C43.6915 80.7231 33.5352 92.9692 30.3712 96.1528C29.336 97.1879 28.2032 97.0903 28.2227 95.0395C28.2227 93.6919 28.3009 78.3012 28.3009 78.3012C28.2813 78.3012 28.2813 78.3012 28.3009 78.3012C8.41804 72.7934 9.58992 52.0708 9.80476 41.2309C10.0196 30.3911 12.0704 21.5044 18.1251 15.5278C29.004 5.66451 51.4063 7.12935 51.4063 7.12935C70.3321 7.20748 79.3946 12.9106 81.504 14.8247C88.4766 20.8012 92.0313 35.0981 89.4337 56.0551V56.0551ZM62.2852 40.2739C62.3634 41.9536 59.8438 42.0708 59.7657 40.3911C59.5509 36.0942 57.5391 34.0044 53.3985 33.77C51.7188 33.6723 51.8751 31.1528 53.5352 31.2504C58.9845 31.5434 62.0118 34.6684 62.2852 40.2739ZM66.2501 42.4809C66.4454 34.1997 61.2696 27.7153 51.4454 26.9926C49.7852 26.8754 49.961 24.3559 51.6212 24.4731C62.9493 25.2934 68.9845 33.0864 68.7696 42.5395C68.7501 44.2192 66.211 44.1411 66.2501 42.4809V42.4809ZM75.4298 45.0981C75.4493 46.7778 72.9102 46.7973 72.9102 45.1176C72.793 29.1997 62.1876 20.5278 49.3165 20.4301C47.6563 20.4106 47.6563 17.9106 49.3165 17.9106C63.711 18.0083 75.293 27.9497 75.4298 45.0981V45.0981ZM73.2227 64.2583V64.2973C71.1134 68.0083 67.168 72.1098 63.1055 70.8012L63.0665 70.7426C58.9454 69.5903 49.2384 64.5903 43.1055 59.7075C39.9415 57.2075 37.0509 54.2583 34.8243 51.4262C32.8126 48.9067 30.7813 45.9184 28.8087 42.3247C24.6485 34.8051 23.7305 31.4458 23.7305 31.4458C22.4219 27.3833 26.504 23.4379 30.2344 21.3286H30.2735C32.0704 20.3911 33.7891 20.7036 34.9415 22.0903C34.9415 22.0903 37.3634 24.9809 38.3985 26.4067C39.3751 27.7348 40.6837 29.8637 41.3673 31.0551C42.5587 33.184 41.8165 35.352 40.6446 36.2504L38.3009 38.1254C37.1095 39.0825 37.2657 40.8598 37.2657 40.8598C37.2657 40.8598 40.7423 54.0044 53.7305 57.3247C53.7305 57.3247 55.5079 57.4809 56.4649 56.2895L58.3399 53.9458C59.2384 52.7739 61.4063 52.0317 63.5352 53.2231C66.4063 54.8442 70.0587 57.3637 72.4805 59.6489C73.8477 60.7622 74.1602 62.4614 73.2227 64.2583Z"/></g><defs><clipPath id="clip0_921_35329"><path fill="#fff" d="M0 0H100V100H0z"/></clipPath></defs></svg>