<svg width="100" height="100" viewBox="0 0 100 100" fill="none" xmlns="http://www.w3.org/2000/svg"><path d="M94.6181 25.9861C95.2605 23.816 94.6181 22.2188 91.5279 22.2188H81.3022C78.698 22.2188 77.5001 23.5903 76.8577 25.1181C76.8577 25.1181 71.6494 37.809 64.2883 46.0382C61.9098 48.4167 60.816 49.1806 59.514 49.1806C58.8716 49.1806 57.882 48.4167 57.882 46.2465V25.9861C57.882 23.3819 57.1529 22.2188 55.0001 22.2188H38.9237C37.2917 22.2188 36.3195 23.434 36.3195 24.5625C36.3195 27.0278 40.0001 27.6007 40.382 34.5451V49.6146C40.382 52.9132 39.7917 53.5208 38.4897 53.5208C35.0174 53.5208 26.5799 40.7778 21.5799 26.1944C20.573 23.3646 19.5834 22.2188 16.9619 22.2188H6.73619C3.81953 22.2188 3.22925 23.5903 3.22925 25.1181C3.22925 27.8264 6.70147 41.2813 19.3924 59.059C27.8473 71.1944 39.757 77.7743 50.5904 77.7743C57.1008 77.7743 57.8994 76.316 57.8994 73.7986C57.8994 62.2014 57.3091 61.1076 60.573 61.1076C62.0834 61.1076 64.6876 61.8715 70.764 67.7222C77.7084 74.6667 78.8542 77.7743 82.7431 77.7743H92.9688C95.8855 77.7743 97.3612 76.316 96.5105 73.434C94.5661 67.375 81.4237 54.9097 80.8334 54.0764C79.323 52.1319 79.757 51.2639 80.8334 49.5278C80.8508 49.5104 93.3334 31.941 94.6181 25.9861V25.9861Z"/></svg>