<svg width="100" height="100" viewBox="0 0 100 100" fill="none" xmlns="http://www.w3.org/2000/svg"><path d="M94.6184 25.9861C95.2607 23.816 94.6184 22.2188 91.5281 22.2188H81.3024C78.6982 22.2188 77.5003 23.5903 76.858 25.1181C76.858 25.1181 71.6496 37.809 64.2885 46.0382C61.91 48.4167 60.8163 49.1806 59.5142 49.1806C58.8718 49.1806 57.8823 48.4167 57.8823 46.2465V25.9861C57.8823 23.3819 57.1531 22.2188 55.0003 22.2188H38.9239C37.292 22.2188 36.3198 23.434 36.3198 24.5625C36.3198 27.0278 40.0003 27.6007 40.3823 34.5451V49.6146C40.3823 52.9132 39.792 53.5208 38.4899 53.5208C35.0177 53.5208 26.5802 40.7778 21.5802 26.1944C20.5732 23.3646 19.5837 22.2188 16.9621 22.2188H6.73644C3.81977 22.2188 3.22949 23.5903 3.22949 25.1181C3.22949 27.8264 6.70171 41.2813 19.3927 59.059C27.8475 71.1944 39.7573 77.7743 50.5906 77.7743C57.101 77.7743 57.8996 76.316 57.8996 73.7986C57.8996 62.2014 57.3093 61.1076 60.5732 61.1076C62.0837 61.1076 64.6878 61.8715 70.7642 67.7222C77.7087 74.6667 78.8545 77.7743 82.7434 77.7743H92.9691C95.8857 77.7743 97.3614 76.316 96.5107 73.434C94.5663 67.375 81.4239 54.9097 80.8337 54.0764C79.3232 52.1319 79.7573 51.2639 80.8337 49.5278C80.851 49.5104 93.3337 31.941 94.6184 25.9861V25.9861Z"/></svg>