<svg width="100" height="100" viewBox="0 0 100 100" fill="none" xmlns="http://www.w3.org/2000/svg"><path d="M80.6445 18.9648C72.4609 10.7617 61.5625 6.25 49.9805 6.25C26.0742 6.25 6.62109 25.7031 6.62109 49.6094C6.62109 57.2461 8.61328 64.707 12.4023 71.2891L6.25 93.75L29.2383 87.7148C35.5664 91.1719 42.6953 92.9883 49.9609 92.9883H49.9805C73.8672 92.9883 93.75 73.5352 93.75 49.6289C93.75 38.0469 88.8281 27.168 80.6445 18.9648V18.9648ZM49.9805 85.6836C43.4961 85.6836 37.1484 83.9453 31.6211 80.6641L30.3125 79.8828L16.6797 83.457L20.3125 70.1563L19.4531 68.7891C15.8398 63.0469 13.9453 56.4258 13.9453 49.6094C13.9453 29.7461 30.1172 13.5742 50 13.5742C59.6289 13.5742 68.6719 17.3242 75.4687 24.1406C82.2656 30.957 86.4453 40 86.4258 49.6289C86.4258 69.5117 69.8437 85.6836 49.9805 85.6836V85.6836ZM69.7461 58.6914C68.6719 58.1445 63.3398 55.5273 62.3438 55.1758C61.3477 54.8047 60.625 54.6289 59.9023 55.7227C59.1797 56.8164 57.1094 59.2383 56.4648 59.9805C55.8398 60.7031 55.1953 60.8008 54.1211 60.2539C47.7539 57.0703 43.5742 54.5703 39.375 47.3633C38.2617 45.4492 40.4883 45.5859 42.5586 41.4453C42.9102 40.7227 42.7344 40.0977 42.4609 39.5508C42.1875 39.0039 40.0195 33.6719 39.1211 31.5039C38.2422 29.3945 37.3438 29.6875 36.6797 29.6484C36.0547 29.6094 35.332 29.6094 34.6094 29.6094C33.8867 29.6094 32.7148 29.8828 31.7187 30.957C30.7227 32.0508 27.9297 34.668 27.9297 40C27.9297 45.332 31.8164 50.4883 32.3438 51.2109C32.8906 51.9336 39.9805 62.8711 50.8594 67.5781C57.7344 70.5469 60.4297 70.8008 63.8672 70.293C65.957 69.9805 70.2734 67.6758 71.1719 65.1367C72.0703 62.5977 72.0703 60.4297 71.7969 59.9805C71.543 59.4922 70.8203 59.2188 69.7461 58.6914Z"/></svg>