<svg xmlns="http://www.w3.org/2000/svg" width="80" height="80" viewBox="0 0 80 80"><defs><linearGradient id="linear-gradient" x1=".5" x2=".5" y2="1" gradientUnits="objectBoundingBox"><stop offset="0" stop-color="#2ea0ff"/><stop offset="1" stop-color="#0679d9"/></linearGradient></defs><g id="Сгруппировать_74" data-name="Сгруппировать 74" transform="translate(22999 21650)"><path id="Прямоугольник_94" data-name="Прямоугольник 94" transform="translate(-22999 -21650)" fill="none" d="M0 0H80V80H0z"/><path id="islam" d="M100.928,71.921l3.154,8.543-7.419-5.543-7.419,5.543L92.4,71.921,84.658,66.8l9.368.263,2.64-8.708,2.64,8.708,9.36-.263ZM66.237,69.413c0-13.849,11.6-25.075,25.905-25.075a26.846,26.846,0,0,1,4.521.389A30.879,30.879,0,0,0,80.3,40.08C63.568,40.08,50,53.212,50,69.413S63.568,98.746,80.3,98.746A30.879,30.879,0,0,0,96.662,94.1a26.845,26.845,0,0,1-4.52.389C77.834,94.488,66.237,83.262,66.237,69.413Z" transform="translate(-23038.334 -21679.414)" fill="url(#linear-gradient)"/></g></svg>