<svg xmlns="http://www.w3.org/2000/svg" width="24" height="21" viewBox="0 0 24 21"><g id="delivery" transform="translate(0 -30.474)"><g id="Сгруппировать_1337" data-name="Сгруппировать 1337" transform="translate(12.53 33.81)"><g id="Сгруппировать_1336" data-name="Сгруппировать 1336"><path id="Контур_342" data-name="Контур 342" d="M268.757,102.136l-1.442.556,2.074,5.271,1.442-.556Z" transform="translate(-267.315 -102.136)" fill="#0779db"/></g></g><g id="Сгруппировать_1339" data-name="Сгруппировать 1339" transform="translate(6.393 43.789)"><g id="Сгруппировать_1338" data-name="Сгруппировать 1338"><path id="Контур_343" data-name="Контур 343" d="M143.85,318.921a3.88,3.88,0,0,0-5-2.191,3.832,3.832,0,0,0-.16,7.1,3.866,3.866,0,0,0,2.959.066,3.83,3.83,0,0,0,2.139-2.032A3.792,3.792,0,0,0,143.85,318.921Z" transform="translate(-136.377 -316.469)" fill="#0779db"/></g></g><g id="Сгруппировать_1341" data-name="Сгруппировать 1341" transform="translate(0 30.474)"><g id="Сгруппировать_1340" data-name="Сгруппировать 1340"><path id="Контур_344" data-name="Контур 344" d="M4.13,30.474H0V32.01H3.089l4.48,10.954A5.461,5.461,0,0,1,9.007,42.4Z" transform="translate(0 -30.474)" fill="#0779db"/></g></g><g id="Сгруппировать_1343" data-name="Сгруппировать 1343" transform="translate(8.225 32.162)"><g id="Сгруппировать_1342" data-name="Сгруппировать 1342"><path id="Контур_345" data-name="Контур 345" d="M190.682,76.292l-1.2.463-3.919-10.027-2.884,1.112,2.612,6.684-4.326,1.668-2.612-6.684-2.884,1.112,2.428,6.213a5.436,5.436,0,0,1,2.628.9,5.35,5.35,0,0,1,2.026,2.515,5.428,5.428,0,0,1,.229.736l3.988-1.537,4.476-1.726Z" transform="translate(-175.467 -66.729)" fill="#0779db"/></g></g></g></svg>