<svg xmlns="http://www.w3.org/2000/svg" width="24" height="14" viewBox="0 0 24 14"><path id="fast-delivery" d="M17.109.139c2.081.476,2.877,1.675,3.875,3.326H17.109ZM4.949,3.6c.407,0,.7.194.7.647a.7.7,0,0,1-.7.693H.7A.693.693,0,1,0,.7,6.33H7.031a.693.693,0,1,1,0,1.386H.7A.693.693,0,1,0,.7,9.1H2.25v2.079a.7.7,0,0,0,.7.693H4.367a2.7,2.7,0,0,0,5.283,0h7.139a2.7,2.7,0,0,0,5.283,0H23.3a.7.7,0,0,0,.7-.693V7.023c0-2.034-2.176-2.169-2.178-2.172H16.406a.7.7,0,0,1-.7-.693V0H2.953a.7.7,0,0,0-.7.693V2.218H1.406a.693.693,0,1,0,0,1.386Zm15.392,6.841a1.258,1.258,0,0,1,0,1.8,1.284,1.284,0,1,1,0-1.8Zm-12.422,0a1.258,1.258,0,0,1,0,1.8,1.284,1.284,0,1,1,0-1.8Zm0,0" fill="#0779db" fill-rule="evenodd"/></svg>