<svg xmlns="http://www.w3.org/2000/svg" width="48" height="48" viewBox="0 0 48 48">
  <path id="Icon_ionic-logo-whatsapp" data-name="Icon ionic-logo-whatsapp" d="M26.685,2.25A23.473,23.473,0,0,0,3.121,25.632,23.14,23.14,0,0,0,6.5,37.706L2.25,50.25,15.3,46.106A23.6,23.6,0,0,0,50.25,25.632,23.473,23.473,0,0,0,26.685,2.25ZM38.4,34.512c-.554,1.374-3.062,2.629-4.168,2.686s-1.137.856-7.161-1.761-9.648-8.983-9.934-9.393-2.334-3.326-2.223-6.263a6.677,6.677,0,0,1,2.293-4.9,2.308,2.308,0,0,1,1.632-.687c.474-.008.782-.014,1.133,0s.878-.073,1.334,1.14,1.547,4.195,1.687,4.5a1.092,1.092,0,0,1,.011,1.047,4.092,4.092,0,0,1-.639.973c-.314.337-.662.754-.942,1.012-.313.286-.64.6-.311,1.207a18.032,18.032,0,0,0,3.191,4.257,16.441,16.441,0,0,0,4.725,3.141c.591.322.943.286,1.31-.1s1.568-1.687,1.992-2.268.821-.469,1.365-.25,3.445,1.774,4.036,2.095.985.485,1.126.739A4.948,4.948,0,0,1,38.4,34.512Z" transform="translate(-2.25 -2.25)" fill="#fff"/>
</svg>
