<svg xmlns="http://www.w3.org/2000/svg" width="84" height="24" viewBox="0 0 84 24"><g id="Сгруппировать_578" data-name="Сгруппировать 578"><path id="Прямоугольник_108" data-name="Прямоугольник 108" fill="none" d="M0 0H84V24H0z"/><g id="Сгруппировать_95" data-name="Сгруппировать 95" fill-rule="evenodd"><path id="Контур_88" data-name="Контур 88" d="M73.99,70A12,12,0,1,0,62,58,12.015,12.015,0,0,0,73.99,70Z" transform="translate(-62 -46)" fill="#19aa1e"/><path id="Контур_89" data-name="Контур 89" d="M90.942,63a6.446,6.446,0,0,1,6.642,6.336,8.767,8.767,0,0,1-.959,3.912c-3.933,0-4.652,2.616-4.82,4.368l-.12,1.224H90.2l-.12-1.224c-.168-1.752-.887-4.368-4.82-4.368a8.767,8.767,0,0,1-.959-3.912A6.446,6.446,0,0,1,90.942,63Z" transform="translate(-78.953 -58.92)" fill="#fff"/><path id="Контур_90" data-name="Контур 90" d="M182.522,63c-3.741,0-6.546,2.28-6.522,6.24h3.477a2.894,2.894,0,0,1,3.045-3.12,2.4,2.4,0,0,1,2.59,2.4c0,1.392-1.1,2.16-2.878,3.024A44.449,44.449,0,0,1,176,74.04V78.6h12.709V75.48H180.7c1.2-.5,2.372-1.052,3.429-1.56,2.806-1.344,4.46-2.856,4.46-5.568C188.589,65.088,186.143,63,182.522,63Zm11.462,3.36h7.194V63.24H190.627V78.6h3.357Zm12.23-3.12h-3.357V78.6h3.333l6.259-9.816V78.6h3.357V63.24h-3.357l-6.235,9.816Zm26.449,9.6h-3.477a4.156,4.156,0,0,1-4.029,2.88,4.8,4.8,0,0,1,.1-9.6A4.017,4.017,0,0,1,229.186,69h3.477c-.5-3.432-3.213-6-7.506-6a7.569,7.569,0,0,0-7.913,7.92,7.569,7.569,0,0,0,7.913,7.92C229.45,78.84,232.159,76.32,232.663,72.84Z" transform="translate(-148.663 -58.92)" fill="#1a1a1a"/></g></g></svg>