<?xml version="1.0" standalone="no"?>
<!DOCTYPE svg PUBLIC "-//W3C//DTD SVG 20010904//EN"
 "http://www.w3.org/TR/2001/REC-SVG-20010904/DTD/svg10.dtd">
<svg version="1.0" xmlns="http://www.w3.org/2000/svg"
 width="220.000000pt" height="220.000000pt" viewBox="0 0 220.000000 220.000000"
 preserveAspectRatio="xMidYMid meet">
<metadata>
Created by potrace 1.14, written by Peter Selinger 2001-2017
</metadata>
<g transform="translate(0.000000,220.000000) scale(0.100000,-0.100000)"
fill="#000000" stroke="none">
<path d="M21 2173 c-21 -26 -21 -31 -21 -1075 l0 -1049 25 -24 24 -25 1051 0
1051 0 24 25 25 24 0 1051 0 1051 -25 25 -24 24 -1055 0 -1055 0 -20 -27z
m2044 -103 c7 0 10 -330 10 -970 l0 -970 -172 0 c-225 -1 -1692 -1 -1740 0
l-38 0 1 967 1 968 34 5 c24 4 1825 4 1904 0z"/>
<path d="M513 1722 c-12 -2 -25 -13 -29 -24 -3 -12 -6 -226 -6 -476 0 -421 1
-457 17 -468 26 -19 242 -14 254 5 5 8 9 150 10 315 0 166 0 326 1 356 l0 55
206 0 c156 0 211 3 225 13 16 11 19 26 19 106 0 72 -4 97 -15 106 -12 10 -94
13 -338 14 -177 1 -332 0 -344 -2z"/>
<path d="M1508 1722 c-33 -4 -29 3 -210 -332 -120 -220 -107 -209 -154 -124
-59 108 -52 104 -169 104 -77 0 -104 -3 -108 -13 -3 -8 17 -53 43 -100 27 -48
72 -130 100 -184 72 -135 102 -181 120 -186 8 -2 39 -3 69 -2 65 3 61 -2 160
185 66 125 88 157 92 133 1 -5 2 -104 3 -222 1 -193 3 -214 20 -226 23 -17
209 -17 232 -1 14 10 15 66 16 475 0 396 -2 465 -14 478 -15 14 -131 23 -200
15z"/>
<path d="M517 632 c-30 -4 -40 -18 -39 -60 0 -79 1 -81 30 -89 47 -11 1192 -7
1204 5 14 14 14 120 0 134 -10 10 -1117 19 -1195 10z"/>
</g>
</svg>
