<svg xmlns="http://www.w3.org/2000/svg" width="140" height="40" viewBox="0 0 140 40"><g id="Сгруппировать_98" data-name="Сгруппировать 98"><path id="Прямоугольник_108" data-name="Прямоугольник 108" fill="none" d="M0 0H140V40H0z"/><g id="Сгруппировать_95" data-name="Сгруппировать 95" fill-rule="evenodd"><path id="Контур_88" data-name="Контур 88" d="M81.983,86A20,20,0,1,0,62,66,20.024,20.024,0,0,0,81.983,86Z" transform="translate(-62 -46)" fill="#19aa1e"/><path id="Контур_89" data-name="Контур 89" d="M95.371,63a10.743,10.743,0,0,1,11.071,10.56,14.613,14.613,0,0,1-1.6,6.52c-6.554,0-7.753,4.36-8.033,7.28l-.2,2.04H94.132l-.2-2.04c-.28-2.92-1.479-7.28-8.033-7.28a14.613,14.613,0,0,1-1.6-6.52A10.743,10.743,0,0,1,95.371,63Z" transform="translate(-75.388 -56.2)" fill="#fff"/><path id="Контур_90" data-name="Контур 90" d="M186.87,63C180.636,63,175.96,66.8,176,73.4h5.8a4.823,4.823,0,0,1,5.076-5.2,4,4,0,0,1,4.316,4c0,2.32-1.838,3.6-4.8,5.04A74.085,74.085,0,0,1,176,81.4V89h21.182V83.8H183.833c2-.836,3.953-1.754,5.715-2.6,4.676-2.24,7.434-4.76,7.434-9.28C196.982,66.48,192.905,63,186.87,63Zm19.1,5.6h11.99V63.4H200.379V89h5.6Zm20.383-5.2h-5.6V89h5.555l10.431-16.36V89h5.6V63.4h-5.6L226.356,79.76Zm44.082,16h-5.795a6.927,6.927,0,0,1-6.714,4.8,8.007,8.007,0,0,1,.16-16,6.7,6.7,0,0,1,6.554,4.8h5.795c-.839-5.72-5.355-10-12.509-10-7.913,0-13.189,5.56-13.189,13.2s5.275,13.2,13.189,13.2C265.083,89.4,269.6,85.2,270.439,79.4Z" transform="translate(-130.439 -56.2)" fill="#1a1a1a"/></g></g></svg>