<svg xmlns="http://www.w3.org/2000/svg" width="64" height="64" viewBox="0 0 64 64"><g id="Сгруппировать_1283" data-name="Сгруппировать 1283" transform="translate(-1012 -2178)"><path id="Прямоугольник_859" data-name="Прямоугольник 859" transform="translate(1012 2178)" fill="none" d="M0 0H64V64H0z"/><g id="Сгруппировать_1270" data-name="Сгруппировать 1270"><g id="handshake" transform="translate(1016 2170.045)"><path id="Контур_320" data-name="Контур 320" d="M51.3,18.587A16.279,16.279,0,0,0,28,19.16a16.279,16.279,0,0,0-23.3-.573,15.775,15.775,0,0,0,.414,22.848,5.549,5.549,0,0,0,3.167,9.5,5.6,5.6,0,0,0,5.6,5.93,5.625,5.625,0,0,0,7.035,4.987,5.665,5.665,0,0,0,9.407,2.479c1.72-1.689,3.088-2.753,3.176-5.311a5.607,5.607,0,0,0,5.345-5.345,5.606,5.606,0,0,0,5.414-5.347,5.6,5.6,0,0,0,5.42-5.694L51.3,41.026a15.744,15.744,0,0,0,0-22.439ZM7.571,44.018,9.1,42.5a2.04,2.04,0,0,1,1.438-.587,2.009,2.009,0,0,1,1.438,3.427l-1.534,1.515a2.021,2.021,0,0,1-2.876-2.84Zm4.278,7.3a1.983,1.983,0,0,1,.6-1.42l1.535-1.516a2.033,2.033,0,0,1,1.437-.587,2.009,2.009,0,0,1,1.438,3.428L15.5,52.561a2.142,2.142,0,0,1-1.618.766A2.03,2.03,0,0,1,11.848,51.319Zm6.191,6.588a2,2,0,0,1,0-2.84l1.354-1.337a2.077,2.077,0,0,1,3.056-.178,1.993,1.993,0,0,1,0,2.84l-1.534,1.515a2.054,2.054,0,0,1-2.876,0Zm11.269,2.406-1.534,1.515a2.052,2.052,0,0,1-2.876,0,2,2,0,0,1,0-2.84l1.534-1.515a2.054,2.054,0,0,1,2.876,0,2,2,0,0,1,0,2.84ZM45.484,44.206a2.061,2.061,0,0,1-2.876,0l-7.99-7.89L32.08,38.824l7.99,7.89a1.993,1.993,0,0,1,0,2.84,2.054,2.054,0,0,1-2.876,0L29.339,41.8l-.135-.134-2.539,2.507.135.134,7.854,7.756a1.993,1.993,0,0,1,0,2.84,2.054,2.054,0,0,1-2.876,0l0,0a5.676,5.676,0,0,0-5.339-1.376,5.64,5.64,0,0,0-5.416-4.1A5.6,5.6,0,0,0,16.15,44.3,5.631,5.631,0,0,0,7.8,39.077a12.287,12.287,0,0,1-.565-17.983,12.663,12.663,0,0,1,18.226.573L21.021,26.05l3.557,3.512a8.218,8.218,0,0,0,10.081,1.114L45.484,41.367a1.993,1.993,0,0,1,0,2.84Zm3.279-5.687-.547.54q-.094-.1-.193-.2L34.8,25.8,33.53,27.055a4.581,4.581,0,0,1-6.414,0L26.1,26.05l5.019-4.956c12.191-11.08,28.864,5.395,17.646,17.425Z" fill="#fc566a"/></g></g></g></svg>