<svg xmlns="http://www.w3.org/2000/svg" width="64" height="64" viewBox="0 0 64 64"><g id="Сгруппировать_1057" data-name="Сгруппировать 1057" transform="translate(-473 -476)"><path id="Прямоугольник_687" data-name="Прямоугольник 687" transform="translate(473 476)" fill="none" d="M0 0H64V64H0z"/><g id="wallet" transform="translate(477 452.012)"><g id="Сгруппировать_1037" data-name="Сгруппировать 1037" transform="translate(0 31.987)"><path id="Контур_242" data-name="Контур 242" d="M54.25,56.49H52.5V47.74a1.751,1.751,0,0,0-1.75-1.75H49V40.74a1.751,1.751,0,0,0-1.75-1.75H41.332l-3.017-6.034a1.75,1.75,0,0,0-2.349-.784l-4.032,2.02-.619-1.236a1.749,1.749,0,0,0-2.349-.78L15.337,38.99H5.25A5.256,5.256,0,0,0,0,44.24v31.5a5.256,5.256,0,0,0,5.25,5.25h45.5a1.751,1.751,0,0,0,1.75-1.75V70.49h1.75A1.751,1.751,0,0,0,56,68.74V58.24A1.751,1.751,0,0,0,54.25,56.49Zm-8.75-14v3.5h-.668l-1.75-3.5Zm-9.534-6.4,4.952,9.9H37.832L33.5,37.32Zm-7,0,4.952,9.9H9.163ZM5.25,42.49H8.337l-4.7,2.348A1.676,1.676,0,0,1,5.25,42.49ZM49,77.49H5.25A1.751,1.751,0,0,1,3.5,75.74V49.154a5.19,5.19,0,0,0,1.75.336H49v7H42a7,7,0,1,0,0,14h7Zm3.5-10.5H42a3.5,3.5,0,0,1,0-7H52.5Z" transform="translate(0 -31.987)" fill="#fc566a" stroke="#fc566a" stroke-width=".3"/></g></g></g></svg>