<svg xmlns="http://www.w3.org/2000/svg" width="64" height="64" viewBox="0 0 64 64"><g id="Сгруппировать_1173" data-name="Сгруппировать 1173" transform="translate(-522 -1657)"><path id="Прямоугольник_762" data-name="Прямоугольник 762" transform="translate(522 1657)" fill="none" d="M0 0H64V64H0z"/><g id="calendar" transform="translate(526 1661)"><g id="Сгруппировать_1157" data-name="Сгруппировать 1157"><g id="Сгруппировать_1156" data-name="Сгруппировать 1156" fill="#fc566a"><ellipse id="Эллипс_14" data-name="Эллипс 14" cx="2.113" cy="2.377" rx="2.113" ry="2.377" transform="translate(40.212 20.604)"/><path id="Контур_301" data-name="Контур 301" d="M47.25,4.375H44.406V2.187a2.188,2.188,0,0,0-4.375,0V4.375H30.078V2.187a2.188,2.188,0,0,0-4.375,0V4.375H15.859V2.187a2.188,2.188,0,0,0-4.375,0V4.375H8.75A8.76,8.76,0,0,0,0,13.125V47.25A8.76,8.76,0,0,0,8.75,56H25.484a2.187,2.187,0,1,0,0-4.375H8.75A4.38,4.38,0,0,1,4.375,47.25V13.125A4.38,4.38,0,0,1,8.75,8.75h2.734v2.187a2.188,2.188,0,0,0,4.375,0V8.75H25.7v2.187a2.188,2.188,0,0,0,4.375,0V8.75h9.953v2.187a2.188,2.188,0,0,0,4.375,0V8.75H47.25a4.38,4.38,0,0,1,4.375,4.375V25.594a2.188,2.188,0,0,0,4.375,0V13.125A8.76,8.76,0,0,0,47.25,4.375Z"/><path id="Контур_302" data-name="Контур 302" d="M283.234,270a13.234,13.234,0,1,0,13.234,13.234A13.249,13.249,0,0,0,283.234,270Zm0,22.094a8.859,8.859,0,1,1,8.859-8.859A8.869,8.869,0,0,1,283.234,292.094Z" transform="translate(-240.469 -240.469)"/><path id="Контур_303" data-name="Контур 303" d="M376.359,334.484h-.984v-2.3a2.188,2.188,0,0,0-4.375,0v4.484a2.187,2.187,0,0,0,2.188,2.188h3.172a2.188,2.188,0,0,0,0-4.375Z" transform="translate(-330.422 -293.906)"/><ellipse id="Эллипс_15" data-name="Эллипс 15" cx="2.113" cy="2.377" rx="2.113" ry="2.377" transform="translate(30.703 20.604)"/><ellipse id="Эллипс_16" data-name="Эллипс 16" cx="2.113" cy="2.377" rx="2.113" ry="2.377" transform="translate(21.193 30.113)"/><ellipse id="Эллипс_17" data-name="Эллипс 17" cx="2.113" cy="2.377" rx="2.113" ry="2.377" transform="translate(11.684 20.604)"/><ellipse id="Эллипс_18" data-name="Эллипс 18" cx="2.113" cy="2.377" rx="2.113" ry="2.377" transform="translate(11.684 30.113)"/><ellipse id="Эллипс_19" data-name="Эллипс 19" cx="2.113" cy="2.377" rx="2.113" ry="2.377" transform="translate(11.684 39.623)"/><ellipse id="Эллипс_20" data-name="Эллипс 20" cx="2.113" cy="2.377" rx="2.113" ry="2.377" transform="translate(21.193 39.623)"/><ellipse id="Эллипс_21" data-name="Эллипс 21" cx="2.113" cy="2.377" rx="2.113" ry="2.377" transform="translate(21.193 20.604)"/></g></g></g></g></svg>