<svg xmlns="http://www.w3.org/2000/svg" width="160" height="65.6" viewBox="0 0 160 65.6"><g id="Сгруппировать_120" data-name="Сгруппировать 120" transform="translate(15185.246 15723.617)"><path id="Объединение_1" data-name="Объединение 1" d="M364.2,454.427a2.234,2.234,0,0,1-2.231-2.232V391.059a2.234,2.234,0,0,1,2.231-2.232H519.735a2.234,2.234,0,0,1,2.231,2.232v61.136a2.234,2.234,0,0,1-2.231,2.232Zm153.992-3.778V392.6h-87.3v58.045Zm-152.447,0h61.369V392.6H365.743Z" transform="translate(-15547.212 -16112.444)" fill="#fff"/><path id="Контур_636" data-name="Контур 636" d="M448.888,413.037a.306.306,0,0,1-.217-.091.289.289,0,0,1-.1-.222v-7.789a.3.3,0,0,1,.1-.223.309.309,0,0,1,.217-.09h5.419a.306.306,0,0,1,.313.313v1.515a.308.308,0,0,1-.312.313H451.16v5.962a.3.3,0,0,1-.09.222.3.3,0,0,1-.222.091Z" transform="translate(-15554.684 -16113.803)" fill="#fff"/><path id="Контур_637" data-name="Контур 637" d="M457.581,413.036a.3.3,0,0,1-.216-.091.29.29,0,0,1-.1-.222v-7.789a.3.3,0,0,1,.1-.223.307.307,0,0,1,.216-.09h3.51a4.847,4.847,0,0,1,1.82.313,2.583,2.583,0,0,1,1.208.95,2.789,2.789,0,0,1,.432,1.6,2.7,2.7,0,0,1-.432,1.58,2.48,2.48,0,0,1-1.208.908,5.2,5.2,0,0,1-1.82.289h-1.142v2.464a.309.309,0,0,1-.312.313Zm2.32-4.712h1.129a.891.891,0,0,0,.595-.211.816.816,0,0,0,.246-.654,1.043,1.043,0,0,0-.192-.62.741.741,0,0,0-.649-.271H459.9Z" transform="translate(-15555.434 -16113.803)" fill="#fff"/><path id="Контур_638" data-name="Контур 638" d="M466.123,413.036a.236.236,0,0,1-.181-.078.266.266,0,0,1-.071-.186.24.24,0,0,1,.012-.084l2.739-7.693a.706.706,0,0,1,.168-.253.459.459,0,0,1,.337-.12h2.2a.475.475,0,0,1,.349.12.581.581,0,0,1,.156.253l2.752,7.693a.29.29,0,0,1,.012.084.267.267,0,0,1-.265.264h-1.85a.411.411,0,0,1-.3-.1.592.592,0,0,1-.132-.18l-.373-1.01h-2.9l-.372,1.01a.669.669,0,0,1-.127.18.405.405,0,0,1-.306.1Zm3.208-3.318h1.791l-.9-2.7Z" transform="translate(-15556.176 -16113.803)" fill="#fff"/><path id="Контур_639" data-name="Контур 639" d="M477.651,413.037a.32.32,0,0,1-.217-.084.286.286,0,0,1-.1-.229v-7.789a.292.292,0,0,1,.1-.223.309.309,0,0,1,.217-.09h1.958a.3.3,0,0,1,.223.09.305.305,0,0,1,.09.223v2.717h2.452v-2.717a.3.3,0,0,1,.1-.223.308.308,0,0,1,.216-.09h1.959a.3.3,0,0,1,.222.09.306.306,0,0,1,.09.223v7.789a.3.3,0,0,1-.09.222.3.3,0,0,1-.222.091h-1.959a.306.306,0,0,1-.217-.091.292.292,0,0,1-.1-.222v-2.789h-2.452v2.789a.308.308,0,0,1-.312.313Z" transform="translate(-15557.165 -16113.803)" fill="#fff"/><path id="Контур_640" data-name="Контур 640" d="M488.291,414.719a.307.307,0,0,1-.312-.313v-3.342a.309.309,0,0,1,.313-.313h.2a.552.552,0,0,0,.474-.282,2.221,2.221,0,0,0,.289-.763,7.894,7.894,0,0,0,.144-1.106q.042-.625.042-1.3v-2.368a.308.308,0,0,1,.313-.313h6.056a.306.306,0,0,1,.313.313v5.818h.553a.308.308,0,0,1,.313.313v3.342a.306.306,0,0,1-.313.313h-1.946a.322.322,0,0,1-.228-.09.291.291,0,0,1-.1-.223v-1.37h-3.846v1.37a.307.307,0,0,1-.312.313Zm3.2-3.967h2.055v-3.846h-1.611v.733a12.626,12.626,0,0,1-.114,1.845,5.245,5.245,0,0,1-.33,1.268Z" transform="translate(-15558.083 -16113.803)" fill="#fff"/><path id="Контур_641" data-name="Контур 641" d="M448.9,428.7a.322.322,0,0,1-.228-.09.294.294,0,0,1-.1-.223V420.6a.294.294,0,0,1,.1-.222.323.323,0,0,1,.228-.09h1.6a.415.415,0,0,1,.325.121c.072.08.12.136.143.168l1.923,3.342,1.923-3.342c.024-.032.072-.089.144-.168a.413.413,0,0,1,.324-.121h1.6a.309.309,0,0,1,.313.313v7.789a.3.3,0,0,1-.09.223.3.3,0,0,1-.222.09h-1.8a.3.3,0,0,1-.222-.09.3.3,0,0,1-.09-.223V424.49l-1.081,1.9a1.136,1.136,0,0,1-.156.193.38.38,0,0,1-.277.1h-.733a.359.359,0,0,1-.265-.1,1.087,1.087,0,0,1-.155-.193l-1.082-1.9v3.895a.3.3,0,0,1-.09.223.3.3,0,0,1-.222.09Z" transform="translate(-15554.684 -16115.148)" fill="#fff"/><path id="Контур_642" data-name="Контур 642" d="M461.014,428.7a.305.305,0,0,1-.217-.09.294.294,0,0,1-.1-.223V420.6a.293.293,0,0,1,.1-.222.31.31,0,0,1,.217-.09H466.9a.323.323,0,0,1,.229.09.294.294,0,0,1,.1.222v1.419a.3.3,0,0,1-.1.217.31.31,0,0,1-.229.1H463.19v1.19h3.448a.323.323,0,0,1,.228.09.292.292,0,0,1,.1.222v1.3a.294.294,0,0,1-.1.223.321.321,0,0,1-.228.09H463.19v1.215H467a.328.328,0,0,1,.324.324v1.406a.3.3,0,0,1-.1.223.323.323,0,0,1-.228.09Z" transform="translate(-15555.729 -16115.148)" fill="#fff"/><path id="Контур_643" data-name="Контур 643" d="M470.666,428.7a.323.323,0,0,1-.228-.09.294.294,0,0,1-.1-.223V420.6a.293.293,0,0,1,.1-.222.324.324,0,0,1,.228-.09h1.6a.414.414,0,0,1,.324.121c.072.08.12.136.144.168l1.922,3.342,1.922-3.342c.024-.032.072-.089.144-.168a.413.413,0,0,1,.324-.121h1.6a.306.306,0,0,1,.223.09.3.3,0,0,1,.09.222v7.789a.306.306,0,0,1-.312.313h-1.8a.306.306,0,0,1-.312-.313V424.49l-1.082,1.9a1.1,1.1,0,0,1-.156.193.379.379,0,0,1-.277.1h-.733a.356.356,0,0,1-.264-.1,1.088,1.088,0,0,1-.156-.193l-1.082-1.9v3.895a.3.3,0,0,1-.09.223.3.3,0,0,1-.223.09Z" transform="translate(-15556.562 -16115.148)" fill="#fff"/><path id="Контур_644" data-name="Контур 644" d="M486.074,428.807a5.084,5.084,0,0,1-2-.361,2.954,2.954,0,0,1-1.334-1.088,3.4,3.4,0,0,1-.523-1.809q-.012-.5-.012-1.04c0-.356,0-.711.012-1.064a3.405,3.405,0,0,1,.523-1.8,3.052,3.052,0,0,1,1.34-1.111,5.415,5.415,0,0,1,3.977,0,3.1,3.1,0,0,1,1.346,1.111,3.3,3.3,0,0,1,.517,1.8q.023.529.024,1.064t-.024,1.04a3.4,3.4,0,0,1-.523,1.809,2.954,2.954,0,0,1-1.334,1.088A5.055,5.055,0,0,1,486.074,428.807Zm0-2.044a1.159,1.159,0,0,0,.829-.306,1.33,1.33,0,0,0,.337-.98q.023-.517.024-1t-.024-.992a1.681,1.681,0,0,0-.163-.734.946.946,0,0,0-.408-.42,1.3,1.3,0,0,0-.595-.133,1.33,1.33,0,0,0-.6.133.94.94,0,0,0-.414.42,1.681,1.681,0,0,0-.163.734q-.012.5-.012.992t.012,1a1.382,1.382,0,0,0,.343.98A1.156,1.156,0,0,0,486.074,426.763Z" transform="translate(-15557.585 -16115.138)" fill="#fff"/><path id="Контур_645" data-name="Контур 645" d="M493.393,428.7a.3.3,0,0,1-.216-.09.3.3,0,0,1-.1-.223V420.6a.294.294,0,0,1,.1-.222.308.308,0,0,1,.216-.09h3.51a4.849,4.849,0,0,1,1.82.313,2.584,2.584,0,0,1,1.208.95,2.782,2.782,0,0,1,.432,1.6,2.7,2.7,0,0,1-.432,1.581,2.491,2.491,0,0,1-1.208.908,5.217,5.217,0,0,1-1.82.288h-1.142v2.464a.3.3,0,0,1-.09.223.3.3,0,0,1-.223.09Zm2.32-4.712h1.129a.884.884,0,0,0,.595-.21.816.816,0,0,0,.246-.655,1.041,1.041,0,0,0-.192-.619.739.739,0,0,0-.649-.271h-1.129Z" transform="translate(-15558.523 -16115.148)" fill="#fff"/><path id="Контур_646" data-name="Контур 646" d="M503.271,428.7a.3.3,0,0,1-.216-.09.3.3,0,0,1-.1-.223V420.6a.294.294,0,0,1,.1-.222.321.321,0,0,1,.228-.091h1.946a.309.309,0,0,1,.313.313v4.244l2.969-4.3a.649.649,0,0,1,.18-.18.465.465,0,0,1,.264-.072H510.7a.3.3,0,0,1,.222.091.3.3,0,0,1,.09.222v7.789a.307.307,0,0,1-.312.313h-1.959a.3.3,0,0,1-.222-.09.3.3,0,0,1-.09-.223v-4.026l-2.968,4.087a.71.71,0,0,1-.156.175.446.446,0,0,1-.289.078Z" transform="translate(-15559.375 -16115.148)" fill="#fff"/><path id="Контур_647" data-name="Контур 647" d="M513.956,428.7a.233.233,0,0,1-.181-.078.266.266,0,0,1-.072-.186.294.294,0,0,1,.012-.084l2.74-7.693a.683.683,0,0,1,.168-.252.455.455,0,0,1,.336-.121h2.2a.472.472,0,0,1,.349.121.572.572,0,0,1,.156.252l2.751,7.693a.26.26,0,0,1,.012.084.265.265,0,0,1-.264.264h-1.85a.411.411,0,0,1-.3-.1.614.614,0,0,1-.132-.18l-.372-1.01h-2.9l-.373,1.01a.636.636,0,0,1-.126.18.4.4,0,0,1-.306.1Zm3.208-3.317h1.791l-.9-2.706Z" transform="translate(-15560.303 -16115.148)" fill="#fff"/><path id="Контур_648" data-name="Контур 648" d="M448.888,444.359a.311.311,0,0,1-.217-.09.29.29,0,0,1-.1-.222v-7.79a.293.293,0,0,1,.1-.222.31.31,0,0,1,.217-.091H452.4a4.855,4.855,0,0,1,1.821.313,2.594,2.594,0,0,1,1.208.95,2.79,2.79,0,0,1,.432,1.6,2.7,2.7,0,0,1-.432,1.58,2.484,2.484,0,0,1-1.208.908,5.226,5.226,0,0,1-1.821.289h-1.141v2.464a.309.309,0,0,1-.312.313Zm2.319-4.713h1.129a.884.884,0,0,0,.595-.21.814.814,0,0,0,.247-.655,1.043,1.043,0,0,0-.192-.619.743.743,0,0,0-.65-.271h-1.129Z" transform="translate(-15554.684 -16116.495)" fill="#fff"/><path id="Контур_649" data-name="Контур 649" d="M459.029,444.359a.311.311,0,0,1-.217-.09.293.293,0,0,1-.1-.222v-7.79a.293.293,0,0,1,.1-.222.327.327,0,0,1,.228-.09h1.947a.309.309,0,0,1,.313.313V440.5l2.968-4.3a.634.634,0,0,1,.181-.181.472.472,0,0,1,.264-.072h1.742a.309.309,0,0,1,.313.313v7.79a.309.309,0,0,1-.312.313H464.5a.309.309,0,0,1-.312-.313V440.02l-2.968,4.087a.715.715,0,0,1-.156.175.453.453,0,0,1-.289.079Z" transform="translate(-15555.559 -16116.495)" fill="#fff"/><path id="Контур_650" data-name="Контур 650" d="M471.811,444.359a.309.309,0,0,1-.312-.313v-5.866h-2.067a.309.309,0,0,1-.312-.313v-1.611a.309.309,0,0,1,.313-.313h6.753a.308.308,0,0,1,.313.313v1.611a.308.308,0,0,1-.312.313h-2.067v5.866a.308.308,0,0,1-.312.313Z" transform="translate(-15556.456 -16116.495)" fill="#fff"/><path id="Контур_651" data-name="Контур 651" d="M481.976,442.148l-3.1-5.831a.217.217,0,0,1-.025-.1.255.255,0,0,1,.09-.192.3.3,0,0,1,.21-.084h2.091a.32.32,0,0,1,.217.071.612.612,0,0,1,.144.193l1.682,3.438Zm-1.539,2.212a.309.309,0,0,1-.312-.313v-1.6a.3.3,0,0,1,.09-.223.3.3,0,0,1,.222-.09h.481a1.145,1.145,0,0,0,.493-.1,1.052,1.052,0,0,0,.366-.294,2.355,2.355,0,0,0,.306-.511l2.187-5.024a.463.463,0,0,1,.156-.2.4.4,0,0,1,.228-.067h1.97a.273.273,0,0,1,.2.079.242.242,0,0,1,.078.175.4.4,0,0,1-.024.126c-.016.044-.032.086-.048.126l-2.356,5.458a8.992,8.992,0,0,1-.595,1.172,2.871,2.871,0,0,1-.654.758,2.212,2.212,0,0,1-.86.4,5.276,5.276,0,0,1-1.22.121Z" transform="translate(-15557.296 -16116.495)" fill="#fff"/><path id="Контур_652" data-name="Контур 652" d="M487.955,444.359a.237.237,0,0,1-.181-.079.265.265,0,0,1-.072-.186.29.29,0,0,1,.012-.084l2.74-7.693a.69.69,0,0,1,.168-.252.459.459,0,0,1,.336-.121h2.2a.472.472,0,0,1,.349.121.582.582,0,0,1,.156.252l2.751,7.693a.263.263,0,0,1,.013.084.259.259,0,0,1-.078.186.252.252,0,0,1-.186.079h-1.85a.411.411,0,0,1-.3-.1.616.616,0,0,1-.132-.181l-.372-1.01h-2.9l-.373,1.01a.65.65,0,0,1-.126.181.407.407,0,0,1-.306.1Zm3.208-3.318h1.791l-.9-2.7Z" transform="translate(-15558.06 -16116.495)" fill="#fff"/><path id="Контур_653" data-name="Контур 653" d="M505.371,444.359a.3.3,0,0,1-.223-.091.3.3,0,0,1-.09-.222v-5.819h-1.911v.734a19.775,19.775,0,0,1-.132,2.476,4.559,4.559,0,0,1-.5,1.664,2.185,2.185,0,0,1-1.064.944,4.81,4.81,0,0,1-1.827.313.309.309,0,0,1-.228-.1.3.3,0,0,1-.1-.216V442.46q0-.265.313-.313a.806.806,0,0,0,.528-.355,2.279,2.279,0,0,0,.319-.763,6.539,6.539,0,0,0,.156-1.089q.042-.618.042-1.316v-2.368a.309.309,0,0,1,.313-.313h6.357a.3.3,0,0,1,.222.091.3.3,0,0,1,.09.222v7.79a.3.3,0,0,1-.09.222.3.3,0,0,1-.222.091Z" transform="translate(-15559.06 -16116.495)" fill="#fff"/><g id="Сгруппировать_989" data-name="Сгруппировать 989" transform="translate(-15170.933 -15676.88)"><rect id="Прямоугольник_360" data-name="Прямоугольник 360" width="37.066" height="4.635" rx="2.318" fill="#fff"/></g><g id="Сгруппировать_869" data-name="Сгруппировать 869" transform="translate(-15170.94 -15709.337)"><g id="Сгруппировать_867" data-name="Сгруппировать 867" transform="translate(0 .011)"><path id="Контур_673" data-name="Контур 673" d="M378.781,433.643a1.086,1.086,0,0,1-.834-.349,1.156,1.156,0,0,1-.324-.813V405.626a1.113,1.113,0,0,1,1.159-1.163h19.446a1.131,1.131,0,0,1,.835.325,1.143,1.143,0,0,1,.324.837v4.651a1.217,1.217,0,0,1-.324.86,1.09,1.09,0,0,1-.835.349H386.371a.405.405,0,0,0-.4.406V432.48a1.115,1.115,0,0,1-.348.813,1.16,1.16,0,0,1-.857.349Z" transform="translate(-377.622 -404.463)" fill="#fff"/></g><g id="Сгруппировать_868" data-name="Сгруппировать 868" transform="translate(11.458)"><path id="Контур_674" data-name="Контур 674" d="M396.337,414.918a.807.807,0,0,1,.705.415l1.584,2.838.847,1.518a.4.4,0,0,0,.707,0l7.808-14.212a4.823,4.823,0,0,1,.487-.628,1.447,1.447,0,0,1,1.136-.395h4.961a1.211,1.211,0,0,1,.858.325,1.1,1.1,0,0,1,.347.837v26.855a1.117,1.117,0,0,1-.347.813,1.167,1.167,0,0,1-.858.349h-5.517a1.16,1.16,0,0,1-.857-.349,1.119,1.119,0,0,1-.348-.813V420.048a.4.4,0,0,0-.762-.188l-4.43,8.465a2.8,2.8,0,0,1-.6.744,1.491,1.491,0,0,1-1.02.325h-2.411a1.488,1.488,0,0,1-1.02-.325,2.754,2.754,0,0,1-.6-.744l-5.238-9.72-.269-.442-1.215-2.013a.812.812,0,0,1,.692-1.232Z" transform="translate(-390.161 -404.451)" fill="#fff"/></g></g></g></svg>