<svg xmlns="http://www.w3.org/2000/svg" style="border: 0 !important; clip: rect(0 0 0 0) !important; height: 1px !important; margin: -1px !important; overflow: hidden !important; padding: 0 !important; position: absolute !important; width: 1px !important;" class="root-svg-symbols-element">
    <symbol id="address" viewBox="0 0 24 24">
      <path d="M0,0H24V24H0Z" fill="none"/><path d="M12,2a7.955,7.955,0,0,0-8,8.2Q4,15.18,12,22q7.995-6.825,8-11.8A7.955,7.955,0,0,0,12,2Zm0,10a2,2,0,1,1,2-2A2.006,2.006,0,0,1,12,12Z"/>
    </symbol>
    <symbol id="arrow-drop" viewBox="0 0 32 32">
      <path d="M0,0H32V32H0Z" fill="none"/><path d="M7,10l6.667,6.667L20.333,10Z" transform="translate(2.333 3.333)"/>
    </symbol>
    <symbol id="arrow-right" viewBox="0 0 24 24">
      <path d="M24,0H0V24H24Z" fill="none"/><path d="M4,11H16.17L10.58,5.41,12,4l8,8-8,8-1.41-1.41L16.17,13H4Z"/>
    </symbol>
    <symbol id="arrow" viewBox="0 0 32 14">
      <path d="M20.629,11.52a.987.987,0,0,0-.007,1.342l4.224,4.44H-3.229a.923.923,0,0,0-.9.948.923.923,0,0,0,.9.948H24.839l-4.224,4.44a.994.994,0,0,0,.007,1.342.87.87,0,0,0,1.271-.007l5.724-6.052h0a1.07,1.07,0,0,0,.188-.3.944.944,0,0,0,.069-.365.975.975,0,0,0-.257-.663l-5.724-6.052A.856.856,0,0,0,20.629,11.52Z" transform="translate(4.125 -11.252)"/>
    </symbol>
    <symbol id="basket" viewBox="0 0 20 20">
      <path d="M0,0H20V20H0Z" fill="none"/><path d="M6,15.333A1.667,1.667,0,1,0,7.667,17,1.664,1.664,0,0,0,6,15.333ZM1,2.833a.836.836,0,0,0,.833.833h.833l3,6.325L4.542,12.025A1.67,1.67,0,0,0,6,14.5h9.167a.833.833,0,0,0,0-1.667H6l.917-1.667h6.208a1.659,1.659,0,0,0,1.458-.858L17.567,4.9a.83.83,0,0,0-.725-1.233H4.508L3.95,2.475A.827.827,0,0,0,3.2,2H1.833A.836.836,0,0,0,1,2.833Zm13.333,12.5A1.667,1.667,0,1,0,16,17,1.664,1.664,0,0,0,14.333,15.333Z" transform="translate(-.167 -.333)"/>
    </symbol>
    <symbol id="call-made" viewBox="0 0 80 80">
      <path d="M0,0H80V80H0Z" fill="none"/><path d="M20.667,5v6.667H42.633L4,50.3,8.7,55,47.333,16.367V38.333H54V5Z" transform="translate(9.333 11.667)"/>
    </symbol>
    <symbol id="close-modal" viewBox="0 0 48 48">
      <path d="M0,0H48V48H0Z" fill="none"/><path d="M33,7.82,30.18,5,19,16.18,7.82,5,5,7.82,16.18,19,5,30.18,7.82,33,19,21.82,30.18,33,33,30.18,21.82,19Z" transform="translate(5 5)"/>
    </symbol>
    <symbol id="delete" viewBox="0 0 32 32">
      <path d="M0,0H32V32H0Z" fill="none"/><path d="M19.667,11V24.333H9V11H19.667m-2-8H11L9.667,4.333H5V7H23.667V4.333H19Zm4.667,5.333h-16v16A2.675,2.675,0,0,0,9,27H19.667a2.675,2.675,0,0,0,2.667-2.667Z" transform="translate(1.667 1)"/>
    </symbol>
    <symbol id="doc" viewBox="0 0 24 24">
      <path d="M0,0H24V24H0Z" fill="none"/><path d="M6,2A2,2,0,0,0,4.01,4L4,20a2,2,0,0,0,1.99,2H18a2.006,2.006,0,0,0,2-2V8L14,2Zm7,7V3.5L18.5,9Z"/>
    </symbol>
    <symbol id="email" viewBox="0 0 23.333 18.667">
      <path d="M23,4H4.333A2.33,2.33,0,0,0,2.012,6.333L2,20.333a2.34,2.34,0,0,0,2.333,2.333H23a2.34,2.34,0,0,0,2.333-2.333v-14A2.34,2.34,0,0,0,23,4Zm0,4.667L13.667,14.5,4.333,8.667V6.333l9.333,5.833L23,6.333Z" transform="translate(-2 -4)"/>
    </symbol>
    <symbol id="eyeglasses" viewBox="0 0 24 9.83">
      <path d="M23.3,152.5H21.635a4.907,4.907,0,0,0-7.194.472,3.945,3.945,0,0,0-4.882,0,4.907,4.907,0,0,0-7.194-.472H.7a.7.7,0,1,0,0,1.406H1.33a4.915,4.915,0,1,0,8.959.291,2.534,2.534,0,0,1,3.422,0,4.915,4.915,0,1,0,8.959-.291H23.3a.7.7,0,0,0,0-1.406ZM5.743,159.571a3.509,3.509,0,1,1,3.509-3.509A3.513,3.513,0,0,1,5.743,159.571Zm12.513,0a3.509,3.509,0,1,1,3.509-3.509A3.513,3.513,0,0,1,18.257,159.571Z" transform="translate(0 -151.147)"/>
    </symbol>
    <symbol id="fb" viewBox="0 0 13 24">
      <path d="M13.758,13.5l.674-4.343H10.217V6.338a2.184,2.184,0,0,1,2.477-2.347h1.916V.293A23.625,23.625,0,0,0,11.208,0c-3.471,0-5.74,2.08-5.74,5.846v3.31H1.609V13.5H5.468V24h4.749V13.5Z" transform="translate(-1.609)"/>
    </symbol>
    <symbol id="file-close" viewBox="0 0 24 24">
      <path d="M0,0H24V24H0Z" fill="none"/><path d="M19.4,6.45,17.95,5,12.2,10.75,6.45,5,5,6.45l5.75,5.75L5,17.95,6.45,19.4l5.75-5.75,5.75,5.75,1.45-1.45L13.65,12.2Z" transform="translate(-.2 -.2)"/>
    </symbol>
    <symbol id="file" viewBox="0 0 16 18.286">
      <path id="Icon_metro-attachment" data-name="Icon metro-attachment" d="M14.853,7.768l-1.16-1.159-5.8,5.8a2.46,2.46,0,0,0,3.48,3.479l6.96-6.959a4.1,4.1,0,0,0-5.8-5.8L5.226,10.436l-.016.015A5.719,5.719,0,0,0,13.3,18.539l.015-.016h0L18.3,13.536l-1.16-1.159-4.988,4.987-.015.015A4.079,4.079,0,0,1,6.37,11.612l.016-.015h0l7.309-7.307a2.461,2.461,0,0,1,3.48,3.479l-6.96,6.959a.82.82,0,0,1-1.16-1.159l5.8-5.8Z" transform="translate(-3.535 -1.928)"/>
    </symbol>
    <symbol id="filter" viewBox="0 0 24 24">
      <path d="M0,0H24m0,24H0" fill="none"/><path d="M7,6H17l-5.01,6.3ZM4.25,5.61C6.27,8.2,10,13,10,13v6a1,1,0,0,0,1,1h2a1,1,0,0,0,1-1V13s3.72-4.8,5.74-7.39A1,1,0,0,0,18.95,4H5.04A1,1,0,0,0,4.25,5.61Z"/><path d="M0,0H24V24H0Z" fill="none"/>
    </symbol>
    <symbol id="info" viewBox="0 0 16 16">
      <path d="M0,0H16V16H0Z" fill="none"/><path d="M8.667,2a6.667,6.667,0,1,0,6.667,6.667A6.669,6.669,0,0,0,8.667,2Zm.667,10H8V8H9.333Zm0-5.333H8V5.333H9.333Z" transform="translate(-.667 -.667)"/>
    </symbol>
    <symbol id="instagram" viewBox="0 0 24 24">
      <path d="M12,8.084a6.153,6.153,0,1,0,6.152,6.153A6.143,6.143,0,0,0,12,8.084Zm0,10.154a4,4,0,1,1,4-4,4.007,4.007,0,0,1-4,4ZM19.836,7.833A1.435,1.435,0,1,1,18.4,6.4,1.432,1.432,0,0,1,19.836,7.833ZM23.91,9.289a7.1,7.1,0,0,0-1.938-5.029,7.147,7.147,0,0,0-5.028-1.939c-1.981-.112-7.919-.112-9.9,0A7.137,7.137,0,0,0,2.017,4.255,7.127,7.127,0,0,0,.079,9.284c-.112,1.981-.112,7.921,0,9.9a7.1,7.1,0,0,0,1.938,5.029,7.156,7.156,0,0,0,5.028,1.939c1.981.112,7.919.112,9.9,0a7.1,7.1,0,0,0,5.028-1.939,7.15,7.15,0,0,0,1.938-5.029c.112-1.981.112-7.915,0-9.9ZM21.351,21.312a4.05,4.05,0,0,1-2.281,2.281c-1.579.627-5.327.482-7.073.482s-5.5.139-7.073-.482a4.05,4.05,0,0,1-2.281-2.281c-.626-1.58-.482-5.329-.482-7.074s-.139-5.5.482-7.074A4.05,4.05,0,0,1,4.925,4.882C6.5,4.255,10.252,4.4,12,4.4s5.5-.139,7.073.482a4.05,4.05,0,0,1,2.281,2.281c.626,1.58.482,5.329.482,7.074S21.978,19.738,21.351,21.312Z" transform="translate(.005 -2.237)"/>
    </symbol>
    <symbol id="odnoklassniki" viewBox="0 0 15 24">
      <path d="M13.53,15.651a11.048,11.048,0,0,1-4.383,1.261l1.018.965,3.716,3.575c1.359,1.34-.852,3.435-2.226,2.142-.93-.909-2.294-2.221-3.716-3.59L4.222,23.59c-1.373,1.289-3.585-.825-2.211-2.142.945-.909,2.294-2.221,3.716-3.575l1-.965a11,11,0,0,1-4.413-1.261C.73,14.663.033,14.086.647,12.882c.36-.684,1.349-1.261,2.659-.267a8.1,8.1,0,0,0,4.622,1.354,8.1,8.1,0,0,0,4.622-1.354c1.31-.989,2.294-.417,2.659.267.6,1.2-.093,1.781-1.68,2.769ZM1.607,6.078A6.206,6.206,0,0,1,7.924,0a6.206,6.206,0,0,1,6.317,6.078,6.2,6.2,0,0,1-6.317,6.064A6.2,6.2,0,0,1,1.607,6.078Zm3.215,0a3.05,3.05,0,0,0,3.1,2.985,3.05,3.05,0,0,0,3.1-2.985,3.053,3.053,0,0,0-3.1-3A3.053,3.053,0,0,0,4.821,6.078Z" transform="translate(-.426)"/>
    </symbol>
    <symbol id="parking" viewBox="0 0 24 24">
      <path d="M0,0H24V24H0Z" fill="none"/><path d="M13,3H6V21h4V15h3A6,6,0,0,0,13,3Zm.2,8H10V7h3.2a2,2,0,0,1,0,4Z"/>
    </symbol>
    <symbol id="phone" viewBox="0 0 14 14">
      <path d="M0,0H14V14H0Z" fill="none"/><path d="M12.478,10.156,11,9.987a1.161,1.161,0,0,0-.957.333L8.967,11.393A8.776,8.776,0,0,1,5.123,7.548L6.2,6.469a1.161,1.161,0,0,0,.333-.957l-.169-1.47A1.167,1.167,0,0,0,5.2,3.01H4.2A1.158,1.158,0,0,0,3.028,4.217,9.912,9.912,0,0,0,12.3,13.487a1.158,1.158,0,0,0,1.207-1.167V11.311A1.156,1.156,0,0,0,12.478,10.156Z" transform="translate(-1.261 -1.254)"/>
    </symbol>
    <symbol id="search" viewBox="0 0 20 20">
      <path d="M17.664,15.9h-.927l-.328-.317a7.648,7.648,0,1,0-.821.821l.317.328v.926l4.986,4.983a1.236,1.236,0,1,0,1.748-1.747Zm-7.039,0A5.276,5.276,0,1,1,15.9,10.621,5.271,5.271,0,0,1,10.626,15.9Z" transform="translate(-2.999 -2.999)"/>
    </symbol>
    <symbol id="share" viewBox="0 0 24 24">
      <path d="M0,0H24V24H0Z" fill="none"/><path d="M18,16.08a2.912,2.912,0,0,0-1.96.77L8.91,12.7A3.274,3.274,0,0,0,9,12a3.274,3.274,0,0,0-.09-.7l7.05-4.11A2.993,2.993,0,1,0,15,5a3.274,3.274,0,0,0,.09.7L8.04,9.81a3,3,0,1,0,0,4.38l7.12,4.16a2.821,2.821,0,0,0-.08.65A2.92,2.92,0,1,0,18,16.08Z"/>
    </symbol>
    <symbol id="site-selection" viewBox="0 0 18 18">
      <path d="M18,0H0V18H18Z" fill="none" transform="rotate(-90 9 9)"/><path d="M14.148,13.943,10.713,10.5l3.435-3.443L13.09,6l-4.5,4.5,4.5,4.5Z" transform="rotate(-90 9.545 11.045)"/>
    </symbol>
    <symbol id="slider-next" viewBox="0 0 32 32">
      <path d="M32,0H0V32H32Z" fill="none"/><path d="M4,13.333H20.227L12.773,5.88,14.667,4,25.333,14.667,14.667,25.333l-1.88-1.88L20.227,16H4Z" transform="translate(1.333 1.333)"/>
    </symbol>
    <symbol id="slider-prev" viewBox="0 0 32 32">
      <path d="M0,0H32V32H0Z" fill="none"/><path d="M25.333,13.333H9.107L16.56,5.88,14.667,4,4,14.667,14.667,25.333l1.88-1.88L9.107,16H25.333Z" transform="translate(1.333 1.333)"/>
    </symbol>
    <symbol id="star" viewBox="0 0 28 28">
      <path d="M0,0H28V28H0Z" fill="none"/><path d="M0,0H28V28H0Z" fill="none"/><path d="M13.667,19.815l7.21,4.352-1.913-8.2,6.37-5.518-8.388-.712L13.667,2,10.388,9.735,2,10.447l6.37,5.518-1.913,8.2Z" transform="translate(.333 .333)"/>
    </symbol>
    <symbol id="theme-dark" viewBox="0 0 28.284 28.284">
      <path d="M0,0H20V20H0Z" fill="none" transform="rotate(-45 17.07 7.071)"/><path d="M12.333,3.667a5.638,5.638,0,0,1,.842.058,9.959,9.959,0,0,0,0,13.217,5.638,5.638,0,0,1-.842.058,6.667,6.667,0,0,1,0-13.333m0-1.667A8.333,8.333,0,1,0,16.5,17.542a8.319,8.319,0,0,1,0-14.417A8.311,8.311,0,0,0,12.333,2Z" transform="rotate(-45 17.002 8.043)"/>
    </symbol>
    <symbol id="theme-light" viewBox="0 0 20 20">
      <path fill="none" d="M0 0H20V20H0z"/><path d="M10.167,7.667a2.5,2.5,0,1,1-2.5,2.5,2.507,2.507,0,0,1,2.5-2.5m0-1.667a4.167,4.167,0,1,0,4.167,4.167A4.168,4.168,0,0,0,10.167,6ZM1.833,11H3.5a.833.833,0,0,0,0-1.667H1.833a.833.833,0,0,0,0,1.667Zm15,0H18.5a.833.833,0,1,0,0-1.667H16.833a.833.833,0,0,0,0,1.667Zm-7.5-9.167V3.5A.833.833,0,0,0,11,3.5V1.833a.833.833,0,0,0-1.667,0Zm0,15V18.5A.833.833,0,1,0,11,18.5V16.833a.833.833,0,0,0-1.667,0ZM5.158,3.983A.831.831,0,0,0,3.983,5.158l.883.883A.831.831,0,0,0,6.042,4.867ZM15.467,14.292a.831.831,0,0,0-1.175,1.175l.883.883a.831.831,0,0,0,1.175-1.175Zm.883-9.133a.831.831,0,0,0-1.175-1.175l-.883.883a.831.831,0,0,0,1.175,1.175ZM6.042,15.467a.831.831,0,1,0-1.175-1.175l-.883.883A.831.831,0,1,0,5.158,16.35Z" transform="translate(-.167 -.167)"/>
    </symbol>
    <symbol id="time" viewBox="0 0 24 24">
      <path d="M0,0H24V24H0Z" fill="none"/><path d="M11.99,2A10,10,0,1,0,22,12,10,10,0,0,0,11.99,2Zm3.3,14.71L11,12.41V7h2v4.59l3.71,3.71Z"/>
    </symbol>
    <symbol id="twitter" viewBox="0 0 24 19">
      <path d="M21.533,8.116c.015.208.015.416.015.623A13.715,13.715,0,0,1,7.553,22.381,14.163,14.163,0,0,1,0,20.228a10.437,10.437,0,0,0,1.188.059,10.014,10.014,0,0,0,6.107-2.048,4.914,4.914,0,0,1-4.6-3.325,6.36,6.36,0,0,0,.929.074,5.329,5.329,0,0,0,1.294-.163A4.828,4.828,0,0,1,.975,10.12V10.06a5.051,5.051,0,0,0,2.223.609A4.761,4.761,0,0,1,1.005,6.676a4.667,4.667,0,0,1,.67-2.42A14.1,14.1,0,0,0,11.817,9.274a5.281,5.281,0,0,1-.122-1.1,4.856,4.856,0,0,1,4.919-4.795,4.967,4.967,0,0,1,3.594,1.514A9.838,9.838,0,0,0,23.33,3.737a4.806,4.806,0,0,1-2.162,2.642A10.063,10.063,0,0,0,24,5.637a10.432,10.432,0,0,1-2.467,2.479Z" transform="translate(0 -3.381)"/>
    </symbol>
    <symbol id="vk" viewBox="0 0 28 16">
      <path d="M28.67,7.835c.192-.625,0-1.085-.925-1.085H24.683a1.314,1.314,0,0,0-1.331.835,24.468,24.468,0,0,1-3.763,6.025c-.712.685-1.04.9-1.429.9-.192,0-.489-.22-.489-.845V7.835c0-.75-.218-1.085-.863-1.085H11.995a.727.727,0,0,0-.78.675c0,.71,1.1.875,1.216,2.875v4.34c0,.95-.177,1.125-.567,1.125-1.04,0-3.566-3.67-5.063-7.87C6.5,7.08,6.2,6.75,5.419,6.75H2.358c-.873,0-1.05.395-1.05.835,0,.78,1.04,4.655,4.839,9.775,2.531,3.495,6.1,5.39,9.341,5.39,1.949,0,2.188-.42,2.188-1.145,0-3.34-.177-3.655.8-3.655.452,0,1.232.22,3.051,1.9,2.079,2,2.422,2.9,3.587,2.9h3.062c.873,0,1.315-.42,1.06-1.25-.582-1.745-4.517-5.335-4.694-5.575-.452-.56-.322-.81,0-1.31.005,0,3.743-5.065,4.127-6.78Z" transform="translate(-1.308 -6.75)"/>
    </symbol></svg>