<svg xmlns="http://www.w3.org/2000/svg" style="border: 0 !important; clip: rect(0 0 0 0) !important; height: 1px !important; margin: -1px !important; overflow: hidden !important; padding: 0 !important; position: absolute !important; width: 1px !important;" class="root-svg-symbols-element">
  <defs>
      <clipPath id="clip0_921_35329"><path fill="#fff" d="M0 0H100V100H0z"/></clipPath>
<clipPath id="clip0_921_35260"><path fill="#fff" d="M0 0H100V100H0z"/></clipPath>
  </defs>
    <symbol id="address" viewBox="0 0 24 24">
      <path d="M0,0H24V24H0Z" fill="none"/><path d="M12,2a7.955,7.955,0,0,0-8,8.2Q4,15.18,12,22q7.995-6.825,8-11.8A7.955,7.955,0,0,0,12,2Zm0,10a2,2,0,1,1,2-2A2.006,2.006,0,0,1,12,12Z"/>
    </symbol>
    <symbol id="arrow-drop" viewBox="0 0 32 32">
      <path d="M0,0H32V32H0Z" fill="none"/><path d="M7,10l6.667,6.667L20.333,10Z" transform="translate(2.333 3.333)"/>
    </symbol>
    <symbol id="arrow-right" viewBox="0 0 24 24">
      <path d="M24,0H0V24H24Z" fill="none"/><path d="M4,11H16.17L10.58,5.41,12,4l8,8-8,8-1.41-1.41L16.17,13H4Z"/>
    </symbol>
    <symbol id="arrow" viewBox="0 0 32 14">
      <path d="M20.629,11.52a.987.987,0,0,0-.007,1.342l4.224,4.44H-3.229a.923.923,0,0,0-.9.948.923.923,0,0,0,.9.948H24.839l-4.224,4.44a.994.994,0,0,0,.007,1.342.87.87,0,0,0,1.271-.007l5.724-6.052h0a1.07,1.07,0,0,0,.188-.3.944.944,0,0,0,.069-.365.975.975,0,0,0-.257-.663l-5.724-6.052A.856.856,0,0,0,20.629,11.52Z" transform="translate(4.125 -11.252)"/>
    </symbol>
    <symbol id="basket" viewBox="0 0 20 20">
      <path d="M0,0H20V20H0Z" fill="none"/><path d="M6,15.333A1.667,1.667,0,1,0,7.667,17,1.664,1.664,0,0,0,6,15.333ZM1,2.833a.836.836,0,0,0,.833.833h.833l3,6.325L4.542,12.025A1.67,1.67,0,0,0,6,14.5h9.167a.833.833,0,0,0,0-1.667H6l.917-1.667h6.208a1.659,1.659,0,0,0,1.458-.858L17.567,4.9a.83.83,0,0,0-.725-1.233H4.508L3.95,2.475A.827.827,0,0,0,3.2,2H1.833A.836.836,0,0,0,1,2.833Zm13.333,12.5A1.667,1.667,0,1,0,16,17,1.664,1.664,0,0,0,14.333,15.333Z" transform="translate(-.167 -.333)"/>
    </symbol>
    <symbol id="call-made" viewBox="0 0 80 80">
      <path d="M0,0H80V80H0Z" fill="none"/><path d="M20.667,5v6.667H42.633L4,50.3,8.7,55,47.333,16.367V38.333H54V5Z" transform="translate(9.333 11.667)"/>
    </symbol>
    <symbol id="close-modal" viewBox="0 0 48 48">
      <path d="M0,0H48V48H0Z" fill="none"/><path d="M33,7.82,30.18,5,19,16.18,7.82,5,5,7.82,16.18,19,5,30.18,7.82,33,19,21.82,30.18,33,33,30.18,21.82,19Z" transform="translate(5 5)"/>
    </symbol>
    <symbol id="delete" viewBox="0 0 32 32">
      <path d="M0,0H32V32H0Z" fill="none"/><path d="M19.667,11V24.333H9V11H19.667m-2-8H11L9.667,4.333H5V7H23.667V4.333H19Zm4.667,5.333h-16v16A2.675,2.675,0,0,0,9,27H19.667a2.675,2.675,0,0,0,2.667-2.667Z" transform="translate(1.667 1)"/>
    </symbol>
    <symbol id="doc" viewBox="0 0 24 24">
      <path d="M0,0H24V24H0Z" fill="none"/><path d="M6,2A2,2,0,0,0,4.01,4L4,20a2,2,0,0,0,1.99,2H18a2.006,2.006,0,0,0,2-2V8L14,2Zm7,7V3.5L18.5,9Z"/>
    </symbol>
    <symbol id="email" viewBox="0 0 23.333 18.667">
      <path d="M23,4H4.333A2.33,2.33,0,0,0,2.012,6.333L2,20.333a2.34,2.34,0,0,0,2.333,2.333H23a2.34,2.34,0,0,0,2.333-2.333v-14A2.34,2.34,0,0,0,23,4Zm0,4.667L13.667,14.5,4.333,8.667V6.333l9.333,5.833L23,6.333Z" transform="translate(-2 -4)"/>
    </symbol>
    <symbol id="eyeglasses" viewBox="0 0 24 9.83">
      <path d="M23.3,152.5H21.635a4.907,4.907,0,0,0-7.194.472,3.945,3.945,0,0,0-4.882,0,4.907,4.907,0,0,0-7.194-.472H.7a.7.7,0,1,0,0,1.406H1.33a4.915,4.915,0,1,0,8.959.291,2.534,2.534,0,0,1,3.422,0,4.915,4.915,0,1,0,8.959-.291H23.3a.7.7,0,0,0,0-1.406ZM5.743,159.571a3.509,3.509,0,1,1,3.509-3.509A3.513,3.513,0,0,1,5.743,159.571Zm12.513,0a3.509,3.509,0,1,1,3.509-3.509A3.513,3.513,0,0,1,18.257,159.571Z" transform="translate(0 -151.147)"/>
    </symbol>
    <symbol id="fb" viewBox="0 0 13 24">
      <path d="M13.758,13.5l.674-4.343H10.217V6.338a2.184,2.184,0,0,1,2.477-2.347h1.916V.293A23.625,23.625,0,0,0,11.208,0c-3.471,0-5.74,2.08-5.74,5.846v3.31H1.609V13.5H5.468V24h4.749V13.5Z" transform="translate(-1.609)"/>
    </symbol>
    <symbol id="file-close" viewBox="0 0 24 24">
      <path d="M0,0H24V24H0Z" fill="none"/><path d="M19.4,6.45,17.95,5,12.2,10.75,6.45,5,5,6.45l5.75,5.75L5,17.95,6.45,19.4l5.75-5.75,5.75,5.75,1.45-1.45L13.65,12.2Z" transform="translate(-.2 -.2)"/>
    </symbol>
    <symbol id="file" viewBox="0 0 16 18.286">
      <path id="Icon_metro-attachment" data-name="Icon metro-attachment" d="M14.853,7.768l-1.16-1.159-5.8,5.8a2.46,2.46,0,0,0,3.48,3.479l6.96-6.959a4.1,4.1,0,0,0-5.8-5.8L5.226,10.436l-.016.015A5.719,5.719,0,0,0,13.3,18.539l.015-.016h0L18.3,13.536l-1.16-1.159-4.988,4.987-.015.015A4.079,4.079,0,0,1,6.37,11.612l.016-.015h0l7.309-7.307a2.461,2.461,0,0,1,3.48,3.479l-6.96,6.959a.82.82,0,0,1-1.16-1.159l5.8-5.8Z" transform="translate(-3.535 -1.928)"/>
    </symbol>
    <symbol id="filter" viewBox="0 0 24 24">
      <path d="M0,0H24m0,24H0" fill="none"/><path d="M7,6H17l-5.01,6.3ZM4.25,5.61C6.27,8.2,10,13,10,13v6a1,1,0,0,0,1,1h2a1,1,0,0,0,1-1V13s3.72-4.8,5.74-7.39A1,1,0,0,0,18.95,4H5.04A1,1,0,0,0,4.25,5.61Z"/><path d="M0,0H24V24H0Z" fill="none"/>
    </symbol>
    <symbol id="info" viewBox="0 0 16 16">
      <path d="M0,0H16V16H0Z" fill="none"/><path d="M8.667,2a6.667,6.667,0,1,0,6.667,6.667A6.669,6.669,0,0,0,8.667,2Zm.667,10H8V8H9.333Zm0-5.333H8V5.333H9.333Z" transform="translate(-.667 -.667)"/>
    </symbol>
    <symbol id="instagram" viewBox="0 0 24 24">
      <path d="M12,8.084a6.153,6.153,0,1,0,6.152,6.153A6.143,6.143,0,0,0,12,8.084Zm0,10.154a4,4,0,1,1,4-4,4.007,4.007,0,0,1-4,4ZM19.836,7.833A1.435,1.435,0,1,1,18.4,6.4,1.432,1.432,0,0,1,19.836,7.833ZM23.91,9.289a7.1,7.1,0,0,0-1.938-5.029,7.147,7.147,0,0,0-5.028-1.939c-1.981-.112-7.919-.112-9.9,0A7.137,7.137,0,0,0,2.017,4.255,7.127,7.127,0,0,0,.079,9.284c-.112,1.981-.112,7.921,0,9.9a7.1,7.1,0,0,0,1.938,5.029,7.156,7.156,0,0,0,5.028,1.939c1.981.112,7.919.112,9.9,0a7.1,7.1,0,0,0,5.028-1.939,7.15,7.15,0,0,0,1.938-5.029c.112-1.981.112-7.915,0-9.9ZM21.351,21.312a4.05,4.05,0,0,1-2.281,2.281c-1.579.627-5.327.482-7.073.482s-5.5.139-7.073-.482a4.05,4.05,0,0,1-2.281-2.281c-.626-1.58-.482-5.329-.482-7.074s-.139-5.5.482-7.074A4.05,4.05,0,0,1,4.925,4.882C6.5,4.255,10.252,4.4,12,4.4s5.5-.139,7.073.482a4.05,4.05,0,0,1,2.281,2.281c.626,1.58.482,5.329.482,7.074S21.978,19.738,21.351,21.312Z" transform="translate(.005 -2.237)"/>
    </symbol>
    <symbol id="link-next" viewBox="0 0 24 24">
      <path d="M0,0H24V24H0Z" fill="none"/><path d="M19,19H5V5h7V3H5A2,2,0,0,0,3,5V19a2,2,0,0,0,2,2H19a2.006,2.006,0,0,0,2-2V12H19ZM14,3V5h3.59L7.76,14.83l1.41,1.41L19,6.41V10h2V3Z"/>
    </symbol>
    <symbol id="link-white" viewBox="0 0 100 100">
      <path d="M60.4816 39.5191C69.3503 48.397 69.2285 62.6305 60.535 71.3723C60.5187 71.3901 60.4994 71.4094 60.4816 71.4272L50.5066 81.4022C41.7087 90.2001 27.395 90.1989 18.5984 81.4022C9.80053 72.6058 9.80053 58.2905 18.5984 49.4941L24.1063 43.9861C25.567 42.5255 28.0824 43.4963 28.1578 45.5605C28.254 48.1911 28.7257 50.834 29.5962 53.3862C29.891 54.2504 29.6803 55.2064 29.0346 55.8521L27.092 57.7947C22.9319 61.9548 22.8014 68.7286 26.9206 72.9294C31.0804 77.1716 37.9177 77.1968 42.1094 73.0051L52.0844 63.0316C56.269 58.847 56.2515 52.0833 52.0844 47.9162C51.5351 47.3678 50.9817 46.9418 50.5495 46.6442C50.2437 46.4342 49.9912 46.1557 49.8121 45.8308C49.6331 45.5059 49.5325 45.1437 49.5183 44.773C49.4595 43.2045 50.0152 41.5881 51.2547 40.3487L54.3799 37.2233C55.1994 36.4038 56.485 36.3032 57.4353 36.9664C58.5236 37.7263 59.543 38.5805 60.4816 39.5191V39.5191ZM81.4016 18.598C72.605 9.80127 58.2914 9.80008 49.4935 18.598L39.5185 28.573C39.5007 28.5908 39.4814 28.6101 39.465 28.6279C30.7716 37.3697 30.6498 51.6032 39.5185 60.4811C40.457 61.4196 41.4763 62.2738 42.5646 63.0336C43.5149 63.6969 44.8006 63.5961 45.62 62.7767L48.7452 59.6513C49.9846 58.4119 50.5404 56.7956 50.4816 55.227C50.4674 54.8563 50.3668 54.4941 50.1877 54.1692C50.0087 53.8443 49.7562 53.5658 49.4504 53.3558C49.0182 53.0582 48.4648 52.6322 47.9154 52.0838C43.7483 47.9168 43.7308 41.1531 47.9154 36.9685L57.8904 26.9949C62.0822 22.8032 68.9193 22.8284 73.0793 27.0706C77.1984 31.2714 77.0681 38.0452 72.9079 42.2053L70.9653 44.1479C70.3196 44.7936 70.1089 45.7496 70.4037 46.6138C71.2742 49.166 71.7459 51.8089 71.8421 54.4396C71.9176 56.5037 74.4329 57.4745 75.8935 56.0139L81.4015 50.506C90.1995 41.7097 90.1995 27.3944 81.4016 18.598V18.598Z"/>
    </symbol>
    <symbol id="link" viewBox="0 0 100 100">
      <path d="M60.4816 39.5191C69.3503 48.397 69.2285 62.6305 60.535 71.3723C60.5187 71.3901 60.4994 71.4094 60.4816 71.4272L50.5066 81.4022C41.7087 90.2001 27.395 90.1989 18.5984 81.4022C9.80053 72.6058 9.80053 58.2905 18.5984 49.4941L24.1063 43.9861C25.567 42.5255 28.0824 43.4963 28.1578 45.5605C28.254 48.1911 28.7257 50.834 29.5962 53.3862C29.891 54.2504 29.6803 55.2064 29.0346 55.8521L27.092 57.7947C22.9319 61.9548 22.8014 68.7286 26.9206 72.9294C31.0804 77.1716 37.9177 77.1968 42.1094 73.0051L52.0844 63.0316C56.269 58.847 56.2515 52.0833 52.0844 47.9162C51.5351 47.3678 50.9817 46.9418 50.5495 46.6442C50.2437 46.4342 49.9912 46.1557 49.8121 45.8308C49.6331 45.5059 49.5325 45.1437 49.5183 44.773C49.4595 43.2045 50.0152 41.5881 51.2547 40.3487L54.3799 37.2233C55.1994 36.4038 56.485 36.3032 57.4353 36.9664C58.5236 37.7263 59.543 38.5805 60.4816 39.5191V39.5191ZM81.4016 18.598C72.605 9.80127 58.2914 9.80008 49.4935 18.598L39.5185 28.573C39.5007 28.5908 39.4814 28.6101 39.465 28.6279C30.7716 37.3697 30.6498 51.6032 39.5185 60.4811C40.457 61.4196 41.4763 62.2738 42.5646 63.0336C43.5149 63.6969 44.8006 63.5961 45.62 62.7767L48.7452 59.6513C49.9846 58.4119 50.5404 56.7956 50.4816 55.227C50.4674 54.8563 50.3668 54.4941 50.1877 54.1692C50.0087 53.8443 49.7562 53.5658 49.4504 53.3558C49.0182 53.0582 48.4648 52.6322 47.9154 52.0838C43.7483 47.9168 43.7308 41.1531 47.9154 36.9685L57.8904 26.9949C62.0822 22.8032 68.9193 22.8284 73.0793 27.0706C77.1984 31.2714 77.0681 38.0452 72.9079 42.2053L70.9653 44.1479C70.3196 44.7936 70.1089 45.7496 70.4037 46.6138C71.2742 49.166 71.7459 51.8089 71.8421 54.4396C71.9176 56.5037 74.4329 57.4745 75.8935 56.0139L81.4015 50.506C90.1995 41.7097 90.1995 27.3944 81.4016 18.598V18.598Z"/>
    </symbol>
    <symbol id="odnoklassniki" viewBox="0 0 15 24">
      <path d="M13.53,15.651a11.048,11.048,0,0,1-4.383,1.261l1.018.965,3.716,3.575c1.359,1.34-.852,3.435-2.226,2.142-.93-.909-2.294-2.221-3.716-3.59L4.222,23.59c-1.373,1.289-3.585-.825-2.211-2.142.945-.909,2.294-2.221,3.716-3.575l1-.965a11,11,0,0,1-4.413-1.261C.73,14.663.033,14.086.647,12.882c.36-.684,1.349-1.261,2.659-.267a8.1,8.1,0,0,0,4.622,1.354,8.1,8.1,0,0,0,4.622-1.354c1.31-.989,2.294-.417,2.659.267.6,1.2-.093,1.781-1.68,2.769ZM1.607,6.078A6.206,6.206,0,0,1,7.924,0a6.206,6.206,0,0,1,6.317,6.078,6.2,6.2,0,0,1-6.317,6.064A6.2,6.2,0,0,1,1.607,6.078Zm3.215,0a3.05,3.05,0,0,0,3.1,2.985,3.05,3.05,0,0,0,3.1-2.985,3.053,3.053,0,0,0-3.1-3A3.053,3.053,0,0,0,4.821,6.078Z" transform="translate(-.426)"/>
    </symbol>
    <symbol id="parking" viewBox="0 0 24 24">
      <path d="M0,0H24V24H0Z" fill="none"/><path d="M13,3H6V21h4V15h3A6,6,0,0,0,13,3Zm.2,8H10V7h3.2a2,2,0,0,1,0,4Z"/>
    </symbol>
    <symbol id="phone" viewBox="0 0 14 14">
      <path d="M0,0H14V14H0Z" fill="none"/><path d="M12.478,10.156,11,9.987a1.161,1.161,0,0,0-.957.333L8.967,11.393A8.776,8.776,0,0,1,5.123,7.548L6.2,6.469a1.161,1.161,0,0,0,.333-.957l-.169-1.47A1.167,1.167,0,0,0,5.2,3.01H4.2A1.158,1.158,0,0,0,3.028,4.217,9.912,9.912,0,0,0,12.3,13.487a1.158,1.158,0,0,0,1.207-1.167V11.311A1.156,1.156,0,0,0,12.478,10.156Z" transform="translate(-1.261 -1.254)"/>
    </symbol>
    <symbol id="photo" viewBox="0 0 24 24">
      <path d="M0,0H24V24H0Z" fill="none"/><path d="M19,5V19H5V5H19m0-2H5A2.006,2.006,0,0,0,3,5V19a2.006,2.006,0,0,0,2,2H19a2.006,2.006,0,0,0,2-2V5A2.006,2.006,0,0,0,19,3Zm-4.86,8.86-3,3.87L9,13.14,6,17H18l-3.86-5.14Z"/>
    </symbol>
    <symbol id="quote" viewBox="0 0 48 40">
      <path id="&#x41a;&#x43e;&#x43d;&#x442;&#x443;&#x440;_186" data-name="&#x41a;&#x43e;&#x43d;&#x442;&#x443;&#x440; 186" d="M36.687,22.96a3.011,3.011,0,0,1-2.653-1.176,5.965,5.965,0,0,1-1.006-2.805L29.916-12.877a3.814,3.814,0,0,1,.823-3.077,3.676,3.676,0,0,1,2.836-1.086H45.471A3.982,3.982,0,0,1,48.4-15.954a3.634,3.634,0,0,1,.915,3.077L46.2,18.978a5.463,5.463,0,0,1-1.1,2.805A3.262,3.262,0,0,1,42.36,22.96Zm-28.548,0a3.011,3.011,0,0,1-2.653-1.176,5.965,5.965,0,0,1-1.006-2.805L1.368-12.877a3.814,3.814,0,0,1,.823-3.077A3.676,3.676,0,0,1,5.028-17.04H16.923a3.982,3.982,0,0,1,2.928,1.086,3.634,3.634,0,0,1,.915,3.077L17.655,18.978a5.965,5.965,0,0,1-1.006,2.805,3.22,3.22,0,0,1-2.836,1.176Z" transform="translate(-1.34 17.04)" fill="#0779db"/>
    </symbol>
    <symbol id="search" viewBox="0 0 20 20">
      <path d="M17.664,15.9h-.927l-.328-.317a7.648,7.648,0,1,0-.821.821l.317.328v.926l4.986,4.983a1.236,1.236,0,1,0,1.748-1.747Zm-7.039,0A5.276,5.276,0,1,1,15.9,10.621,5.271,5.271,0,0,1,10.626,15.9Z" transform="translate(-2.999 -2.999)"/>
    </symbol>
    <symbol id="share" viewBox="0 0 24 24">
      <path d="M0,0H24V24H0Z" fill="none"/><path d="M18,16.08a2.912,2.912,0,0,0-1.96.77L8.91,12.7A3.274,3.274,0,0,0,9,12a3.274,3.274,0,0,0-.09-.7l7.05-4.11A2.993,2.993,0,1,0,15,5a3.274,3.274,0,0,0,.09.7L8.04,9.81a3,3,0,1,0,0,4.38l7.12,4.16a2.821,2.821,0,0,0-.08.65A2.92,2.92,0,1,0,18,16.08Z"/>
    </symbol>
    <symbol id="site-selection" viewBox="0 0 18 18">
      <path d="M18,0H0V18H18Z" fill="none" transform="rotate(-90 9 9)"/><path d="M14.148,13.943,10.713,10.5l3.435-3.443L13.09,6l-4.5,4.5,4.5,4.5Z" transform="rotate(-90 9.545 11.045)"/>
    </symbol>
    <symbol id="slider-next" viewBox="0 0 32 32">
      <path d="M32,0H0V32H32Z" fill="none"/><path d="M4,13.333H20.227L12.773,5.88,14.667,4,25.333,14.667,14.667,25.333l-1.88-1.88L20.227,16H4Z" transform="translate(1.333 1.333)"/>
    </symbol>
    <symbol id="slider-prev" viewBox="0 0 32 32">
      <path d="M0,0H32V32H0Z" fill="none"/><path d="M25.333,13.333H9.107L16.56,5.88,14.667,4,4,14.667,14.667,25.333l1.88-1.88L9.107,16H25.333Z" transform="translate(1.333 1.333)"/>
    </symbol>
    <symbol id="star" viewBox="0 0 28 28">
      <path d="M0,0H28V28H0Z" fill="none"/><path d="M0,0H28V28H0Z" fill="none"/><path d="M13.667,19.815l7.21,4.352-1.913-8.2,6.37-5.518-8.388-.712L13.667,2,10.388,9.735,2,10.447l6.37,5.518-1.913,8.2Z" transform="translate(.333 .333)"/>
    </symbol>
    <symbol id="telegram-white" viewBox="0 0 100 100">
      <path d="M93.4961 19.2579L80.293 81.5236C79.2969 85.9181 76.6992 87.0118 73.0078 84.9415L52.8906 70.1173L43.1836 79.4532C42.1094 80.5275 41.2109 81.4259 39.1406 81.4259L40.5859 60.9376L77.8711 27.2462C79.4922 25.8009 77.5195 25.0001 75.3515 26.4454L29.2578 55.4689L9.41405 49.2579C5.09764 47.9103 5.01952 44.9415 10.3125 42.8712L87.9297 12.9689C91.5234 11.6212 94.668 13.7696 93.4961 19.2579V19.2579Z"/>
    </symbol>
    <symbol id="telegram" viewBox="0 0 100 100">
      <path d="M93.4958 19.2579L80.2927 81.5236C79.2966 85.9181 76.699 87.0118 73.0076 84.9415L52.8904 70.1173L43.1833 79.4532C42.1091 80.5275 41.2107 81.4259 39.1404 81.4259L40.5857 60.9376L77.8708 27.2462C79.4919 25.8009 77.5193 25.0001 75.3513 26.4454L29.2576 55.4689L9.4138 49.2579C5.0974 47.9103 5.01927 44.9415 10.3122 42.8712L87.9294 12.9689C91.5232 11.6212 94.6677 13.7696 93.4958 19.2579V19.2579Z"/>
    </symbol>
    <symbol id="theme-dark" viewBox="0 0 28.284 28.284">
      <path d="M0,0H20V20H0Z" fill="none" transform="rotate(-45 17.07 7.071)"/><path d="M12.333,3.667a5.638,5.638,0,0,1,.842.058,9.959,9.959,0,0,0,0,13.217,5.638,5.638,0,0,1-.842.058,6.667,6.667,0,0,1,0-13.333m0-1.667A8.333,8.333,0,1,0,16.5,17.542a8.319,8.319,0,0,1,0-14.417A8.311,8.311,0,0,0,12.333,2Z" transform="rotate(-45 17.002 8.043)"/>
    </symbol>
    <symbol id="theme-light" viewBox="0 0 20 20">
      <path fill="none" d="M0 0H20V20H0z"/><path d="M10.167,7.667a2.5,2.5,0,1,1-2.5,2.5,2.507,2.507,0,0,1,2.5-2.5m0-1.667a4.167,4.167,0,1,0,4.167,4.167A4.168,4.168,0,0,0,10.167,6ZM1.833,11H3.5a.833.833,0,0,0,0-1.667H1.833a.833.833,0,0,0,0,1.667Zm15,0H18.5a.833.833,0,1,0,0-1.667H16.833a.833.833,0,0,0,0,1.667Zm-7.5-9.167V3.5A.833.833,0,0,0,11,3.5V1.833a.833.833,0,0,0-1.667,0Zm0,15V18.5A.833.833,0,1,0,11,18.5V16.833a.833.833,0,0,0-1.667,0ZM5.158,3.983A.831.831,0,0,0,3.983,5.158l.883.883A.831.831,0,0,0,6.042,4.867ZM15.467,14.292a.831.831,0,0,0-1.175,1.175l.883.883a.831.831,0,0,0,1.175-1.175Zm.883-9.133a.831.831,0,0,0-1.175-1.175l-.883.883a.831.831,0,0,0,1.175,1.175ZM6.042,15.467a.831.831,0,1,0-1.175-1.175l-.883.883A.831.831,0,1,0,5.158,16.35Z" transform="translate(-.167 -.167)"/>
    </symbol>
    <symbol id="time" viewBox="0 0 24 24">
      <path d="M0,0H24V24H0Z" fill="none"/><path d="M11.99,2A10,10,0,1,0,22,12,10,10,0,0,0,11.99,2Zm3.3,14.71L11,12.41V7h2v4.59l3.71,3.71Z"/>
    </symbol>
    <symbol id="twitter" viewBox="0 0 24 19">
      <path d="M21.533,8.116c.015.208.015.416.015.623A13.715,13.715,0,0,1,7.553,22.381,14.163,14.163,0,0,1,0,20.228a10.437,10.437,0,0,0,1.188.059,10.014,10.014,0,0,0,6.107-2.048,4.914,4.914,0,0,1-4.6-3.325,6.36,6.36,0,0,0,.929.074,5.329,5.329,0,0,0,1.294-.163A4.828,4.828,0,0,1,.975,10.12V10.06a5.051,5.051,0,0,0,2.223.609A4.761,4.761,0,0,1,1.005,6.676a4.667,4.667,0,0,1,.67-2.42A14.1,14.1,0,0,0,11.817,9.274a5.281,5.281,0,0,1-.122-1.1,4.856,4.856,0,0,1,4.919-4.795,4.967,4.967,0,0,1,3.594,1.514A9.838,9.838,0,0,0,23.33,3.737a4.806,4.806,0,0,1-2.162,2.642A10.063,10.063,0,0,0,24,5.637a10.432,10.432,0,0,1-2.467,2.479Z" transform="translate(0 -3.381)"/>
    </symbol>
    <symbol id="viber-white" viewBox="0 0 100 100">
      <g clip-path="url(#clip0_921_35329)"><path d="M86.7188 9.74654C84.2384 7.46139 74.1993 0.176229 51.8165 0.0785725C51.8165 0.0785725 25.4298 -1.50346 12.5782 10.2934C5.42976 17.4419 2.91023 27.9301 2.63679 40.9184C2.36336 53.9067 2.03132 78.2426 25.4884 84.8442H25.5079L25.4884 94.9223C25.4884 94.9223 25.3321 99.0044 28.0274 99.8247C31.2696 100.84 33.1837 97.7348 36.2891 94.395C37.9884 92.559 40.3321 89.8637 42.1095 87.8129C58.1641 89.1606 70.4884 86.0747 71.8946 85.6254C75.1368 84.5708 93.4766 82.227 96.4454 57.8911C99.5313 32.7739 94.961 16.9145 86.7188 9.74654V9.74654ZM89.4337 56.0551C86.9141 76.3676 72.0509 77.6567 69.3165 78.5356C68.1446 78.9067 57.3048 81.602 43.6915 80.7231C43.6915 80.7231 33.5352 92.9692 30.3712 96.1528C29.336 97.1879 28.2032 97.0903 28.2227 95.0395C28.2227 93.6919 28.3009 78.3012 28.3009 78.3012C28.2813 78.3012 28.2813 78.3012 28.3009 78.3012C8.41804 72.7934 9.58992 52.0708 9.80476 41.2309C10.0196 30.3911 12.0704 21.5044 18.1251 15.5278C29.004 5.66451 51.4063 7.12935 51.4063 7.12935C70.3321 7.20748 79.3946 12.9106 81.504 14.8247C88.4766 20.8012 92.0313 35.0981 89.4337 56.0551V56.0551ZM62.2852 40.2739C62.3634 41.9536 59.8438 42.0708 59.7657 40.3911C59.5509 36.0942 57.5391 34.0044 53.3985 33.77C51.7188 33.6723 51.8751 31.1528 53.5352 31.2504C58.9845 31.5434 62.0118 34.6684 62.2852 40.2739ZM66.2501 42.4809C66.4454 34.1997 61.2696 27.7153 51.4454 26.9926C49.7852 26.8754 49.961 24.3559 51.6212 24.4731C62.9493 25.2934 68.9845 33.0864 68.7696 42.5395C68.7501 44.2192 66.211 44.1411 66.2501 42.4809V42.4809ZM75.4298 45.0981C75.4493 46.7778 72.9102 46.7973 72.9102 45.1176C72.793 29.1997 62.1876 20.5278 49.3165 20.4301C47.6563 20.4106 47.6563 17.9106 49.3165 17.9106C63.711 18.0083 75.293 27.9497 75.4298 45.0981V45.0981ZM73.2227 64.2583V64.2973C71.1134 68.0083 67.168 72.1098 63.1055 70.8012L63.0665 70.7426C58.9454 69.5903 49.2384 64.5903 43.1055 59.7075C39.9415 57.2075 37.0509 54.2583 34.8243 51.4262C32.8126 48.9067 30.7813 45.9184 28.8087 42.3247C24.6485 34.8051 23.7305 31.4458 23.7305 31.4458C22.4219 27.3833 26.504 23.4379 30.2344 21.3286H30.2735C32.0704 20.3911 33.7891 20.7036 34.9415 22.0903C34.9415 22.0903 37.3634 24.9809 38.3985 26.4067C39.3751 27.7348 40.6837 29.8637 41.3673 31.0551C42.5587 33.184 41.8165 35.352 40.6446 36.2504L38.3009 38.1254C37.1095 39.0825 37.2657 40.8598 37.2657 40.8598C37.2657 40.8598 40.7423 54.0044 53.7305 57.3247C53.7305 57.3247 55.5079 57.4809 56.4649 56.2895L58.3399 53.9458C59.2384 52.7739 61.4063 52.0317 63.5352 53.2231C66.4063 54.8442 70.0587 57.3637 72.4805 59.6489C73.8477 60.7622 74.1602 62.4614 73.2227 64.2583Z"/></g>
    </symbol>
    <symbol id="viber" viewBox="0 0 100 100">
      <g clip-path="url(#clip0_921_35260)"><path d="M86.7188 9.74654C84.2384 7.46139 74.1993 0.176229 51.8165 0.0785725C51.8165 0.0785725 25.4298 -1.50346 12.5782 10.2934C5.42976 17.4419 2.91023 27.9301 2.63679 40.9184C2.36336 53.9067 2.03132 78.2426 25.4884 84.8442H25.5079L25.4884 94.9223C25.4884 94.9223 25.3321 99.0044 28.0274 99.8247C31.2696 100.84 33.1837 97.7348 36.2891 94.395C37.9884 92.559 40.3321 89.8637 42.1095 87.8129C58.1641 89.1606 70.4884 86.0747 71.8946 85.6254C75.1368 84.5708 93.4766 82.227 96.4454 57.8911C99.5313 32.7739 94.961 16.9145 86.7188 9.74654V9.74654ZM89.4337 56.0551C86.9141 76.3676 72.0509 77.6567 69.3165 78.5356C68.1446 78.9067 57.3048 81.602 43.6915 80.7231C43.6915 80.7231 33.5352 92.9692 30.3712 96.1528C29.336 97.1879 28.2032 97.0903 28.2227 95.0395C28.2227 93.6919 28.3009 78.3012 28.3009 78.3012C28.2813 78.3012 28.2813 78.3012 28.3009 78.3012C8.41804 72.7934 9.58992 52.0708 9.80476 41.2309C10.0196 30.3911 12.0704 21.5044 18.1251 15.5278C29.004 5.66451 51.4063 7.12935 51.4063 7.12935C70.3321 7.20748 79.3946 12.9106 81.504 14.8247C88.4766 20.8012 92.0313 35.0981 89.4337 56.0551V56.0551ZM62.2852 40.2739C62.3634 41.9536 59.8438 42.0708 59.7657 40.3911C59.5509 36.0942 57.5391 34.0044 53.3985 33.77C51.7188 33.6723 51.8751 31.1528 53.5352 31.2504C58.9845 31.5434 62.0118 34.6684 62.2852 40.2739ZM66.2501 42.4809C66.4454 34.1997 61.2696 27.7153 51.4454 26.9926C49.7852 26.8754 49.961 24.3559 51.6212 24.4731C62.9493 25.2934 68.9845 33.0864 68.7696 42.5395C68.7501 44.2192 66.211 44.1411 66.2501 42.4809V42.4809ZM75.4298 45.0981C75.4493 46.7778 72.9102 46.7973 72.9102 45.1176C72.793 29.1997 62.1876 20.5278 49.3165 20.4301C47.6563 20.4106 47.6563 17.9106 49.3165 17.9106C63.711 18.0083 75.293 27.9497 75.4298 45.0981V45.0981ZM73.2227 64.2583V64.2973C71.1134 68.0083 67.168 72.1098 63.1055 70.8012L63.0665 70.7426C58.9454 69.5903 49.2384 64.5903 43.1055 59.7075C39.9415 57.2075 37.0509 54.2583 34.8243 51.4262C32.8126 48.9067 30.7813 45.9184 28.8087 42.3247C24.6485 34.8051 23.7305 31.4458 23.7305 31.4458C22.4219 27.3833 26.504 23.4379 30.2344 21.3286H30.2735C32.0704 20.3911 33.7891 20.7036 34.9415 22.0903C34.9415 22.0903 37.3634 24.9809 38.3985 26.4067C39.3751 27.7348 40.6837 29.8637 41.3673 31.0551C42.5587 33.184 41.8165 35.352 40.6446 36.2504L38.3009 38.1254C37.1095 39.0825 37.2657 40.8598 37.2657 40.8598C37.2657 40.8598 40.7423 54.0044 53.7305 57.3247C53.7305 57.3247 55.5079 57.4809 56.4649 56.2895L58.3399 53.9458C59.2384 52.7739 61.4063 52.0317 63.5352 53.2231C66.4063 54.8442 70.0587 57.3637 72.4805 59.6489C73.8477 60.7622 74.1602 62.4614 73.2227 64.2583Z"/></g>
    </symbol>
    <symbol id="vk-white" viewBox="0 0 100 100">
      <path d="M94.6181 25.9861C95.2605 23.816 94.6181 22.2188 91.5279 22.2188H81.3022C78.698 22.2188 77.5001 23.5903 76.8577 25.1181C76.8577 25.1181 71.6494 37.809 64.2883 46.0382C61.9098 48.4167 60.816 49.1806 59.514 49.1806C58.8716 49.1806 57.882 48.4167 57.882 46.2465V25.9861C57.882 23.3819 57.1529 22.2188 55.0001 22.2188H38.9237C37.2917 22.2188 36.3195 23.434 36.3195 24.5625C36.3195 27.0278 40.0001 27.6007 40.382 34.5451V49.6146C40.382 52.9132 39.7917 53.5208 38.4897 53.5208C35.0174 53.5208 26.5799 40.7778 21.5799 26.1944C20.573 23.3646 19.5834 22.2188 16.9619 22.2188H6.73619C3.81953 22.2188 3.22925 23.5903 3.22925 25.1181C3.22925 27.8264 6.70147 41.2813 19.3924 59.059C27.8473 71.1944 39.757 77.7743 50.5904 77.7743C57.1008 77.7743 57.8994 76.316 57.8994 73.7986C57.8994 62.2014 57.3091 61.1076 60.573 61.1076C62.0834 61.1076 64.6876 61.8715 70.764 67.7222C77.7084 74.6667 78.8542 77.7743 82.7431 77.7743H92.9688C95.8855 77.7743 97.3612 76.316 96.5105 73.434C94.5661 67.375 81.4237 54.9097 80.8334 54.0764C79.323 52.1319 79.757 51.2639 80.8334 49.5278C80.8508 49.5104 93.3334 31.941 94.6181 25.9861V25.9861Z"/>
    </symbol>
    <symbol id="vk" viewBox="0 0 100 100">
      <path d="M94.6184 25.9861C95.2607 23.816 94.6184 22.2188 91.5281 22.2188H81.3024C78.6982 22.2188 77.5003 23.5903 76.858 25.1181C76.858 25.1181 71.6496 37.809 64.2885 46.0382C61.91 48.4167 60.8163 49.1806 59.5142 49.1806C58.8718 49.1806 57.8823 48.4167 57.8823 46.2465V25.9861C57.8823 23.3819 57.1531 22.2188 55.0003 22.2188H38.9239C37.292 22.2188 36.3198 23.434 36.3198 24.5625C36.3198 27.0278 40.0003 27.6007 40.3823 34.5451V49.6146C40.3823 52.9132 39.792 53.5208 38.4899 53.5208C35.0177 53.5208 26.5802 40.7778 21.5802 26.1944C20.5732 23.3646 19.5837 22.2188 16.9621 22.2188H6.73644C3.81977 22.2188 3.22949 23.5903 3.22949 25.1181C3.22949 27.8264 6.70171 41.2813 19.3927 59.059C27.8475 71.1944 39.7573 77.7743 50.5906 77.7743C57.101 77.7743 57.8996 76.316 57.8996 73.7986C57.8996 62.2014 57.3093 61.1076 60.5732 61.1076C62.0837 61.1076 64.6878 61.8715 70.7642 67.7222C77.7087 74.6667 78.8545 77.7743 82.7434 77.7743H92.9691C95.8857 77.7743 97.3614 76.316 96.5107 73.434C94.5663 67.375 81.4239 54.9097 80.8337 54.0764C79.3232 52.1319 79.7573 51.2639 80.8337 49.5278C80.851 49.5104 93.3337 31.941 94.6184 25.9861V25.9861Z"/>
    </symbol>
    <symbol id="whatsapp-white" viewBox="0 0 100 100">
      <path d="M80.6445 18.9648C72.4609 10.7617 61.5625 6.25 49.9805 6.25C26.0742 6.25 6.62109 25.7031 6.62109 49.6094C6.62109 57.2461 8.61328 64.707 12.4023 71.2891L6.25 93.75L29.2383 87.7148C35.5664 91.1719 42.6953 92.9883 49.9609 92.9883H49.9805C73.8672 92.9883 93.75 73.5352 93.75 49.6289C93.75 38.0469 88.8281 27.168 80.6445 18.9648V18.9648ZM49.9805 85.6836C43.4961 85.6836 37.1484 83.9453 31.6211 80.6641L30.3125 79.8828L16.6797 83.457L20.3125 70.1563L19.4531 68.7891C15.8398 63.0469 13.9453 56.4258 13.9453 49.6094C13.9453 29.7461 30.1172 13.5742 50 13.5742C59.6289 13.5742 68.6719 17.3242 75.4687 24.1406C82.2656 30.957 86.4453 40 86.4258 49.6289C86.4258 69.5117 69.8437 85.6836 49.9805 85.6836V85.6836ZM69.7461 58.6914C68.6719 58.1445 63.3398 55.5273 62.3438 55.1758C61.3477 54.8047 60.625 54.6289 59.9023 55.7227C59.1797 56.8164 57.1094 59.2383 56.4648 59.9805C55.8398 60.7031 55.1953 60.8008 54.1211 60.2539C47.7539 57.0703 43.5742 54.5703 39.375 47.3633C38.2617 45.4492 40.4883 45.5859 42.5586 41.4453C42.9102 40.7227 42.7344 40.0977 42.4609 39.5508C42.1875 39.0039 40.0195 33.6719 39.1211 31.5039C38.2422 29.3945 37.3438 29.6875 36.6797 29.6484C36.0547 29.6094 35.332 29.6094 34.6094 29.6094C33.8867 29.6094 32.7148 29.8828 31.7187 30.957C30.7227 32.0508 27.9297 34.668 27.9297 40C27.9297 45.332 31.8164 50.4883 32.3438 51.2109C32.8906 51.9336 39.9805 62.8711 50.8594 67.5781C57.7344 70.5469 60.4297 70.8008 63.8672 70.293C65.957 69.9805 70.2734 67.6758 71.1719 65.1367C72.0703 62.5977 72.0703 60.4297 71.7969 59.9805C71.543 59.4922 70.8203 59.2188 69.7461 58.6914Z"/>
    </symbol>
    <symbol id="whatsapp" viewBox="0 0 100 100">
      <path d="M80.6445 18.9648C72.4609 10.7617 61.5625 6.25 49.9805 6.25C26.0742 6.25 6.62109 25.7031 6.62109 49.6094C6.62109 57.2461 8.61328 64.707 12.4023 71.2891L6.25 93.75L29.2383 87.7148C35.5664 91.1719 42.6953 92.9883 49.9609 92.9883H49.9805C73.8672 92.9883 93.75 73.5352 93.75 49.6289C93.75 38.0469 88.8281 27.168 80.6445 18.9648V18.9648ZM49.9805 85.6836C43.4961 85.6836 37.1484 83.9453 31.6211 80.6641L30.3125 79.8828L16.6797 83.457L20.3125 70.1563L19.4531 68.7891C15.8398 63.0469 13.9453 56.4258 13.9453 49.6094C13.9453 29.7461 30.1172 13.5742 50 13.5742C59.6289 13.5742 68.6719 17.3242 75.4687 24.1406C82.2656 30.957 86.4453 40 86.4258 49.6289C86.4258 69.5117 69.8437 85.6836 49.9805 85.6836V85.6836ZM69.7461 58.6914C68.6719 58.1445 63.3398 55.5273 62.3438 55.1758C61.3477 54.8047 60.625 54.6289 59.9023 55.7227C59.1797 56.8164 57.1094 59.2383 56.4648 59.9805C55.8398 60.7031 55.1953 60.8008 54.1211 60.2539C47.7539 57.0703 43.5742 54.5703 39.375 47.3633C38.2617 45.4492 40.4883 45.5859 42.5586 41.4453C42.9102 40.7227 42.7344 40.0977 42.4609 39.5508C42.1875 39.0039 40.0195 33.6719 39.1211 31.5039C38.2422 29.3945 37.3438 29.6875 36.6797 29.6484C36.0547 29.6094 35.332 29.6094 34.6094 29.6094C33.8867 29.6094 32.7148 29.8828 31.7187 30.957C30.7227 32.0508 27.9297 34.668 27.9297 40C27.9297 45.332 31.8164 50.4883 32.3438 51.2109C32.8906 51.9336 39.9805 62.8711 50.8594 67.5781C57.7344 70.5469 60.4297 70.8008 63.8672 70.293C65.957 69.9805 70.2734 67.6758 71.1719 65.1367C72.0703 62.5977 72.0703 60.4297 71.7969 59.9805C71.543 59.4922 70.8203 59.2188 69.7461 58.6914Z"/>
    </symbol></svg>