<svg xmlns="http://www.w3.org/2000/svg" width="98" height="28" viewBox="0 0 98 28">
  <g id="Сгруппировать_2070" data-name="Сгруппировать 2070" transform="translate(-981 -3827)">
    <rect id="Прямоугольник_108" data-name="Прямоугольник 108" width="98" height="28" transform="translate(981 3827)" fill="none"/>
    <g id="Сгруппировать_95" data-name="Сгруппировать 95" transform="translate(981 3827)">
      <path id="Контур_88" data-name="Контур 88" d="M75.988,74A14,14,0,1,0,62,60,14.017,14.017,0,0,0,75.988,74Z" transform="translate(-62 -46)" fill="#19aa1e" fill-rule="evenodd"/>
      <path id="Контур_89" data-name="Контур 89" d="M92.049,63A7.52,7.52,0,0,1,99.8,70.392a10.228,10.228,0,0,1-1.119,4.564c-4.588,0-5.427,3.052-5.623,5.1l-.14,1.428H91.182l-.14-1.428c-.2-2.044-1.035-5.1-5.623-5.1A10.229,10.229,0,0,1,84.3,70.392,7.52,7.52,0,0,1,92.049,63Z" transform="translate(-78.061 -58.24)" fill="#fff" fill-rule="evenodd"/>
      <path id="Контур_90" data-name="Контур 90" d="M183.609,63c-4.364,0-7.637,2.66-7.609,7.28h4.056a3.376,3.376,0,0,1,3.553-3.64,2.8,2.8,0,0,1,3.021,2.8c0,1.624-1.287,2.52-3.357,3.528A51.857,51.857,0,0,1,176,75.88V81.2h14.827V77.56h-9.344c1.4-.585,2.767-1.228,4-1.82,3.273-1.568,5.2-3.332,5.2-6.5C190.687,65.436,187.833,63,183.609,63Zm13.373,3.92h8.393V63.28H193.065V81.2h3.917Zm14.268-3.64h-3.917V81.2h3.889l7.3-11.452V81.2h3.917V63.28h-3.917l-7.274,11.452Zm30.858,11.2H238.05a4.849,4.849,0,0,1-4.7,3.36,5.605,5.605,0,0,1,.112-11.2A4.686,4.686,0,0,1,238.05,70h4.057c-.587-4-3.749-7-8.757-7a8.83,8.83,0,0,0-9.232,9.24,8.83,8.83,0,0,0,9.232,9.24C238.358,81.48,241.519,78.54,242.107,74.48Z" transform="translate(-144.107 -58.24)" fill="#1a1a1a" fill-rule="evenodd"/>
    </g>
  </g>
</svg>
