<svg width="121" height="85" viewBox="0 0 121 85" fill="none" xmlns="http://www.w3.org/2000/svg">
<g clip-path="url(#clip0_559_884)">
<path fill-rule="evenodd" clip-rule="evenodd" d="M114.56 6.50949C116.437 8.39239 117.789 10.7365 118.48 13.3075C120.97 22.7686 121 42.52 121 42.52C121 42.52 121 62.2714 118.48 71.7325C117.789 74.3035 116.437 76.6476 114.56 78.5305C112.683 80.4134 110.346 81.7692 107.782 82.4624C98.3498 85 60.5 85 60.5 85C60.5 85 22.6601 85 13.2275 82.4624C10.6634 81.771 8.32537 80.4158 6.44786 78.5326C4.57035 76.6495 3.21925 74.3044 2.52996 71.7325C-6.64934e-06 62.2714 0 42.52 0 42.52C0 42.52 -6.64934e-06 22.7686 2.52996 13.3075C3.21314 10.7282 4.56153 8.37485 6.43944 6.48425C8.31736 4.59364 10.6586 3.23245 13.2275 2.53761C22.6501 0 60.5 0 60.5 0C60.5 0 98.3399 0 107.782 2.57758C110.346 3.27079 112.683 4.62659 114.56 6.50949ZM79 42L48 24V60L79 42Z" fill="white"/>
</g>
<defs>
<clipPath id="clip0_559_884">
<rect width="121" height="85" fill="white"/>
</clipPath>
</defs>
</svg>
