<svg xmlns="http://www.w3.org/2000/svg" width="97" height="32" viewBox="0 0 97 32">
  <g id="Сгруппировать_2072" data-name="Сгруппировать 2072" transform="translate(-561 -3827)">
    <rect id="Прямоугольник_108" data-name="Прямоугольник 108" width="97" height="32" transform="translate(561 3827)" fill="none"/>
    <g id="Google-Logo.wine" transform="translate(561 3827)">
      <path id="Контур_81" data-name="Контур 81" d="M86.9,32.526a8,8,0,1,1-8-8A7.889,7.889,0,0,1,86.9,32.526Zm-3.5,0a4.513,4.513,0,1,0-9,0,4.513,4.513,0,1,0,9,0Z" transform="translate(-45.388 -15.686)" fill="#ea4335"/>
      <path id="Контур_82" data-name="Контур 82" d="M134.9,32.526a8,8,0,1,1-8-8A7.889,7.889,0,0,1,134.9,32.526Zm-3.5,0a4.513,4.513,0,1,0-9,0,4.513,4.513,0,1,0,9,0Z" transform="translate(-76.121 -15.686)" fill="#fbbc05"/>
      <path id="Контур_83" data-name="Контур 83" d="M182.166,25.013V39.369c0,5.905-3.475,8.317-7.583,8.317a7.6,7.6,0,0,1-7.072-4.712l3.051-1.273a4.408,4.408,0,0,0,4.018,2.837c2.63,0,4.259-1.626,4.259-4.687V38.7h-.122a5.427,5.427,0,0,1-4.2,1.817,8,8,0,0,1,0-15.989,5.524,5.524,0,0,1,4.2,1.788h.122v-1.3h3.328Zm-3.079,7.542c0-2.816-1.874-4.874-4.259-4.874a4.62,4.62,0,0,0-4.443,4.874,4.585,4.585,0,0,0,4.443,4.817C177.212,37.372,179.087,35.342,179.087,32.555Z" transform="translate(-106.84 -15.686)" fill="#4285f4"/>
      <path id="Контур_84" data-name="Контур 84" d="M218.558,2.53V25.964H215.14V2.53Z" transform="translate(-137.746 -1.618)" fill="#34a853"/>
      <path id="Контур_85" data-name="Контур 85" d="M240.576,35.152l2.72,1.817a7.938,7.938,0,0,1-6.648,3.544,7.815,7.815,0,0,1-7.918-8c0-4.755,3.414-8,7.526-8,4.141,0,6.166,3.3,6.828,5.087l.363.909-10.666,4.427a4.06,4.06,0,0,0,3.867,2.423,4.552,4.552,0,0,0,3.928-2.214Zm-8.371-2.877,7.13-2.967a3.088,3.088,0,0,0-2.961-1.694A4.382,4.382,0,0,0,232.205,32.275Z" transform="translate(-146.447 -15.68)" fill="#ea4335"/>
      <path id="Контур_86" data-name="Контур 86" d="M12.566,14.76V11.367H23.973a11.265,11.265,0,0,1,.169,2.048A11.218,11.218,0,0,1,21.21,21.35a11.317,11.317,0,0,1-8.641,3.483A12.577,12.577,0,0,1,0,12.416,12.577,12.577,0,0,1,12.569,0a11.792,11.792,0,0,1,8.49,3.421L18.67,5.815a8.619,8.619,0,0,0-6.1-2.423A8.9,8.9,0,0,0,3.68,12.416a8.9,8.9,0,0,0,8.886,9.024,8.28,8.28,0,0,0,6.256-2.484,7.039,7.039,0,0,0,1.835-4.2Z" fill="#4285f4"/>
    </g>
  </g>
</svg>
