<svg xmlns="http://www.w3.org/2000/svg" width="1200" height="268" viewBox="0 0 1200 268"><defs><clipPath id="clip-path"><rect id="Прямоугольник_308" data-name="Прямоугольник 308" width="1200" height="268" rx="4" transform="translate(360 2283)" fill="#ffdde1"/></clipPath></defs><g id="Группа_масок_52" data-name="Группа масок 52" transform="translate(-360 -2283)" clip-path="url(#clip-path)"><g id="discount" transform="translate(1309.64 2344.254)"><g id="Сгруппировать_367" data-name="Сгруппировать 367" transform="translate(10.359 -.002)"><g id="Сгруппировать_366" data-name="Сгруппировать 366"><path id="Контур_149" data-name="Контур 149" d="M314.93,171.066a9.773,9.773,0,0,1,0-8.639l12.438-25.445a28.951,28.951,0,0,0-12.492-38.445L289.859,85.263a9.773,9.773,0,0,1-5.078-6.988l-4.893-27.9a28.952,28.952,0,0,0-32.7-23.761l-28.043,3.967a9.773,9.773,0,0,1-8.216-2.67L190.571,8.222a28.949,28.949,0,0,0-40.424,0L129.792,27.916a9.776,9.776,0,0,1-8.216,2.67L93.533,26.619a28.948,28.948,0,0,0-32.7,23.761l-4.893,27.9a9.775,9.775,0,0,1-5.077,6.989L25.842,98.538A28.951,28.951,0,0,0,13.35,136.984l12.438,25.444a9.773,9.773,0,0,1,0,8.639L13.349,196.512a28.951,28.951,0,0,0,12.492,38.445l25.018,13.275a9.773,9.773,0,0,1,5.078,6.988l4.893,27.9A28.933,28.933,0,0,0,89.369,307.17a29.745,29.745,0,0,0,4.165-.294l28.043-3.967a9.771,9.771,0,0,1,8.216,2.67l20.355,19.692a28.95,28.95,0,0,0,40.423,0l20.356-19.692a9.783,9.783,0,0,1,8.216-2.67l28.043,3.967a28.948,28.948,0,0,0,32.7-23.761l4.894-27.9a9.775,9.775,0,0,1,5.077-6.989l25.018-13.275a28.951,28.951,0,0,0,12.492-38.445Zm-9.069,46.9-25.018,13.275A28.886,28.886,0,0,0,265.836,251.9l-4.893,27.9a9.8,9.8,0,0,1-11.065,8.039l-28.043-3.967a28.877,28.877,0,0,0-24.283,7.89L177.2,311.444a9.8,9.8,0,0,1-13.676,0l-20.355-19.692a28.856,28.856,0,0,0-20.144-8.182,29.526,29.526,0,0,0-4.139.292L90.839,287.83a9.8,9.8,0,0,1-11.064-8.039l-4.894-27.9a28.882,28.882,0,0,0-15.008-20.656L34.855,217.964a9.8,9.8,0,0,1-4.227-13.007l12.438-25.445a28.885,28.885,0,0,0,0-25.532L30.628,128.535a9.8,9.8,0,0,1,4.227-13.007l25.018-13.275A28.885,28.885,0,0,0,74.881,81.6l4.893-27.9a9.8,9.8,0,0,1,11.065-8.039l28.043,3.967a28.885,28.885,0,0,0,24.283-7.89L163.52,22.048a9.8,9.8,0,0,1,13.676,0l20.355,19.692a28.881,28.881,0,0,0,24.283,7.89l28.043-3.967A9.8,9.8,0,0,1,260.942,53.7l4.893,27.9a28.883,28.883,0,0,0,15.008,20.656l25.018,13.275a9.8,9.8,0,0,1,4.227,13.007L297.649,153.98a28.885,28.885,0,0,0,0,25.532l12.438,25.444A9.8,9.8,0,0,1,305.862,217.964Z" transform="translate(-10.359 .002)" fill="#fac5cb"/></g></g><g id="Сгруппировать_369" data-name="Сгруппировать 369" transform="translate(97.27 93.658)"><g id="Сгруппировать_368" data-name="Сгруппировать 368"><path id="Контур_150" data-name="Контур 150" d="M287.15,146.608a9.617,9.617,0,0,0-13.6,0L146.608,273.55a9.617,9.617,0,1,0,13.6,13.6L287.15,160.21A9.616,9.616,0,0,0,287.15,146.608Z" transform="translate(-143.792 -143.792)" fill="#fac5cb"/></g></g><g id="Сгруппировать_371" data-name="Сгруппировать 371" transform="translate(96.626 80.191)"><g id="Сгруппировать_370" data-name="Сгруппировать 370"><path id="Контур_151" data-name="Контур 151" d="M178.066,123.116a35.264,35.264,0,1,0,35.264,35.264A35.3,35.3,0,0,0,178.066,123.116Zm0,51.292a16.029,16.029,0,1,1,16.029-16.029A16.047,16.047,0,0,1,178.066,174.408Z" transform="translate(-142.802 -123.116)" fill="#fac5cb"/></g></g><g id="Сгруппировать_373" data-name="Сгруппировать 373" transform="translate(173.564 182.775)"><g id="Сгруппировать_372" data-name="Сгруппировать 372"><path id="Контур_152" data-name="Контур 152" d="M296.186,280.61a35.264,35.264,0,1,0,35.264,35.264A35.3,35.3,0,0,0,296.186,280.61Zm0,51.292a16.028,16.028,0,1,1,16.028-16.028A16.047,16.047,0,0,1,296.186,331.9Z" transform="translate(-260.922 -280.61)" fill="#fac5cb"/></g></g></g></g></svg>