<svg xmlns="http://www.w3.org/2000/svg" width="1200" height="268" viewBox="0 0 1200 268"><defs><clipPath id="clip-path"><rect id="Прямоугольник_308" data-name="Прямоугольник 308" width="1200" height="268" rx="4" transform="translate(360 2283)" fill="#ffdde1"/></clipPath></defs><g id="Группа_масок_52" data-name="Группа масок 52" transform="translate(-360 -2283)" clip-path="url(#clip-path)"><g id="sell_black_24dp" transform="translate(1320 2351)"><g id="Сгруппировать_711" data-name="Сгруппировать 711"><path id="Контур_198" data-name="Контур 198" d="M0,0H320V320H0Z" fill="none"/></g><g id="Сгруппировать_713" data-name="Сгруппировать 713" transform="translate(26.667 26.667)"><g id="Сгруппировать_712" data-name="Сгруппировать 712" fill="#cfe3fb"><path id="Контур_199" data-name="Контур 199" d="M260.8,127.467,143.067,9.733A26.64,26.64,0,0,0,124.267,2h-95.6A26.745,26.745,0,0,0,2,28.667v95.6a26.214,26.214,0,0,0,7.867,18.8L127.6,260.8a26.717,26.717,0,0,0,37.733,0l95.6-95.6A26.6,26.6,0,0,0,260.8,127.467ZM146.4,242,28.667,124.267v-95.6h95.6L242,146.4Z" transform="translate(-2 -2)"/><circle id="Эллипс_11" data-name="Эллипс 11" cx="20" cy="20" r="20" transform="translate(40 40)"/></g></g></g></g></svg>