<svg xmlns="http://www.w3.org/2000/svg" width="1200" height="268" viewBox="0 0 1200 268"><defs><clipPath id="clip-path"><rect id="Прямоугольник_308" data-name="Прямоугольник 308" width="1200" height="268" rx="4" transform="translate(360 2283)" fill="#ffdde1"/></clipPath></defs><g id="Группа_масок_52" data-name="Группа масок 52" transform="translate(-360 -2283)" clip-path="url(#clip-path)"><g id="review" transform="translate(1320 2362.635)" fill="#fac5cb"><path id="Контур_178" data-name="Контур 178" d="M299.663,121.113H250.342V26.672A26.2,26.2,0,0,0,224.17.5h-198A26.2,26.2,0,0,0,0,26.672V171.064a26.2,26.2,0,0,0,26.172,26.172H45.413l13.965,55.85A9.6,9.6,0,0,0,76.1,256.867l49.2-59.631H151.05V235a20.359,20.359,0,0,0,20.337,20.337H236.1l30.859,37.4a9.6,9.6,0,0,0,16.721-3.782l8.406-33.623h7.573A20.361,20.361,0,0,0,320,235V141.45A20.359,20.359,0,0,0,299.663,121.113Zm-178.9,56.921a9.594,9.594,0,0,0-7.4,3.491L73.391,229.973,62.224,185.307a9.6,9.6,0,0,0-9.314-7.273H26.172a6.977,6.977,0,0,1-6.968-6.97V26.672a6.977,6.977,0,0,1,6.968-6.97h198a6.977,6.977,0,0,1,6.968,6.97V171.064a6.977,6.977,0,0,1-6.968,6.97ZM300.8,235a1.134,1.134,0,0,1-1.133,1.133H284.595a9.6,9.6,0,0,0-9.314,7.273l-5.613,22.439-21.631-26.221a9.606,9.606,0,0,0-7.4-3.491H171.387A1.136,1.136,0,0,1,170.251,235V197.236H224.17a26.2,26.2,0,0,0,26.169-26.172v-30.75h49.324a1.134,1.134,0,0,1,1.133,1.135Zm0,0"/><path id="Контур_179" data-name="Контур 179" d="M195.406,176.855a9.584,9.584,0,0,1-4.468-1.1L164.7,161.958l-26.24,13.794A9.6,9.6,0,0,1,124.53,165.63l5.012-29.219-21.23-20.691a9.6,9.6,0,0,1,5.322-16.377l29.336-4.263L156.09,68.5a9.6,9.6,0,0,1,17.219,0l13.12,26.584,29.336,4.263a9.6,9.6,0,0,1,5.322,16.377L199.86,136.411l5.01,29.219a9.6,9.6,0,0,1-9.463,11.226Zm-59.758-61.306,10.911,10.637a9.6,9.6,0,0,1,2.761,8.5L146.744,149.7l13.489-7.09a9.591,9.591,0,0,1,8.936,0l13.486,7.09-2.576-15.017a9.6,9.6,0,0,1,2.761-8.5l10.911-10.637-15.078-2.192a9.594,9.594,0,0,1-7.229-5.251L164.7,94.441l-6.743,13.665a9.606,9.606,0,0,1-7.231,5.251Zm0,0" transform="translate(-39.53 -23.492)"/></g></g></svg>