<svg xmlns="http://www.w3.org/2000/svg" width="1200" height="268" viewBox="0 0 1200 268"><defs><clipPath id="clip-path"><rect id="Прямоугольник_308" data-name="Прямоугольник 308" width="1200" height="268" rx="4" transform="translate(360 2283)" fill="#ffdde1"/></clipPath></defs><g id="Группа_масок_52" data-name="Группа масок 52" transform="translate(-360 -2283)" clip-path="url(#clip-path)"><g id="headset_mic_black_24dp" transform="translate(1320 2351)"><path id="Контур_350" data-name="Контур 350" d="M0,0H320V320H0Z" fill="none"/><path id="Контур_351" data-name="Контур 351" d="M216.333,174.333v53.333H189.667V174.333h26.667m-160,0v53.333H43a13.373,13.373,0,0,1-13.333-13.333v-40H56.333M123,1A120.01,120.01,0,0,0,3,121v93.333a39.946,39.946,0,0,0,40,40H83V147.667H29.667V121a93.333,93.333,0,0,1,186.667,0v26.667H163V254.333h53.333v13.333H123v26.667h80a39.946,39.946,0,0,0,40-40V121A120.01,120.01,0,0,0,123,1Z" transform="translate(37 12.333)" fill="#cfe3fb"/></g></g></svg>