<svg xmlns="http://www.w3.org/2000/svg" width="1200" height="268" viewBox="0 0 1200 268"><defs><clipPath id="clip-path"><rect id="Прямоугольник_308" data-name="Прямоугольник 308" width="1200" height="268" rx="4" transform="translate(360 2283)" fill="#ffdde1"/></clipPath></defs><g id="Группа_масок_52" data-name="Группа масок 52" transform="translate(-360 -2283)" clip-path="url(#clip-path)"><g id="contact_support_black_24dp" transform="translate(1317 2322)"><path id="Контур_211" data-name="Контур 211" d="M0,0H320V320H0Z" fill="none"/><path id="Контур_212" data-name="Контур 212" d="M122,302.2v-48A126.687,126.687,0,1,1,255.333,127.667c0,66-45.867,132.4-114.267,165.333Zm6.667-274.533a100,100,0,0,0,0,200h20v30.667c48.533-30.667,80-81.067,80-130.667A100.036,100.036,0,0,0,128.667,27.667ZM115.333,181H142v26.667H115.333ZM142,161H115.333c0-43.333,40-40,40-66.667a26.667,26.667,0,1,0-53.333,0H75.333a53.333,53.333,0,1,1,106.667,0C182,127.667,142,131,142,161Z" transform="translate(24.667 12.333)" fill="#fac5cb"/></g></g></svg>