<svg xmlns="http://www.w3.org/2000/svg" width="28" height="16" viewBox="0 0 28 16"><path d="M28.67,7.835c.192-.625,0-1.085-.925-1.085H24.683a1.314,1.314,0,0,0-1.331.835,24.468,24.468,0,0,1-3.763,6.025c-.712.685-1.04.9-1.429.9-.192,0-.489-.22-.489-.845V7.835c0-.75-.218-1.085-.863-1.085H11.995a.727.727,0,0,0-.78.675c0,.71,1.1.875,1.216,2.875v4.34c0,.95-.177,1.125-.567,1.125-1.04,0-3.566-3.67-5.063-7.87C6.5,7.08,6.2,6.75,5.419,6.75H2.358c-.873,0-1.05.395-1.05.835,0,.78,1.04,4.655,4.839,9.775,2.531,3.495,6.1,5.39,9.341,5.39,1.949,0,2.188-.42,2.188-1.145,0-3.34-.177-3.655.8-3.655.452,0,1.232.22,3.051,1.9,2.079,2,2.422,2.9,3.587,2.9h3.062c.873,0,1.315-.42,1.06-1.25-.582-1.745-4.517-5.335-4.694-5.575-.452-.56-.322-.81,0-1.31.005,0,3.743-5.065,4.127-6.78Z" transform="translate(-1.308 -6.75)"/></svg>