<svg xmlns="http://www.w3.org/2000/svg" width="80" height="80" viewBox="0 0 80 80"><g id="Сгруппировать_1066" data-name="Сгруппировать 1066" transform="translate(-1021 -1403)"><path id="Прямоугольник_694" data-name="Прямоугольник 694" transform="translate(1021 1403)" fill="none" d="M0 0H80V80H0z"/><g id="mastercard" transform="translate(1025.999 1421.75)"><path id="Path_1140" data-name="Path 1140" d="M243.527,121.425a20.968,20.968,0,0,1-41.93,0h0a20.968,20.968,0,0,1,41.93,0Z" transform="translate(-173.535 -100.8)" fill="#f7981d"/><path id="Path_1141" data-name="Path 1141" d="M222.566,100.8a20.848,20.848,0,0,1,20.967,20.625h0a20.968,20.968,0,0,1-41.93,0" transform="translate(-173.533 -100.8)" fill="#f7981d"/><path id="Path_1143" data-name="Path 1143" d="M20.775,100.8A20.626,20.626,0,1,0,21,142.046a21.406,21.406,0,0,0,14.086-5.35h0a19.745,19.745,0,0,0,2.107-2.182H32.866a25.192,25.192,0,0,1-1.553-2.072h7.431a13.91,13.91,0,0,0,1.22-2.182H30.092a12.878,12.878,0,0,1-.887-2.182H40.739a21.344,21.344,0,0,0,1.11-6.547,27.718,27.718,0,0,0-.444-4.364H28.54a15.737,15.737,0,0,1,.555-2.182H40.629a12.882,12.882,0,0,0-.887-2.182H29.987a21.533,21.533,0,0,1,1.22-2.182h7.431a10.4,10.4,0,0,0-1.663-2.182H32.866a18.755,18.755,0,0,1,2.107-2.072,20.657,20.657,0,0,0-14.086-5.346C20.886,100.8,20.886,100.8,20.775,100.8Z" transform="translate(.081 -100.8)" fill="#e52836"/><path id="Path_1144" data-name="Path 1144" d="M0,122.8a20.435,20.435,0,0,0,6.135,14.59,21.123,21.123,0,0,0,14.832,6.035,21.406,21.406,0,0,0,14.086-5.346h0A19.747,19.747,0,0,0,37.16,135.9H32.831a25.2,25.2,0,0,1-1.553-2.072h7.431a13.909,13.909,0,0,0,1.22-2.182H30.057a12.879,12.879,0,0,1-.887-2.182H40.7a21.344,21.344,0,0,0,1.11-6.547,27.719,27.719,0,0,0-.444-4.364H28.505a15.741,15.741,0,0,1,.555-2.182H40.595a12.879,12.879,0,0,0-.887-2.182H29.953a21.532,21.532,0,0,1,1.22-2.182H38.6a10.4,10.4,0,0,0-1.663-2.182H32.831a18.754,18.754,0,0,1,2.107-2.072,20.657,20.657,0,0,0-14.086-5.346H20.74" transform="translate(.116 -102.179)" fill="#e52836"/><g id="Group_1540" data-name="Group 1540" transform="translate(2.112 15.277)" fill="#fff"><path id="Path_1146" data-name="Path 1146" d="M184.821,229.6l.332-1.855a4.879,4.879,0,0,1-.555.109c-.776,0-.887-.436-.776-.655l.666-3.819h1.219l.332-2.072h-1.11l.223-1.309h-2.218s-1.331,7.2-1.331,8.073a1.62,1.62,0,0,0,.437,1.344,1.68,1.68,0,0,0,1.337.511A3.45,3.45,0,0,0,184.821,229.6Z" transform="translate(-158.424 -219.019)"/><path id="Path_1147" data-name="Path 1147" d="M210.406,233.622a3.436,3.436,0,0,0,1.013,2.823,3.562,3.562,0,0,0,2.869,1,5.847,5.847,0,0,0,2.329-.327l.444-2.072a6.741,6.741,0,0,1-2.329.546c-2.44,0-2-1.745-2-1.745h4.547a13.922,13.922,0,0,0,.332-1.964,2.929,2.929,0,0,0-.872-2.306,3.034,3.034,0,0,0-2.344-.858C212.069,228.494,210.406,230.894,210.406,233.622Zm3.882-3.164c1.22,0,1,1.418,1,1.528h-2.44C212.846,231.877,213.068,230.458,214.288,230.458Z" transform="translate(-183.232 -226.531)"/><path id="Path_1148" data-name="Path 1148" d="M302.1,223.383l.444-2.4a5.518,5.518,0,0,1-1.885.546,2.221,2.221,0,0,1-2.218-2.509c0-2.618,1.331-4.037,2.884-4.037a3.75,3.75,0,0,1,2,.655l.332-2.291a7.909,7.909,0,0,0-2.552-.546c-2.552,0-5.1,2.182-5.1,6.328,0,2.728,1.331,4.582,3.994,4.582a10.1,10.1,0,0,0,2.107-.328Z" transform="translate(-256.958 -212.801)"/><path id="Path_1149" data-name="Path 1149" d="M90.615,227.207a7.974,7.974,0,0,0-2.662.436l-.332,1.855a6.658,6.658,0,0,1,2.44-.436c.776,0,1.442.109,1.442.763,0,.436-.111.546-.111.546h-1c-1.886,0-3.994.763-3.994,3.273a2.1,2.1,0,0,0,2.107,2.4,3.359,3.359,0,0,0,2.329-.982l-.111.873h2l.887-6a2.564,2.564,0,0,0-.837-2.065,2.657,2.657,0,0,0-2.157-.663Zm.444,4.911c0,.327-.223,2.072-1.553,2.072a.873.873,0,0,1-.634-.249.845.845,0,0,1-.253-.624c0-.546.332-1.309,2-1.309a1.774,1.774,0,0,0,.444.109Z" transform="translate(-76.417 -225.245)"/><path id="Path_1150" data-name="Path 1150" d="M137.751,235.347a2.876,2.876,0,0,0,2.348-.642,2.776,2.776,0,0,0,.98-2.2c0-2.728-2.661-2.182-2.661-3.273,0-.546.444-.763,1.219-.763.332,0,1.553.109,1.553.109l.332-1.964a8.562,8.562,0,0,0-2.107-.219c-1.663,0-3.328.655-3.328,2.837,0,2.51,2.773,2.291,2.773,3.273,0,.655-.776.763-1.331.763a7.366,7.366,0,0,1-2-.327l-.332,1.964C135.311,235.129,135.866,235.347,137.751,235.347Z" transform="translate(-118.452 -224.548)"/><path id="Path_1151" data-name="Path 1151" d="M433.522,214.4l-.444,2.946a3.091,3.091,0,0,0-2.108-1.092c-2,0-3.771,2.4-3.771,5.238,0,1.745.887,3.6,2.773,3.6a2.986,2.986,0,0,0,2.107-.873l-.111.763h2.222l1.663-10.474Zm-1,5.782c0,1.2-.555,2.728-1.774,2.728-.776,0-1.219-.655-1.219-1.745,0-1.745.776-2.837,1.774-2.837.776,0,1.221.546,1.221,1.855Z" transform="translate(-369.969 -214.183)"/><path id="Path_1152" data-name="Path 1152" d="M16.507,224.874l1.331-7.857.223,7.857h1.553l2.884-7.857-1.22,7.857h2.329L25.383,214.4H21.72L19.5,220.837l-.11-6.437H16.174L14.4,224.874Z" transform="translate(-14.4 -214.184)"/><path id="Path_1153" data-name="Path 1153" d="M262.44,237.31c.666-3.6.776-6.547,2.329-6a8.458,8.458,0,0,1,.776-2.51H265.1c-1,0-1.774,1.309-1.774,1.309l.223-1.2h-2.107L260,237.419h2.44Z" transform="translate(-225.949 -226.62)"/><path id="Path_1154" data-name="Path 1154" d="M350.615,227.209a7.973,7.973,0,0,0-2.662.436l-.332,1.855a6.657,6.657,0,0,1,2.44-.436c.776,0,1.442.109,1.442.763,0,.436-.111.546-.111.546h-1c-1.886,0-3.994.763-3.994,3.273a2.1,2.1,0,0,0,2.107,2.4,3.36,3.36,0,0,0,2.329-.982l-.111.873h2l.887-6a2.526,2.526,0,0,0-.821-2.081A2.619,2.619,0,0,0,350.615,227.209Zm.555,4.911c0,.327-.223,2.072-1.553,2.072a.874.874,0,0,1-.634-.249.844.844,0,0,1-.253-.624c0-.546.332-1.309,2-1.309.332.109.332.109.444.109Z" transform="translate(-300.371 -225.247)"/><path id="Path_1155" data-name="Path 1155" d="M396.84,237.31c.666-3.6.776-6.547,2.329-6a8.463,8.463,0,0,1,.776-2.51H399.5c-1,0-1.774,1.309-1.774,1.309l.223-1.2h-2.108l-1.442,8.51h2.44Z" transform="translate(-341.716 -226.62)"/></g></g></g></svg>