<svg xmlns="http://www.w3.org/2000/svg" width="80" height="80" viewBox="0 0 80 80"><defs><linearGradient id="linear-gradient" y1=".5" x2="1" y2=".5" gradientUnits="objectBoundingBox"><stop offset=".3" stop-color="#00b4e6"/><stop offset="1" stop-color="#088ccb"/></linearGradient></defs><g id="Сгруппировать_1068" data-name="Сгруппировать 1068" transform="translate(-1174 -1403)"><path id="Прямоугольник_696" data-name="Прямоугольник 696" transform="translate(1174 1403)" fill="none" d="M0 0H80V80H0z"/><g id="Мир" transform="translate(1179 1433)"><g id="g5"><path id="path7" d="M18.863,0V.009A3.66,3.66,0,0,0,15.4,2.629c-.666,2.41-2.544,9.065-2.6,9.249h-.519s-1.918-6.8-2.6-9.258A3.667,3.667,0,0,0,6.233,0H0V20H6.233V8.122h.519L10.386,20H14.71L18.344,8.13h.519V20H25.1V0Z" fill="#4db45e" fill-rule="evenodd"/></g><g id="g9" transform="translate(27.775)"><path id="path11" d="M334.845,0a3.5,3.5,0,0,0-2.685,2.1l-4.411,9.781h-.516V0H321V20h5.884a3.6,3.6,0,0,0,2.769-2.1l4.327-9.781h.519V20h6.233V0Z" transform="translate(-321)" fill="#4db45e" fill-rule="evenodd"/></g><g id="g13" transform="translate(50.272 9.082)"><path id="path15" d="M581,104v10.917h6.233v-6.375h6.749A6.744,6.744,0,0,0,600.338,104Z" transform="translate(-581 -104)" fill="#4db45e" fill-rule="evenodd"/></g><g id="g17" transform="translate(49.398)"><path id="path24" d="M584.753,0H570.9a10.009,10.009,0,0,0,7.182,7.86h0a9.867,9.867,0,0,0,2.6.349h10.677a6.776,6.776,0,0,0,.138-1.4A6.779,6.779,0,0,0,584.753,0Z" transform="translate(-570.9)" fill-rule="evenodd" fill="url(#linear-gradient)"/></g></g></g></svg>