<svg xmlns="http://www.w3.org/2000/svg" width="80" height="80" viewBox="0 0 80 80"><g id="Сгруппировать_1067" data-name="Сгруппировать 1067" transform="translate(-1093 -1403)"><path id="Прямоугольник_695" data-name="Прямоугольник 695" transform="translate(1093 1403)" fill="none" d="M0 0H80V80H0z"/><g id="visa" transform="translate(1111.75 1421.75)"><circle id="Ellipse_37" data-name="Ellipse 37" cx="21.25" cy="21.25" r="21.25" transform="translate(0 .001)" fill="#f3f2f2"/><g id="Group_1548" data-name="Group 1548" transform="translate(7.062 15.571)" fill="#293688"><path id="Path_1191" data-name="Path 1191" d="M175.483,184.974l1.627-9.6h2.633l-1.627,9.6Z" transform="translate(-166.809 -175.218)"/><path id="Path_1192" data-name="Path 1192" d="M229.14,174.05a6.839,6.839,0,0,0-2.36-.4c-2.6,0-4.435,1.3-4.451,3.17-.014,1.379,1.3,2.149,2.314,2.6,1.025.47,1.369.771,1.365,1.191,0,.644-.818.938-1.576.938a5.556,5.556,0,0,1-2.478-.5l-.34-.153-.37,2.15a8.374,8.374,0,0,0,2.934.512c2.768,0,4.565-1.287,4.585-3.281.01-1.092-.691-1.923-2.211-2.6-.921-.444-1.484-.74-1.478-1.19,0-.4.477-.826,1.508-.826a4.881,4.881,0,0,1,1.971.367l.236.111.357-2.081Z" transform="translate(-208.462 -173.647)"/><path id="Path_1193" data-name="Path 1193" d="M305.955,175.376a1.3,1.3,0,0,0-1.363.818l-3.9,8.784h2.788l.542-1.472h3.326l.309,1.472h2.478l-2.169-9.6h-2.007Zm-1.2,6.209c.217-.552,1.048-2.684,1.048-2.684-.014.025.217-.555.35-.915l.178.827.609,2.772h-2.188Z" transform="translate(-280.788 -175.221)"/><path id="Path_1194" data-name="Path 1194" d="M82.614,181.955l-.231-1.316a7.5,7.5,0,0,0-3.642-4.027l2.327,8.363h2.788l4.182-9.6H85.247Z" transform="translate(-78.74 -175.218)"/></g><g id="Group_1549" data-name="Group 1549" transform="translate(2.399 15.718)" fill="#f7981d"><path id="Path_1195" data-name="Path 1195" d="M46.823,175.376v.155a8.99,8.99,0,0,1,6.507,5.11l-.954-4.446a1.132,1.132,0,0,0-1.213-.82Z" transform="translate(-45.024 -175.367)"/><path id="Path_1196" data-name="Path 1196" d="M45.55,357.688A21.244,21.244,0,0,0,64.409,346.23l-37.709,0a21.243,21.243,0,0,0,18.85,11.454Z" transform="translate(-26.7 -330.904)"/></g><path id="Path_1197" data-name="Path 1197" d="M47.239,0A21.246,21.246,0,0,0,28.548,11.134H65.929A21.256,21.256,0,0,0,47.239,0Z" transform="translate(-25.989)" fill="#293688"/></g></g></svg>