<svg xmlns="http://www.w3.org/2000/svg" width="105.833" height="40" viewBox="0 0 105.833 40"><g id="Сгруппировать_97" data-name="Сгруппировать 97"><path id="Прямоугольник_108" data-name="Прямоугольник 108" fill="none" d="M0 0H105.833V40H0z"/><g id="Сгруппировать_94" data-name="Сгруппировать 94"><g id="LOGO"><g id="_Группа_" data-name="&lt;Группа&gt;"><path id="_Составной_контур_" data-name="&lt;Составной контур&gt;" d="M106.264,117.431l-6.073,13.464H95.76l6.671-14.4c-3.136-1.572-5.227-4.423-5.227-9.68,0-7.371,4.729-11.056,10.354-11.056h5.725v35.135h-3.833V117.431Zm3.186-18.477h-2.041c-3.086,0-6.073,2.015-6.073,7.862,0,5.651,2.738,7.469,6.073,7.469h2.041Z" transform="translate(-95.76 -95.76)" fill="red"/><path id="_Составной_контур_2" data-name="&lt;Составной контур&gt;" d="M183.365,129.554V154.32h-3.833V143.215h-5.775V154.32h-3.883V129.554h3.883V140.07h5.775V129.554Zm19.962,29.632h-3.485V154.32H189.09v4.865h-3.485v-8.01h1.543c2.29-5.258,2.539-12.924,2.539-19.509v-2.113h11.649v21.622h1.991ZM197.5,132.65h-4.331v.442c0,5.209-.249,12.826-2.34,18.084H197.5Zm16.527,22.014c-5.177,0-8.363-4.078-8.363-11.695,0-7.961,2.24-13.759,7.567-13.759,4.182,0,6.919,3.1,6.919,11.5v2.113H209.7c0,5.6,1.593,8.55,4.679,8.55a8.77,8.77,0,0,0,4.928-1.671l.9,2.948a9.965,9.965,0,0,1-6.173,2.015Zm-4.281-14.988h6.422c0-4.226-.7-7.322-2.937-7.322C210.844,132.355,210,135.254,209.749,139.677Zm18.27,2.31V154.32h-3.883V129.554h3.883V141l6.023-11.45h3.933L231.752,141.2l7.118,13.12h-4.231Zm11.35-.049c0-7.764,3.037-12.727,8.911-12.727a7.97,7.97,0,0,1,4.629,1.278l-.548,3.636a6.688,6.688,0,0,0-4.132-1.72c-2.788,0-4.779,3.1-4.779,9.337,0,6.192,1.493,9.73,4.629,9.73a6.39,6.39,0,0,0,4.231-1.523l.9,2.85a7.655,7.655,0,0,1-5.227,1.867c-5.376,0-8.612-4.275-8.612-12.727Z" transform="translate(-147.374 -119.185)"/></g></g></g></g></svg>