<svg xmlns="http://www.w3.org/2000/svg" width="320" height="633.973" viewBox="0 0 320 633.973"><g id="Сгруппировать_2071" data-name="Сгруппировать 2071" transform="translate(-1264 -1074.547)"><g id="Сгруппировать_355" data-name="Сгруппировать 355" transform="translate(-42.001 1128.177)" fill="none" stroke="#4eafff" stroke-miterlimit="10" stroke-width="2"><path id="Контур_66" data-name="Контур 66" d="M309.831,596.513a11.722,11.722,0,0,1-9.007-3.771,12.494,12.494,0,0,1-3.5-8.8V293.706a12.029,12.029,0,0,1,12.512-12.567H519.759a12.029,12.029,0,0,1,12.514,12.567v50.263a13.162,13.162,0,0,1-3.5,9.3,11.757,11.757,0,0,1-9.009,3.769H391.772a4.374,4.374,0,0,0-4.364,4.385V583.946a12.076,12.076,0,0,1-3.754,8.8,12.558,12.558,0,0,1-9.261,3.771Z" transform="translate(1009.682 -333.77)" opacity=".2"/><path id="Контур_67" data-name="Контур 67" d="M510.356,439.368a10.335,10.335,0,0,1,9.025,5.305l20.261,36.285,10.838,19.411a5.165,5.165,0,0,0,9.042-.032l99.87-181.72a61.018,61.018,0,0,1,6.225-8.026q4.448-5.044,14.53-5.054h51.162a15.479,15.479,0,0,1,10.967,4.161,14.015,14.015,0,0,1,4.449,10.7V663.776a14.274,14.274,0,0,1-4.449,10.406,14.887,14.887,0,0,1-10.967,4.459h-58.28a14.872,14.872,0,0,1-10.967-4.459,14.272,14.272,0,0,1-4.447-10.406V504.967a5.17,5.17,0,0,0-9.752-2.411L591.2,610.792a35.471,35.471,0,0,1-7.707,9.515q-4.755,4.166-13.047,4.163H539.609q-8.31,0-13.044-4.163a35.166,35.166,0,0,1-7.712-9.515l-67-124.28-3.434-5.654-15.55-25.742a10.373,10.373,0,0,1,8.847-15.748Z" transform="translate(878.276 -99.299)" opacity=".2"/></g></g></svg>