<svg xmlns="http://www.w3.org/2000/svg" width="120.833" height="40" viewBox="0 0 120.833 40"><g id="Сгруппировать_96" data-name="Сгруппировать 96"><path id="Прямоугольник_108" data-name="Прямоугольник 108" fill="none" d="M0 0H120.833V40H0z"/><g id="Google-Logo.wine"><path id="Контур_81" data-name="Контур 81" d="M90.832,34.525a9.971,9.971,0,1,1-9.971-10A9.844,9.844,0,0,1,90.832,34.525Zm-4.365,0a5.623,5.623,0,1,0-11.212,0,5.623,5.623,0,1,0,11.212,0Z" transform="translate(-39.122 -13.475)" fill="#ea4335"/><path id="Контур_82" data-name="Контур 82" d="M138.832,34.525a9.971,9.971,0,1,1-9.971-10A9.844,9.844,0,0,1,138.832,34.525Zm-4.365,0a5.623,5.623,0,1,0-11.212,0,5.623,5.623,0,1,0,11.212,0Z" transform="translate(-65.612 -13.475)" fill="#fbbc05"/><path id="Контур_83" data-name="Контур 83" d="M185.924,25.134V43.079c0,7.382-4.329,10.4-9.447,10.4a9.467,9.467,0,0,1-8.81-5.89l3.8-1.591a5.493,5.493,0,0,0,5.006,3.547c3.276,0,5.306-2.032,5.306-5.858V42.245h-.152a6.751,6.751,0,0,1-5.234,2.271,10,10,0,0,1,0-19.986,6.871,6.871,0,0,1,5.234,2.235h.152V25.138h4.145Zm-3.836,9.428c0-3.52-2.335-6.093-5.306-6.093-3.011,0-5.534,2.573-5.534,6.093a5.723,5.723,0,0,0,5.534,6.021C179.754,40.582,182.088,38.045,182.088,34.562Z" transform="translate(-92.091 -13.475)" fill="#4285f4"/><path id="Контур_84" data-name="Контур 84" d="M219.4,2.53V31.822H215.14V2.53Z" transform="translate(-118.73 -1.39)" fill="#34a853"/><path id="Контур_85" data-name="Контур 85" d="M243.487,37.81l3.388,2.271a9.882,9.882,0,0,1-8.281,4.43,9.753,9.753,0,0,1-9.863-10c0-5.944,4.253-10,9.375-10,5.158,0,7.681,4.128,8.505,6.359l.453,1.136-13.287,5.534a5.056,5.056,0,0,0,4.817,3.028,5.666,5.666,0,0,0,4.894-2.767Zm-10.428-3.6,8.882-3.709a3.845,3.845,0,0,0-3.688-2.118A5.469,5.469,0,0,0,233.059,34.214Z" transform="translate(-126.23 -13.47)" fill="#ea4335"/><path id="Контур_86" data-name="Контур 86" d="M15.653,18.45V14.209h14.21a14.128,14.128,0,0,1,.211,2.56,14.051,14.051,0,0,1-3.652,9.919,14.073,14.073,0,0,1-10.764,4.353A15.693,15.693,0,0,1,0,15.521,15.693,15.693,0,0,1,15.658,0,14.664,14.664,0,0,1,26.233,4.277L23.258,7.269a10.718,10.718,0,0,0-7.6-3.028A11.1,11.1,0,0,0,4.584,15.521,11.1,11.1,0,0,0,15.653,26.8,10.3,10.3,0,0,0,23.446,23.7a8.813,8.813,0,0,0,2.285-5.25Z" fill="#4285f4"/></g></g></svg>