<svg xmlns="http://www.w3.org/2000/svg" width="290" height="482.932" viewBox="0 0 290 482.932"><g id="Сгруппировать_2069" data-name="Сгруппировать 2069" transform="translate(-1302 9.967)"><g id="Сгруппировать_2070" data-name="Сгруппировать 2070"><g id="Сгруппировать_355" data-name="Сгруппировать 355" transform="translate(0 16.664)" fill="none" stroke="#4eafff" stroke-miterlimit="10" stroke-width="2"><path id="Контур_66" data-name="Контур 66" d="M306.84,521.139a8.92,8.92,0,0,1-6.855-2.87,9.508,9.508,0,0,1-2.667-6.694V290.7a9.154,9.154,0,0,1,9.521-9.563H466.6a9.154,9.154,0,0,1,9.523,9.563v38.25a10.016,10.016,0,0,1-2.667,7.077A8.947,8.947,0,0,1,466.6,338.9H369.2a3.329,3.329,0,0,0-3.321,3.337V511.576a9.19,9.19,0,0,1-2.857,6.694,9.557,9.557,0,0,1-7.047,2.87Z" transform="translate(1020.682 -306.77)" opacity=".2"/><path id="Контур_67" data-name="Контур 67" d="M491.474,407.383a7.865,7.865,0,0,1,6.868,4.037l15.418,27.613,8.248,14.772a3.93,3.93,0,0,0,6.881-.024l76-138.289a46.429,46.429,0,0,1,4.738-6.108q3.385-3.839,11.058-3.846h38.934a11.78,11.78,0,0,1,8.346,3.167,10.666,10.666,0,0,1,3.386,8.146V578.158a10.863,10.863,0,0,1-3.386,7.919,11.329,11.329,0,0,1-8.346,3.393H615.267a11.317,11.317,0,0,1-8.346-3.393,10.861,10.861,0,0,1-3.384-7.919V457.3a3.935,3.935,0,0,0-7.421-1.835l-43.122,82.368a26.993,26.993,0,0,1-5.865,7.241q-3.619,3.17-9.928,3.168H513.735q-6.324,0-9.927-3.168a26.762,26.762,0,0,1-5.869-7.241L446.95,443.26l-2.613-4.3L432.5,419.367a7.894,7.894,0,0,1,6.732-11.984Z" transform="translate(888.648 -134.168)" opacity=".2"/></g></g><g id="Сгруппировать_2068" data-name="Сгруппировать 2068" fill="#fc566a"><rect id="Прямоугольник_287" data-name="Прямоугольник 287" width="64" height="8" rx="2" transform="translate(1353 182)"/><rect id="Прямоугольник_288" data-name="Прямоугольник 288" width="64" height="8" rx="2" transform="translate(1528 257)"/><rect id="Прямоугольник_289" data-name="Прямоугольник 289" width="64" height="8" rx="2" transform="translate(1302 331)"/></g></g></svg>