<svg xmlns="http://www.w3.org/2000/svg" width="176" height="32" viewBox="0 0 176 32">
  <g id="Сгруппировать_2073" data-name="Сгруппировать 2073" transform="translate(-1189 -3827)">
    <rect id="Прямоугольник_108" data-name="Прямоугольник 108" width="176" height="32" transform="translate(1189 3827)" fill="none"/>
    <g id="Сгруппировать_99" data-name="Сгруппировать 99" transform="translate(1189 3827)">
      <path id="Контур_91" data-name="Контур 91" d="M0,15.5C0,8.193,0,4.54,2.27,2.27S8.193,0,15.5,0h1c7.307,0,10.96,0,13.23,2.27S32,8.193,32,15.5v1c0,7.307,0,10.96-2.27,13.23S23.807,32,16.5,32h-1C8.193,32,4.54,32,2.27,29.73S0,23.807,0,16.5Z" transform="translate(0)" fill="#2787f5"/>
      <path id="Контур_92" data-name="Контур 92" d="M26.389,10.88c.152-.507,0-.88-.725-.88h-2.4a1.033,1.033,0,0,0-1.042.677,20.04,20.04,0,0,1-2.944,4.9c-.558.558-.812.736-1.116.736-.153,0-.373-.178-.373-.685V10.88c0-.609-.177-.88-.685-.88H13.348a.578.578,0,0,0-.61.55c0,.578.864.71.953,2.334v3.527c0,.773-.14.913-.445.913-.812,0-2.787-2.981-3.958-6.393C9.058,10.268,8.828,10,8.217,10h-2.4c-.684,0-.821.322-.821.677,0,.634.812,3.78,3.78,7.941C10.76,21.46,13.549,23,16.085,23c1.522,0,1.711-.342,1.711-.931V19.92c0-.684.144-.82.626-.82.356,0,.965.177,2.385,1.547C22.431,22.272,22.7,23,23.612,23h2.4c.685,0,1.027-.342.83-1.017a10.28,10.28,0,0,0-2.02-2.807c-.559-.66-1.4-1.37-1.649-1.725-.355-.456-.254-.66,0-1.065,0,0,2.918-4.11,3.223-5.506Z" transform="translate(-0.003 0)" fill="#fff" fill-rule="evenodd"/>
      <path id="Контур_93" data-name="Контур 93" d="M54.642,15.726a3.113,3.113,0,0,0,1.993-2.964c0-2.21-2.019-3.773-4.928-3.773H45V23h7c3.016,0,5.117-1.643,5.117-3.88a3.517,3.517,0,0,0-2.478-3.395ZM48.1,11.549h3.609a1.638,1.638,0,0,1,1.831,1.536c0,.89-.754,1.509-1.831,1.509H48.1ZM52,20.441H48.1V17.019H52a1.789,1.789,0,0,1,2.019,1.724C54.023,19.767,53.216,20.441,52,20.441ZM68.639,23h4.066l-6.437-7.276,5.9-6.736H68.479L63.79,14.431h-.754V8.99h-3.1V23h3.1V17.423h.755Zm11.972.269c4.39,0,7.488-3.018,7.488-7.275S85,8.719,80.613,8.719s-7.488,3.018-7.488,7.275S76.222,23.269,80.612,23.269Zm0-2.83a4.139,4.139,0,0,1-4.255-4.445,4.26,4.26,0,1,1,8.512,0,4.14,4.14,0,0,1-4.256,4.446Zm19.553-11.45v5.523H93.889V8.989h-3.1V23h3.1V17.342h6.275V23h3.1V8.99ZM110.26,23h3.1V11.82H118.2V8.99H105.412v2.83h4.848ZM125.54,8.72c-2.721,0-5.118,1.4-5.819,3.826l2.856.485a3.078,3.078,0,0,1,2.8-1.67c1.7,0,2.693,1.212,2.828,3.044H125.19c-4.12,0-6.168,1.805-6.168,4.392,0,2.614,2.02,4.473,4.875,4.473a5.169,5.169,0,0,0,4.5-2.479l.646,2.21h2.29V15.133c0-4.069-2.209-6.413-5.791-6.413Zm-.917,11.936c-1.507,0-2.477-.781-2.477-1.994,0-1.077.781-1.832,3.151-1.832h2.936a3.525,3.525,0,0,1-3.61,3.826ZM143.39,23h4.067l-6.437-7.276,5.9-6.736h-3.691l-4.686,5.443h-.754V8.99h-3.1V23h3.1V17.423h.754Zm9.321,0h3.1V11.818h4.848V8.988H147.864v2.83h4.848Zm23.307-7.168a7.273,7.273,0,0,0-14.544.162,7,7,0,0,0,7.272,7.275c2.909,0,5.656-1.374,6.706-4.042l-2.909-.485a4.252,4.252,0,0,1-3.609,1.7,4.011,4.011,0,0,1-4.229-3.61h11.258c.027-.3.054-.62.054-1Zm-7.272-4.419a4,4,0,0,1,3.905,2.991h-7.757a3.919,3.919,0,0,1,3.851-2.99Z" transform="translate(-0.018 0)"/>
    </g>
  </g>
</svg>
