<svg id="work_outline_black_24dp" xmlns="http://www.w3.org/2000/svg" width="64" height="64" viewBox="0 0 64 64"><path id="Контур_233" data-name="Контур 233" d="M0,0H64V64H0Z" fill="none"/><path id="Контур_234" data-name="Контур 234" d="M34,12.667V7.333H23.333v5.333ZM7.333,18V47.333H50V18ZM50,12.667A5.315,5.315,0,0,1,55.333,18V47.333A5.315,5.315,0,0,1,50,52.667H7.333A5.315,5.315,0,0,1,2,47.333L2.027,18a5.292,5.292,0,0,1,5.307-5.333H18V7.333A5.315,5.315,0,0,1,23.333,2H34a5.315,5.315,0,0,1,5.333,5.333v5.333Z" transform="translate(3.333 3.333)" fill="#fc566a"/></svg>