<svg xmlns="http://www.w3.org/2000/svg" width="64" height="64" viewBox="0 0 64 64"><g id="Сгруппировать_1281" data-name="Сгруппировать 1281" transform="translate(-175 -2138)"><path id="Прямоугольник_857" data-name="Прямоугольник 857" transform="translate(175 2138)" fill="none" d="M0 0H64V64H0z"/><g id="send-mail" transform="translate(179 2140.913)" fill="#fc566a"><path id="Контур_318" data-name="Контур 318" d="M47.536,25.689l8.256-24.6L0,20.089,12.853,33,9.637,47.457l14.326-3.3L36.841,57.087l2.95-8.28a12.042,12.042,0,0,0,4.064.7,12.2,12.2,0,0,0,3.681-23.821ZM46.95,7.6,19.533,35.011,6.1,21.517ZM14,43.044l1.616-7.267L21.2,41.384Zm21.482,7.989L21.87,37.358,49.351,9.887,44.238,25.123c-.127,0-.255-.007-.383-.007a12.2,12.2,0,0,0-7.023,22.143Zm8.368-4.843a8.878,8.878,0,1,1,8.84-8.877A8.869,8.869,0,0,1,43.855,46.191Z"/><path id="Контур_319" data-name="Контур 319" d="M389.155,289.63H385.85v6.3l3.926,2.76,1.9-2.72-2.516-1.769Z" transform="translate(-343.648 -256.849)"/></g></g></svg>