<svg xmlns="http://www.w3.org/2000/svg" width="64" height="64" viewBox="0 0 64 64"><g id="Сгруппировать_1284" data-name="Сгруппировать 1284" transform="translate(-1012 -2178)"><path id="Прямоугольник_859" data-name="Прямоугольник 859" transform="translate(1012 2178)" fill="none" d="M0 0H64V64H0z"/><g id="percentage" transform="translate(1002.344 2182)" fill="#fc566a"><path id="Контур_321" data-name="Контур 321" d="M67.181,321.008a7.733,7.733,0,0,0-11.021,0l-4.871,4.925h-2.31a8.1,8.1,0,0,0,1.567-4.8,1.633,1.633,0,0,0-1.623-1.641H43.532a12.644,12.644,0,0,1-5.245-1.663,16.64,16.64,0,0,0-6.093-1.978,16.991,16.991,0,0,0-5.919.653,5.292,5.292,0,0,0-3.75,4.593H17.28a1.633,1.633,0,0,0-1.623,1.641v12.876a1.633,1.633,0,0,0,1.623,1.641H50.432a7.1,7.1,0,0,0,5.084-2.129L67.181,323.33A1.654,1.654,0,0,0,67.181,321.008ZM18.9,324.376h3.6v9.593H18.9ZM53.221,332.8a3.9,3.9,0,0,1-2.788,1.168H25.751V321.56a2,2,0,0,1,1.426-1.906,13.788,13.788,0,0,1,4.8-.531,14.022,14.022,0,0,1,4.921,1.671,15.231,15.231,0,0,0,6.632,1.978h3.481a4.767,4.767,0,0,1-4.134,3.149c-.078-.012-8.467-.02-8.467-.02a1.606,1.606,0,0,0-1.037.378,1.644,1.644,0,0,0,1.015,2.921l17.571.015a1.614,1.614,0,0,0,1.148-.481l5.347-5.406a4.517,4.517,0,0,1,5.071-.948Z" transform="translate(0 -281.252)"/><path id="Контур_322" data-name="Контур 322" d="M149.4,34.279a17.14,17.14,0,1,0-16.952-17.139A17.066,17.066,0,0,0,149.4,34.279Zm0-31A13.857,13.857,0,1,1,135.7,17.139,13.8,13.8,0,0,1,149.4,3.283Z" transform="translate(-104.154)"/><path id="Контур_323" data-name="Контур 323" d="M227.485,98.358a2.11,2.11,0,1,0-2.087-2.11A2.123,2.123,0,0,0,227.485,98.358Z" transform="translate(-187.038 -83.837)"/><path id="Контур_324" data-name="Контур 324" d="M314.169,184.048a2.087,2.087,0,1,0,2.087-2.11A2.135,2.135,0,0,0,314.169,184.048Z" transform="translate(-266.202 -162.029)"/><path id="Контур_325" data-name="Контур 325" d="M243.272,82.62a1.6,1.6,0,0,0,.628.128,1.624,1.624,0,0,0,1.5-1.007L252.511,64.6a1.648,1.648,0,0,0-.869-2.149,1.617,1.617,0,0,0-2.125.878L242.4,80.472a1.648,1.648,0,0,0,.869,2.149Z" transform="translate(-202.092 -55.507)"/></g></g></svg>