<svg xmlns="http://www.w3.org/2000/svg" width="64" height="64" viewBox="0 0 64 64"><g id="Сгруппировать_1170" data-name="Сгруппировать 1170" transform="translate(-411 -1657)"><path id="Прямоугольник_763" data-name="Прямоугольник 763" transform="translate(411 1657)" fill="none" d="M0 0H64V64H0z"/><g id="coins" transform="translate(415 1663)"><g id="Сгруппировать_1159" data-name="Сгруппировать 1159" transform="translate(17.5)"><g id="Сгруппировать_1158" data-name="Сгруппировать 1158"><path id="Контур_304" data-name="Контур 304" d="M179.25,16C169.919,16,160,19.037,160,24.667V31.6a1.75,1.75,0,0,0,3.5,0V29.794c3.714,2.319,9.846,3.539,15.75,3.539s12.037-1.22,15.75-3.539V31.6c0,1.7-4.3,4.4-12.4,5.068a1.732,1.732,0,0,0,.144,3.46c.052,0,.1,0,.15-.007,4.557-.378,9.1-1.546,12.1-3.442v1.855c0,1.48-3.171,3.609-9.055,4.638a1.732,1.732,0,0,0,.3,3.439,1.542,1.542,0,0,0,.308-.028A23.523,23.523,0,0,0,195,43.657v1.81c0,1.48-3.171,3.609-9.054,4.638a1.732,1.732,0,0,0,.3,3.439,1.542,1.542,0,0,0,.308-.028A23.59,23.59,0,0,0,195,50.59V52.4c0,1.48-3.171,3.609-9.055,4.638a1.732,1.732,0,0,0,.3,3.439,1.542,1.542,0,0,0,.308-.028A23.589,23.589,0,0,0,195,57.524v1.81c0,1.7-4.305,4.4-12.4,5.068a1.732,1.732,0,0,0,.143,3.46c.053,0,.1,0,.15-.007,7.767-.645,15.6-3.526,15.6-8.521V24.667C198.5,19.037,188.581,16,179.25,16Zm0,13.867c-9.615,0-15.75-3.082-15.75-5.2s6.135-5.2,15.75-5.2S195,22.549,195,24.667,188.865,29.867,179.25,29.867Z" transform="translate(-160 -16)" fill="#fc566a"/></g></g><g id="Сгруппировать_1161" data-name="Сгруппировать 1161" transform="translate(0 20.8)"><g id="Сгруппировать_1160" data-name="Сгруппировать 1160"><path id="Контур_305" data-name="Контур 305" d="M19.25,208C9.919,208,0,211.037,0,216.667v13.867c0,5.63,9.919,8.667,19.25,8.667s19.25-3.037,19.25-8.667V216.667C38.5,211.037,28.581,208,19.25,208ZM35,230.533c0,2.118-6.136,5.2-15.75,5.2s-15.75-3.082-15.75-5.2v-1.806c3.714,2.319,9.846,3.539,15.75,3.539s12.037-1.22,15.75-3.539Zm0-6.933c0,2.118-6.136,5.2-15.75,5.2S3.5,225.718,3.5,223.6v-1.806c3.714,2.319,9.846,3.539,15.75,3.539s12.037-1.22,15.75-3.539Zm-15.75-1.733c-9.615,0-15.75-3.082-15.75-5.2s6.135-5.2,15.75-5.2S35,214.549,35,216.667,28.864,221.867,19.25,221.867Z" transform="translate(0 -208)" fill="#fc566a"/></g></g></g></g></svg>