<svg xmlns="http://www.w3.org/2000/svg" width="64" height="64" viewBox="0 0 64 64"><g id="Сгруппировать_1174" data-name="Сгруппировать 1174" transform="translate(-522 -1748)"><path id="Прямоугольник_765" data-name="Прямоугольник 765" transform="translate(522 1748)" fill="none" d="M0 0H64V64H0z"/><g id="file" transform="translate(526 1752)"><g id="Сгруппировать_1163" data-name="Сгруппировать 1163"><g id="Сгруппировать_1162" data-name="Сгруппировать 1162" fill="#fc566a"><path id="Прямоугольник_759" data-name="Прямоугольник 759" transform="translate(19.534 36.981)" d="M0 0H13.736V4.755H0z"/><path id="Прямоугольник_760" data-name="Прямоугольник 760" transform="translate(19.534 28.528)" d="M0 0H25.358V4.226H0z"/><path id="Контур_306" data-name="Контур 306" d="M49.438,8.75H47.25V6.562A6.57,6.57,0,0,0,40.688,0H6.563A6.57,6.57,0,0,0,0,6.562V40.687A6.57,6.57,0,0,0,6.563,47.25H8.75v2.188A6.57,6.57,0,0,0,15.313,56H40.45L56,40.375V15.312A6.57,6.57,0,0,0,49.438,8.75ZM8.75,15.312V42.875H6.563a2.19,2.19,0,0,1-2.187-2.187V6.562A2.19,2.19,0,0,1,6.563,4.375H40.688a2.19,2.19,0,0,1,2.188,2.187V8.75H15.313A6.57,6.57,0,0,0,8.75,15.312Zm33.019,33.16V43.847a2.19,2.19,0,0,1,2.188-2.187h4.593Zm9.856-11.188H43.957a6.57,6.57,0,0,0-6.562,6.562v7.778H15.313a2.19,2.19,0,0,1-2.187-2.187V15.312a2.19,2.19,0,0,1,2.188-2.187H49.438a2.19,2.19,0,0,1,2.188,2.187Z"/><path id="Прямоугольник_761" data-name="Прямоугольник 761" transform="translate(19.534 19.547)" d="M0 0H25.358V4.755H0z"/></g></g></g></g></svg>