<svg xmlns="http://www.w3.org/2000/svg" width="64" height="64" viewBox="0 0 64 64"><g id="Сгруппировать_1105" data-name="Сгруппировать 1105" transform="translate(-19161 19909)"><path id="Прямоугольник_714" data-name="Прямоугольник 714" transform="translate(19161 -19909)" fill="none" d="M0 0H64V64H0z"/><g id="delivery_1_" data-name="delivery (1)" transform="translate(19165 -19932)"><path id="Контур_287" data-name="Контур 287" d="M54.359,31H14.875a1.637,1.637,0,0,0-1.641,1.633v21.34a9.862,9.862,0,0,0-5.7,3.16H6.672V55.5a1.637,1.637,0,0,0-1.641-1.633H1.641a1.633,1.633,0,1,0,0,3.267h1.75v19.6H1.641a1.633,1.633,0,1,0,0,3.267H5.031a1.637,1.637,0,0,0,1.641-1.633V76.733H8.057C18.52,80.03,18.125,80,18.594,80H41.125a4.907,4.907,0,0,0,4.64-6.533h8.595A1.637,1.637,0,0,0,56,71.833v-39.2A1.637,1.637,0,0,0,54.359,31ZM31.281,34.267h6.563v8.167H31.281ZM42.766,75.1a1.639,1.639,0,0,1-1.641,1.633H18.849c-10.463-3.3-10.068-3.267-10.537-3.267H6.672V60.4H8.312a1.643,1.643,0,0,0,1.32-.664,6.537,6.537,0,0,1,10.484,0,1.643,1.643,0,0,0,1.32.664h8.2a1.633,1.633,0,1,1,0,3.267H19.8A1.637,1.637,0,0,0,18.156,65.3a8.194,8.194,0,0,0,8.2,8.167H41.125A1.639,1.639,0,0,1,42.766,75.1Zm9.953-4.9H26.359a4.929,4.929,0,0,1-4.641-3.267h7.922a4.9,4.9,0,1,0,0-9.8H22.219a9.861,9.861,0,0,0-5.7-3.16V34.267H28v9.8A1.637,1.637,0,0,0,29.641,45.7h9.844a1.637,1.637,0,0,0,1.641-1.633v-9.8H52.719Z" fill="#fc566a"/></g></g></svg>