<svg xmlns="http://www.w3.org/2000/svg" width="64" height="64" viewBox="0 0 64 64"><g id="Сгруппировать_1104" data-name="Сгруппировать 1104" transform="translate(-19290 19909)"><path id="Прямоугольник_715" data-name="Прямоугольник 715" transform="translate(19290 -19909)" fill="none" d="M0 0H64V64H0z"/><g id="delivery_2_" data-name="delivery (2)" transform="translate(19294 -19974.521)"><g id="Сгруппировать_1081" data-name="Сгруппировать 1081" transform="translate(35.235 103.339)"><g id="Сгруппировать_1080" data-name="Сгруппировать 1080"><path id="Контур_288" data-name="Контур 288" d="M329.21,304.4a7.091,7.091,0,1,0,7.059,7.091A7.083,7.083,0,0,0,329.21,304.4Zm0,10.636a3.546,3.546,0,1,1,3.529-3.545A3.541,3.541,0,0,1,329.21,315.039Z" transform="translate(-322.151 -304.403)" fill="#fc566a"/></g></g><g id="Сгруппировать_1083" data-name="Сгруппировать 1083" transform="translate(11.118 103.339)"><g id="Сгруппировать_1082" data-name="Сгруппировать 1082"><path id="Контур_289" data-name="Контур 289" d="M108.706,304.4a7.091,7.091,0,1,0,7.059,7.091A7.083,7.083,0,0,0,108.706,304.4Zm0,10.636a3.546,3.546,0,1,1,3.529-3.545A3.541,3.541,0,0,1,108.706,315.039Z" transform="translate(-101.647 -304.403)" fill="#fc566a"/></g></g><g id="Сгруппировать_1085" data-name="Сгруппировать 1085" transform="translate(36.176 82.066)"><g id="Сгруппировать_1084" data-name="Сгруппировать 1084"><path id="Контур_290" data-name="Контур 290" d="M341.627,111.766a1.765,1.765,0,0,0-1.577-.976h-9.294v3.545h8.206l4.805,9.6,3.154-1.593Z" transform="translate(-330.756 -110.79)" fill="#fc566a"/></g></g><g id="Сгруппировать_1087" data-name="Сгруппировать 1087" transform="translate(23.647 108.717)"><g id="Сгруппировать_1086" data-name="Сгруппировать 1086"><path id="Прямоугольник_713" data-name="Прямоугольник 713" fill="#fc566a" d="M0 0H13.353V3.545H0z"/></g></g><g id="Сгруппировать_1089" data-name="Сгруппировать 1089" transform="translate(5 108.717)"><g id="Сгруппировать_1088" data-name="Сгруппировать 1088"><path id="Контур_291" data-name="Контур 291" d="M53.6,353.345H47.48a1.773,1.773,0,0,0,0,3.545H53.6a1.773,1.773,0,0,0,0-3.545Z" transform="translate(-45.715 -353.345)" fill="#fc566a"/></g></g><g id="Сгруппировать_1091" data-name="Сгруппировать 1091" transform="translate(5 78.521)"><g id="Сгруппировать_1090" data-name="Сгруппировать 1090"><path id="Контур_292" data-name="Контур 292" d="M96.344,97.879l-3.471-4.491A1.759,1.759,0,0,0,91.48,92.7H78.656V80.294a1.769,1.769,0,0,0-1.765-1.773H47.48a1.773,1.773,0,0,0,0,3.545H75.127V94.475a1.769,1.769,0,0,0,1.765,1.773H90.616l2.57,3.326v9.143H88.3a1.773,1.773,0,0,0,0,3.545H94.95a1.769,1.769,0,0,0,1.765-1.773V98.966A1.78,1.78,0,0,0,96.344,97.879Z" transform="translate(-45.715 -78.521)" fill="#fc566a"/></g></g><g id="Сгруппировать_1093" data-name="Сгруппировать 1093" transform="translate(2.882 99.735)"><g id="Сгруппировать_1092" data-name="Сгруппировать 1092"><path id="Контур_293" data-name="Контур 293" d="M36.235,271.6H28.118a1.773,1.773,0,0,0,0,3.545h8.118a1.773,1.773,0,0,0,0-3.545Z" transform="translate(-26.353 -271.597)" fill="#fc566a"/></g></g><g id="Сгруппировать_1095" data-name="Сгруппировать 1095" transform="translate(0 92.762)"><g id="Сгруппировать_1094" data-name="Сгруппировать 1094"><path id="Контур_294" data-name="Контур 294" d="M16.824,208.134H1.765a1.773,1.773,0,0,0,0,3.545H16.824a1.773,1.773,0,0,0,0-3.545Z" transform="translate(0 -208.134)" fill="#fc566a"/></g></g><g id="Сгруппировать_1097" data-name="Сгруппировать 1097" transform="translate(2.882 85.789)"><g id="Сгруппировать_1096" data-name="Сгруппировать 1096"><path id="Контур_295" data-name="Контур 295" d="M43.177,144.672H28.118a1.773,1.773,0,0,0,0,3.545H43.177a1.773,1.773,0,0,0,0-3.545Z" transform="translate(-26.353 -144.672)" fill="#fc566a"/></g></g></g></g></svg>