<svg xmlns="http://www.w3.org/2000/svg" width="64" height="64" viewBox="0 0 64 64"><g id="Сгруппировать_1058" data-name="Сгруппировать 1058" transform="translate(-971 -470)"><path id="Прямоугольник_688" data-name="Прямоугольник 688" transform="translate(971 470)" fill="none" d="M0 0H64V64H0z"/><g id="credit-card" transform="translate(977 407.912)"><g id="Сгруппировать_1042" data-name="Сгруппировать 1042" transform="translate(0 76.087)" fill="#fc566a" stroke="#fc566a" stroke-width=".2"><path id="Контур_245" data-name="Контур 245" d="M45.784,76.087H6.216A6.43,6.43,0,0,0,0,82.7v23.777a6.43,6.43,0,0,0,6.216,6.612H45.784A6.43,6.43,0,0,0,52,106.475V82.7A6.43,6.43,0,0,0,45.784,76.087Zm2.776,30.388a2.872,2.872,0,0,1-2.776,2.953H6.216a2.872,2.872,0,0,1-2.777-2.953V90.542H48.561v15.934Zm0-21.153-45.121,0V82.7a2.872,2.872,0,0,1,2.777-2.953H45.784A2.872,2.872,0,0,1,48.561,82.7v2.624Z" transform="translate(0 -76.087)"/><path id="Контур_246" data-name="Контур 246" d="M63.348,301.041h9.415a.631.631,0,0,0,.611-.649v-1.976a.631.631,0,0,0-.611-.649H63.348a.631.631,0,0,0-.611.649v1.976A.631.631,0,0,0,63.348,301.041Z" transform="translate(-55.64 -271.092)"/><path id="Контур_247" data-name="Контур 247" d="M278.68,249.025a4.113,4.113,0,0,1,2.6.935,4.114,4.114,0,0,1,2.6-.935,4.578,4.578,0,0,1,0,9.14,4.112,4.112,0,0,1-2.6-.935,4.113,4.113,0,0,1-2.6.935,4.578,4.578,0,0,1,0-9.14Z" transform="translate(-243.344 -228.216)"/></g></g></g></svg>