<svg xmlns="http://www.w3.org/2000/svg" width="64" height="64" viewBox="0 0 64 64"><g id="Сгруппировать_1059" data-name="Сгруппировать 1059" transform="translate(-1427 -487)"><path id="Прямоугольник_689" data-name="Прямоугольник 689" transform="translate(1427 487)" fill="none" d="M0 0H64V64H0z"/><g id="pos" transform="translate(1433 492)"><g id="Сгруппировать_1043" data-name="Сгруппировать 1043" transform="translate(0 1)"><path id="Контур_248" data-name="Контур 248" d="M47.43,23.839H32.4V5.588A4.584,4.584,0,0,0,27.828,1H4.57A4.584,4.584,0,0,0,0,5.588V48.412A4.584,4.584,0,0,0,4.57,53H27.828a4.585,4.585,0,0,0,4.57-4.588V46.475H47.43A4.585,4.585,0,0,0,52,41.886V28.427A4.584,4.584,0,0,0,47.43,23.839Zm0,3.059a1.528,1.528,0,0,1,1.523,1.529v1.937H32.4V26.9ZM29.352,48.412a1.528,1.528,0,0,1-1.523,1.529H4.57a1.528,1.528,0,0,1-1.523-1.529V5.588A1.528,1.528,0,0,1,4.57,4.059H27.828a1.528,1.528,0,0,1,1.523,1.529Zm18.078-5H32.4V33.424H48.953v8.463A1.528,1.528,0,0,1,47.43,43.416Z" transform="translate(0 -1)" fill="#fc566a" stroke="#fc566a" stroke-width=".5"/></g><g id="Сгруппировать_1044" data-name="Сгруппировать 1044" transform="translate(8.228 28.734)"><path id="Контур_249" data-name="Контур 249" d="M84.03,274.238A1.523,1.523,0,1,0,82.978,276a1.523,1.523,0,0,0,1.052-1.762Z" transform="translate(-81.014 -273.008)" fill="#fc566a" stroke="#fc566a" stroke-width=".5"/></g><g id="Сгруппировать_1045" data-name="Сгруппировать 1045" transform="translate(14.727 28.732)"><path id="Контур_250" data-name="Контур 250" d="M147.377,273.249a1.525,1.525,0,1,0,.332,2.241,1.526,1.526,0,0,0-.332-2.241Z" transform="translate(-145.009 -272.99)" fill="#fc566a" stroke="#fc566a" stroke-width=".5"/></g><g id="Сгруппировать_1046" data-name="Сгруппировать 1046" transform="translate(21.228 28.733)"><path id="Контур_251" data-name="Контур 251" d="M212.027,274.232a1.523,1.523,0,1,0-1.051,1.762A1.523,1.523,0,0,0,212.027,274.232Z" transform="translate(-209.011 -273.001)" fill="#fc566a" stroke="#fc566a" stroke-width=".5"/></g><g id="Сгруппировать_1047" data-name="Сгруппировать 1047" transform="translate(8.228 35.259)"><path id="Контур_252" data-name="Контур 252" d="M84.03,338.236A1.523,1.523,0,1,0,82.978,340a1.522,1.522,0,0,0,1.052-1.762Z" transform="translate(-81.014 -337.006)" fill="#fc566a" stroke="#fc566a" stroke-width=".5"/></g><g id="Сгруппировать_1048" data-name="Сгруппировать 1048" transform="translate(14.727 35.257)"><path id="Контур_253" data-name="Контур 253" d="M147.378,337.246a1.525,1.525,0,1,0,.332,2.241A1.526,1.526,0,0,0,147.378,337.246Z" transform="translate(-145.009 -336.986)" fill="#fc566a" stroke="#fc566a" stroke-width=".5"/></g><g id="Сгруппировать_1049" data-name="Сгруппировать 1049" transform="translate(21.227 35.259)"><path id="Контур_254" data-name="Контур 254" d="M212.024,338.231a1.523,1.523,0,1,0-1.051,1.762A1.524,1.524,0,0,0,212.024,338.231Z" transform="translate(-209.007 -337)" fill="#fc566a" stroke="#fc566a" stroke-width=".5"/></g><g id="Сгруппировать_1050" data-name="Сгруппировать 1050" transform="translate(8.228 41.785)"><path id="Контур_255" data-name="Контур 255" d="M84.029,402.236A1.523,1.523,0,1,0,82.977,404a1.522,1.522,0,0,0,1.052-1.762Z" transform="translate(-81.013 -401.006)" fill="#fc566a" stroke="#fc566a" stroke-width=".5"/></g><g id="Сгруппировать_1051" data-name="Сгруппировать 1051" transform="translate(14.727 41.784)"><path id="Контур_256" data-name="Контур 256" d="M147.375,401.258a1.527,1.527,0,1,0-.549,2.771A1.52,1.52,0,0,0,147.375,401.258Z" transform="translate(-145.006 -401.001)" fill="#fc566a" stroke="#fc566a" stroke-width=".5"/></g><g id="Сгруппировать_1052" data-name="Сгруппировать 1052" transform="translate(21.228 41.784)"><path id="Контур_257" data-name="Контур 257" d="M212.027,402.231a1.523,1.523,0,1,0-1.051,1.762A1.523,1.523,0,0,0,212.027,402.231Z" transform="translate(-209.011 -401.001)" fill="#fc566a" stroke="#fc566a" stroke-width=".5"/></g><g id="Сгруппировать_1053" data-name="Сгруппировать 1053" transform="translate(6.602 7.525)"><path id="Контур_258" data-name="Контур 258" d="M82.773,65H66.523A1.526,1.526,0,0,0,65,66.529V79.58a1.526,1.526,0,0,0,1.523,1.529h16.25A1.526,1.526,0,0,0,84.3,79.58V66.529A1.526,1.526,0,0,0,82.773,65ZM81.25,78.051h-13.2V68.059h13.2Z" transform="translate(-65 -65)" fill="#fc566a" stroke="#fc566a" stroke-width=".5"/></g></g></g></svg>