<svg xmlns="http://www.w3.org/2000/svg" width="64" height="64" viewBox="0 0 64 64"><g id="Сгруппировать_1060" data-name="Сгруппировать 1060" transform="translate(-547 -881)"><path id="Прямоугольник_690" data-name="Прямоугольник 690" transform="translate(547 881)" fill="none" d="M0 0H64V64H0z"/><g id="calendar_1_" data-name="calendar (1)" transform="translate(551 871.488)" fill="#fc566a" stroke="#fc566a" stroke-width=".3"><path id="Контур_268" data-name="Контур 268" d="M.013.1l27.8.161.019,3.262L.032,3.366Z" transform="rotate(-45 72.43 1.487)"/><path id="Контур_269" data-name="Контур 269" d="M185.686,175a4.879,4.879,0,1,0-4.936-4.879A4.913,4.913,0,0,0,185.686,175Zm0-6.514a1.635,1.635,0,1,1-1.654,1.635A1.647,1.647,0,0,1,185.686,168.481Z" transform="translate(-160.98 -133.539)"/><path id="Контур_270" data-name="Контур 270" d="M306.186,285.738a4.879,4.879,0,1,0,4.936,4.879A4.913,4.913,0,0,0,306.186,285.738Zm0,6.514a1.635,1.635,0,1,1,1.654-1.635A1.647,1.647,0,0,1,306.186,292.252Z" transform="translate(-268.301 -241.011)"/><path id="Контур_271" data-name="Контур 271" d="M49.41,17.577V15.512H46.129v2.065H42.82V15.512H39.539v2.065H36.23V15.512H32.949v2.065H29.641V15.512H26.359v2.065H23.051V15.512H19.77v2.065H16.461V15.512H13.18v2.065H6.59V57.755H0v4.879a4.913,4.913,0,0,0,4.936,4.879H51.064A4.913,4.913,0,0,0,56,62.633V17.577ZM4.936,64.269a1.647,1.647,0,0,1-1.654-1.635V61H46.129v1.635a4.806,4.806,0,0,0,.285,1.635Zm47.783-1.635a1.654,1.654,0,0,1-3.309,0V57.755H9.871V28.429H52.719ZM9.871,25.186V20.82H13.18v2.065h3.281V20.82H19.77v2.065h3.281V20.82h3.309v2.065h3.281V20.82h3.309v2.065H36.23V20.82h3.309v2.065H42.82V20.82h3.309v2.065H49.41V20.82h3.309v4.365Z"/></g></g></svg>