<svg xmlns="http://www.w3.org/2000/svg" width="53.2" height="53.188" viewBox="0 0 53.2 53.188"><g id="tomb" transform="translate(.6 .541)" fill="#fc566a" stroke="#fc566a" stroke-width="1.2"><path id="Контур_391" data-name="Контур 391" d="M50.477,42.949h-1.51V38.4a1.523,1.523,0,0,0-1.523-1.523H43.682V17.741a17.682,17.682,0,0,0-35.365,0V36.873H4.557A1.523,1.523,0,0,0,3.033,38.4v4.552H1.523A1.523,1.523,0,0,0,0,44.472v6.052a1.523,1.523,0,0,0,1.523,1.523H50.477A1.523,1.523,0,0,0,52,50.524V44.472A1.523,1.523,0,0,0,50.477,42.949ZM11.364,17.741a14.636,14.636,0,0,1,29.273,0V36.873H11.364ZM6.08,39.92H45.92v3.029H6.08ZM48.954,49H3.046V45.995H48.954Z"/><path id="Контур_392" data-name="Контур 392" d="M193.59,266.793H181.105a1.523,1.523,0,1,0,0,3.046H193.59a1.523,1.523,0,0,0,0-3.046Z" transform="translate(-161.348 -239.65)"/><path id="Контур_393" data-name="Контур 393" d="M193.59,206.793H181.105a1.523,1.523,0,1,0,0,3.046H193.59a1.523,1.523,0,0,0,0-3.046Z" transform="translate(-161.348 -185.743)"/><path id="Контур_394" data-name="Контур 394" d="M193.59,146.793H181.105a1.523,1.523,0,1,0,0,3.046H193.59a1.523,1.523,0,0,0,0-3.046Z" transform="translate(-161.348 -131.835)"/></g></svg>