<svg id="local_shipping_black_24dp" xmlns="http://www.w3.org/2000/svg" width="64" height="64" viewBox="0 0 64 64"><path id="Контур_235" data-name="Контур 235" d="M0,0H64V64H0Z" fill="none"/><path id="Контур_236" data-name="Контур 236" d="M51.667,14.667h-8V4H6.333A5.349,5.349,0,0,0,1,9.333V38.667H6.333a8,8,0,0,0,16,0h16a8,8,0,0,0,16,0h5.333V25.333Zm-1.333,4,5.227,6.667H43.667V18.667Zm-36,22.667A2.667,2.667,0,1,1,17,38.667,2.675,2.675,0,0,1,14.333,41.333Zm5.92-8a7.9,7.9,0,0,0-11.84,0H6.333v-24h32v24Zm26.08,8A2.667,2.667,0,1,1,49,38.667,2.675,2.675,0,0,1,46.333,41.333Z" transform="translate(1.667 6.667)" fill="#fc566a"/></svg>