<svg xmlns="http://www.w3.org/2000/svg" width="64" height="64" viewBox="0 0 64 64"><g id="Сгруппировать_1172" data-name="Сгруппировать 1172" transform="translate(-411 -1748)"><path id="Прямоугольник_764" data-name="Прямоугольник 764" transform="translate(411 1748)" fill="none" d="M0 0H64V64H0z"/><g id="users" transform="translate(415 1755)"><g id="Сгруппировать_1164" data-name="Сгруппировать 1164"><path id="Контур_307" data-name="Контур 307" d="M45.4,49.857a13.97,13.97,0,0,0-17.39-21.805,13.976,13.976,0,0,0-17.41,21.8A19.851,19.851,0,0,0,0,67.5v6a2,2,0,0,0,2,2H54a2,2,0,0,0,2-2v-6A19.851,19.851,0,0,0,45.4,49.857ZM36,29.517A9.98,9.98,0,0,1,40.11,48.6c-.154.07-.308.134-.464.2a9.806,9.806,0,0,1-1.522.474c-.1.022-.2.034-.3.054a10.009,10.009,0,0,1-1.76.178c-.266,0-.534-.02-.8-.044a1.511,1.511,0,0,1-.3-.02,10.107,10.107,0,0,1-3.27-.963c-.038-.018-.082-.016-.12-.032-.2-.1-.4-.18-.578-.288.016-.02.026-.042.042-.062a14.021,14.021,0,0,0,2.142-3.9l.062-.168a14.094,14.094,0,0,0,.53-2.057c.018-.1.032-.2.048-.31a12.755,12.755,0,0,0,0-4.294c-.016-.1-.03-.2-.048-.31A14.1,14.1,0,0,0,33.24,35l-.062-.168a14.024,14.024,0,0,0-2.142-3.9c-.016-.02-.026-.042-.042-.062A9.94,9.94,0,0,1,36,29.517Zm-26,10a9.975,9.975,0,0,1,16.878-7.22c.116.112.23.224.342.34a10.279,10.279,0,0,1,.948,1.149c.088.124.168.256.25.384a9.832,9.832,0,0,1,.734,1.349c.05.114.088.23.132.344a9.767,9.767,0,0,1,.5,1.6c.014.06.018.12.03.182a9.4,9.4,0,0,1,0,3.762c-.012.062-.016.122-.03.182a9.745,9.745,0,0,1-.5,1.6c-.044.114-.082.23-.132.344a9.867,9.867,0,0,1-.734,1.347c-.082.128-.162.26-.25.384a10.256,10.256,0,0,1-.948,1.149c-.112.116-.226.228-.342.34a9.983,9.983,0,0,1-2.762,1.863c-.162.074-.326.142-.492.2a10.063,10.063,0,0,1-1.484.46c-.126.028-.256.044-.384.066a9.927,9.927,0,0,1-1.646.166h-.22a9.914,9.914,0,0,1-1.646-.166c-.128-.022-.258-.038-.384-.066a10.059,10.059,0,0,1-1.484-.46c-.166-.066-.33-.134-.492-.2A9.994,9.994,0,0,1,10,39.512ZM36,71.5H4v-4A15.892,15.892,0,0,1,14.637,52.433a13.962,13.962,0,0,0,10.728,0,16.074,16.074,0,0,1,1.948.862c.416.214.8.458,1.2.7.26.162.524.32.774.5.386.274.75.572,1.108.878.23.2.458.4.674.6.33.312.64.642.938.98.214.244.422.492.62.748.262.336.512.68.744,1.033.2.3.378.612.554.924.2.344.384.688.552,1.045s.316.75.46,1.131c.126.332.26.662.364,1,.14.464.238.943.336,1.423.06.284.138.562.182.85A16.525,16.525,0,0,1,36,67.5v4Zm16,0H40v-4c0-.626-.036-1.245-.092-1.859-.016-.18-.044-.358-.064-.538-.054-.442-.116-.88-.2-1.313q-.054-.278-.114-.558-.144-.668-.334-1.323c-.042-.144-.08-.29-.124-.432a19.8,19.8,0,0,0-2.41-5.051l-.078-.114q-.516-.766-1.1-1.481l-.014-.018a18.147,18.147,0,0,0-1.29-1.433h.082a14.161,14.161,0,0,0,1.7.12h.11a14.153,14.153,0,0,0,1.576-.1c.164-.02.326-.05.49-.076q.638-.1,1.26-.254c.118-.03.238-.058.358-.092a13.623,13.623,0,0,0,1.6-.544A15.892,15.892,0,0,1,52,67.5v4Z" transform="translate(-.001 -25.494)" fill="#fc566a"/></g></g></g></svg>