<svg xmlns="http://www.w3.org/2000/svg" width="64" height="64" viewBox="0 0 64 64"><g id="Сгруппировать_1102" data-name="Сгруппировать 1102" transform="translate(-19419 19909)"><path id="Прямоугольник_716" data-name="Прямоугольник 716" transform="translate(19419 -19909)" fill="none" d="M0 0H64V64H0z"/><path id="trolley" d="M69.485,50.243h-4.35V28.655h-3.6V14.263H43.512V28.655h-3.6V50.243H35.341a7.149,7.149,0,0,0-2.64-2.636V4.05L22.558,0,21.22,3.341,29.1,6.486V18.761l-7.208,5.4V34.952l7.208,5.4v6.3a7.21,7.21,0,0,0-7.208,7.2c.4,9.547,14.021,9.543,14.415,0H67.992l6.68,6.669,2.548-2.544ZM25.493,33.153v-7.2l3.6-2.7V35.851Zm3.6,24.286a3.6,3.6,0,1,1,3.6-3.6A3.6,3.6,0,0,1,29.1,57.439ZM50.719,32.253h3.6v3.6h-3.6Zm-3.6-14.392h3.6v3.6h3.6v-3.6h3.6V28.655H47.116Zm-3.6,32.382V32.253h3.6v7.2H57.927v-7.2h3.6v17.99Z" transform="translate(19401.779 -19907)" fill="#fc566a"/></g></svg>