<svg xmlns="http://www.w3.org/2000/svg" width="64" height="64" viewBox="0 0 64 64"><g id="Сгруппировать_1171" data-name="Сгруппировать 1171" transform="translate(-705 -1804)"><path id="Прямоугольник_766" data-name="Прямоугольник 766" transform="translate(705 1804)" fill="none" d="M0 0H64V64H0z"/><g id="wallet" transform="translate(714 1808)"><path id="Контур_308" data-name="Контур 308" d="M89.5,36.2H84.088V24.172H80.3V0H56.488V8.859h-6.12a3.645,3.645,0,0,0-3.621,3.659V24.172A3.272,3.272,0,0,0,43.5,27.457V52.715A3.272,3.272,0,0,0,46.751,56H84.088V46.047H89.5ZM59.735,3.391H77.053V24.172H70.559V12.519a3.645,3.645,0,0,0-3.621-3.659h-7.2Zm7.2,8.75a.377.377,0,0,1,.374.378V24.172H64.065V12.141Zm-16.943.378a.377.377,0,0,1,.374-.378h2.873v3.828h3.247V12.141h4.329V24.172H49.994Zm-3.247,40.2,0-25.262H52.7V52.715Zm34.094,0-24.894,0V27.453H80.841V36.2H78.135a4.922,4.922,0,0,0,0,9.844h2.706Zm5.412-9.953H78.135a1.641,1.641,0,0,1,0-3.281h8.118Z" transform="translate(-43.5)" fill="#fc566a"/></g></g></svg>