<svg id="shopping_cart_black_24dp" xmlns="http://www.w3.org/2000/svg" width="128" height="128" viewBox="0 0 128 128"><path id="Контур_62" data-name="Контур 62" d="M0,0H128V128H0Z" fill="none"/><path id="Контур_63" data-name="Контур 63" d="M33,87.333A10.667,10.667,0,1,0,43.667,98,10.652,10.652,0,0,0,33,87.333Zm-32-80a5.349,5.349,0,0,0,5.333,5.333h5.333l19.2,40.48-7.2,13.013A10.686,10.686,0,0,0,33,82H91.667a5.333,5.333,0,0,0,0-10.667H33l5.867-10.667H78.6a10.616,10.616,0,0,0,9.333-5.493L107.027,20.56a5.313,5.313,0,0,0-4.64-7.893H23.453L19.88,5.04A5.294,5.294,0,0,0,15.08,2H6.333A5.349,5.349,0,0,0,1,7.333Zm85.333,80A10.667,10.667,0,1,0,97,98,10.652,10.652,0,0,0,86.333,87.333Z" transform="translate(4.333 8.667)" fill="#fc566a"/></svg>